<svg xmlns="http://www.w3.org/2000/svg" width="24" height="24" viewBox="0 0 24 24"><g fill="none" fill-rule="evenodd" transform="translate(2 2)"><circle cx="10" cy="10" r="10" fill="navy"/><path fill="#FFF" fill-rule="nonzero" d="M12.4546875,10.9882813 L13.5914063,11.2753906 C13.353125,12.2089844 12.9244141,12.9208984 12.3052734,13.4111328 C11.6861328,13.9013672 10.9292969,14.1464844 10.0347656,14.1464844 C9.10898438,14.1464844 8.35605469,13.9580078 7.77597656,13.5810547 C7.19589844,13.2041016 6.75449219,12.6582031 6.45175781,11.9433594 C6.14902344,11.2285156 5.99765625,10.4609375 5.99765625,9.640625 C5.99765625,8.74609375 6.16855469,7.96582031 6.51035156,7.29980469 C6.85214844,6.63378906 7.33847656,6.12792969 7.96933594,5.78222656 C8.60019531,5.43652344 9.29453125,5.26367188 10.0523438,5.26367188 C10.9117188,5.26367188 11.634375,5.48242188 12.2203125,5.91992188 C12.80625,6.35742187 13.2144531,6.97265625 13.4449219,7.765625 L12.3257813,8.02929688 C12.1265625,7.40429687 11.8375,6.94921875 11.4585938,6.6640625 C11.0796875,6.37890625 10.603125,6.23632812 10.0289063,6.23632812 C9.36875,6.23632812 8.81699219,6.39453125 8.37363281,6.7109375 C7.93027344,7.02734375 7.61875,7.45214844 7.4390625,7.98535156 C7.259375,8.51855469 7.16953125,9.06835938 7.16953125,9.63476562 C7.16953125,10.3652344 7.27597656,11.0029297 7.48886719,11.5478516 C7.70175781,12.0927734 8.0328125,12.5 8.48203125,12.7695313 C8.93125,13.0390625 9.41757813,13.1738281 9.94101563,13.1738281 C10.5777344,13.1738281 11.1167969,12.9902344 11.5582031,12.6230469 C11.9996094,12.2558594 12.2984375,11.7109375 12.4546875,10.9882813 Z"/></g></svg>