<svg xmlns="http://www.w3.org/2000/svg" width="24" height="24" viewBox="0 0 24 24"><g fill="none" fill-rule="evenodd" stroke="#000E7E" stroke-width="1.5" transform="translate(1 1)"><path d="M18,0.75 C18.8974627,0.75 19.7099627,1.11376864 20.298097,1.70190296 C20.8862314,2.29003728 21.25,3.10253728 21.25,4 L21.25,14.173913 C21.25,15.0713758 20.8862314,15.8838758 20.298097,16.4720101 C19.7099627,17.0601444 18.8974627,17.423913 18,17.423913 L4.59005368,17.423913 L0.75,20.4531061 L0.75,4 C0.75,3.10253728 1.11376864,2.29003728 1.70190296,1.70190296 C2.29003728,1.11376864 3.10253728,0.75 4,0.75 L18,0.75 Z"/><line x1="5.5" x2="16.5" y1="5.042" y2="5.042" stroke-linecap="square"/><line x1="5.5" x2="16.5" y1="8.708" y2="8.708" stroke-linecap="square"/><line x1="5.5" x2="11.917" y1="12.375" y2="12.375" stroke-linecap="square"/></g></svg>