<svg width="24" height="25" viewBox="0 0 24 25" xmlns="http://www.w3.org/2000/svg">
    <g transform="translate(0 .5)" fill="none" fill-rule="evenodd">
        <rect fill="#FFF" x="2" y="5" width="16" height="18" rx="2"/>
        <path d="M16 5a2 2 0 0 1 2 2v14a2 2 0 0 1-2 2H4a2 2 0 0 1-2-2V7a2 2 0 0 1 2-2h12zm0 1.5H4a.5.5 0 0 0-.492.41L3.5 7v14a.5.5 0 0 0 .41.492L4 21.5h12a.5.5 0 0 0 .492-.41L16.5 21V7a.5.5 0 0 0-.41-.492L16 6.5z" fill="navy"/>
        <rect fill="#FFF" x="5" y="2" width="16" height="18" rx="2"/>
        <path d="M19 2a2 2 0 0 1 2 2v14a2 2 0 0 1-2 2H7a2 2 0 0 1-2-2V4a2 2 0 0 1 2-2h12zm0 1.5H7a.5.5 0 0 0-.492.41L6.5 4v14a.5.5 0 0 0 .41.492L7 18.5h12a.5.5 0 0 0 .492-.41L19.5 18V4a.5.5 0 0 0-.41-.492L19 3.5z" fill="#000E7E" fill-rule="nonzero"/>
        <path d="M13.152 6.833a.746.746 0 0 0-.747.758v2.814H9.59a.755.755 0 0 0-.758.747v-.304c0 .413.33.747.758.747h2.814v2.814c0 .419.338.758.747.758h-.304c.413 0 .747-.33.747-.758v-2.814h2.814a.755.755 0 0 0 .758-.747v.304a.746.746 0 0 0-.758-.747h-2.814V7.59a.755.755 0 0 0-.747-.758h.304z" fill="navy"/>
    </g>
</svg>
