<svg xmlns="http://www.w3.org/2000/svg" width="24" height="24" viewBox="0 0 24 24">
    <g fill="none" fill-rule="evenodd">
        <g>
            <g>
                <g>
                    <g>
                        <path d="M0 0H24V24H0z" transform="translate(-120 -167) translate(104 113) translate(0 41) translate(16 13)"/>
                        <g transform="translate(-120 -167) translate(104 113) translate(0 41) translate(16 13) translate(5 1)">
                            <ellipse cx="7" cy="2.5" stroke="navy" stroke-width="1.3" rx="6.8" ry="2.5"/>
                            <path stroke="navy" stroke-width="1.3" d="M.2 2.5v17.1-.2c0 1.4 3.1 2.5 6.8 2.5 3.7 0 6.8-1.1 6.8-2.5v.3-17 5.5c0 1.4-3.1 2.5-6.8 2.5C3.3 10.7.2 9.6.2 8.2v5.6c0 1.4 3.1 2.5 6.8 2.5 3.7 0 6.8-1.1 6.8-2.5"/>
                            <g fill="#F15E5C" fill-rule="nonzero">
                                <path d="M2.6 1.1H.9C.7 1.1.5.9.5.7S.7.3.9.3h1.8c.2 0 .4.2.4.4s-.2.4-.5.4zM6 1.1H4.2c-.2 0-.4-.2-.4-.4s.2-.4.4-.4H6c.2 0 .4.2.4.4s-.2.4-.4.4zM9.4 1.1H7.6c-.2 0-.4-.2-.4-.4s.2-.4.4-.4h1.8c.2 0 .5.2.5.4-.1.2-.3.4-.5.4zM2.6 6.8H.9c-.2 0-.4-.2-.4-.4S.7 6 .9 6h1.8c.2 0 .4.2.4.4s-.2.4-.5.4zM6 6.8H4.2c-.2 0-.4-.2-.4-.4S4 6 4.2 6H6c.2 0 .4.2.4.4s-.2.4-.4.4zM9.4 6.8H7.6c-.2 0-.4-.2-.4-.4s.2-.4.4-.4h1.8c.2 0 .5.2.5.4-.1.2-.3.4-.5.4zM2.6 12.4H.9c-.2 0-.4-.2-.4-.5 0-.2.2-.4.4-.4h1.8c.2 0 .4.2.4.4 0 .3-.2.5-.5.5zM6 12.4H4.2c-.2 0-.4-.2-.4-.5 0-.2.2-.4.4-.4H6c.2 0 .4.2.4.4 0 .3-.2.5-.4.5zM9.4 12.4H7.6c-.2 0-.4-.2-.4-.5 0-.2.2-.4.4-.4h1.8c.2 0 .5.2.5.4-.1.3-.3.5-.5.5z" transform="translate(2 7)"/>
                            </g>
                        </g>
                    </g>
                </g>
            </g>
        </g>
    </g>
</svg>
