<svg width="24" height="24" viewBox="0 0 24 24" xmlns="http://www.w3.org/2000/svg">
    <path d="M17 2c1.306 0 2.418.835 2.83 2l1.42.001a.75.75 0 0 1 0 1.499h-1.292a3 3 0 0 1-5.916 0H2.749a.75.75 0 1 1 0-1.499h11.422A3.001 3.001 0 0 1 17 2zm0 1a2 2 0 1 0 0 4 2 2 0 0 0 0-4zm-1 13c1.306 0 2.418.835 2.83 2l2.42.001a.75.75 0 0 1 0 1.499h-2.292a3 3 0 0 1-5.916 0H2.749a.75.75 0 1 1 0-1.499L13.171 18A3.001 3.001 0 0 1 16 16zm0 1a2 2 0 1 0 0 4 2 2 0 0 0 0-4zM8 9c1.306 0 2.417.834 2.829 2h10.422a.75.75 0 1 1 0 1.5H10.959a3 3 0 0 1-5.917 0H2.749a.75.75 0 1 1 0-1.5h2.422A3.001 3.001 0 0 1 8 9zm0 1a2 2 0 1 0 0 4 2 2 0 0 0 0-4z" fill="navy" fill-rule="evenodd"/>
</svg>
