<svg width="24" height="24" xmlns="http://www.w3.org/2000/svg">
    <path d="M15 1.001a2 2 0 0 1 2 2h1a3 3 0 0 1 2.995 2.824l.005.176v14a3 3 0 0 1-2.824 2.995l-.176.005H6a3 3 0 0 1-2.995-2.823L3 20v-14a3 3 0 0 1 2.824-2.994L6 3h1a2 2 0 0 1 2-2zm-8 4H6a1 1 0 0 0-.993.884L5 6v14a1 1 0 0 0 .883.994L6 21h12a1 1 0 0 0 .993-.883l.007-.117v-14a1 1 0 0 0-.883-.993L18 5.001h-1a2 2 0 0 1-2 2H9a2 2 0 0 1-2-2zm9 12a1 1 0 0 1 .117 1.994L16 19H8a1 1 0 0 1-.117-1.993L8 17.001h8zm0-4a1 1 0 0 1 .117 1.994L16 15H8a1 1 0 0 1-.117-1.993L8 13.001h8zm0-4a1 1 0 0 1 .117 1.994L16 11H8a1 1 0 0 1-.117-1.993L8 9.001h8zm-1-6H9v2h6v-2z" fill="navy" fill-rule="nonzero"/>
</svg>
