<svg width="24" height="24" xmlns="http://www.w3.org/2000/svg">
    <g fill="none" fill-rule="evenodd">
        <path d="M0 0h24v24H0z"/>
        <path d="M12.381 17.762a2.101 2.101 0 0 0 2.095-2.095 2.101 2.101 0 0 0-2.095-2.096 2.101 2.101 0 0 0-2.095 2.096c0 1.152.943 2.095 2.095 2.095zm6.286-9.429h-1.048V6.238A5.24 5.24 0 0 0 12.381 1a5.24 5.24 0 0 0-5.238 5.238v2.095H6.095A2.101 2.101 0 0 0 4 10.43v10.476C4 22.057 4.943 23 6.095 23h12.572a2.101 2.101 0 0 0 2.095-2.095V10.429a2.101 2.101 0 0 0-2.095-2.096zM9.133 6.238a3.25 3.25 0 0 1 3.248-3.248 3.25 3.25 0 0 1 3.248 3.248v2.095H9.133V6.238zm9.534 14.667H6.095V10.429h12.572v10.476z" fill="#000E7E"/>
    </g>
</svg>
