<svg xmlns="http://www.w3.org/2000/svg" width="24" height="24" viewBox="0 0 24 24">
    <g fill="none" fill-rule="evenodd">
        <g>
            <g>
                <path d="M0 0H24V23.04H0z" transform="translate(-444 -168) translate(444 168)"/>
                <path fill="navy" d="M8.431 12.593c.304-.197.714-.13.934.15.103.134.144.303.113.466-.03.164-.131.308-.277.398-1.4.86-2.93 1.505-4.538 1.91-1.158.38-1.287 1.521-1.322 2.566v.114c-.013.474.02.948.1 1.415 2.724 1.291 5.73 1.937 8.767 1.883 3.036.059 6.041-.585 8.762-1.878.077-.468.11-.941.1-1.415-.002-.038-.002-.076 0-.114-.035-1.045-.164-2.181-1.322-2.565-1.608-.404-3.14-1.048-4.538-1.91-.145-.091-.246-.235-.277-.399-.03-.163.01-.332.113-.466.22-.28.63-.347.934-.15 1.274.777 2.666 1.36 4.125 1.727l.05.014c2.157.678 2.221 2.798 2.251 3.706v.127c.03.697-.049 1.395-.232 2.07-.052.12-.142.22-.258.288-2.98 1.526-6.323 2.281-9.7 2.19-3.377.094-6.72-.661-9.7-2.19-.116-.066-.207-.168-.258-.288-.196-.675-.28-1.375-.253-2.075v-.013c.003-.038.003-.076 0-.114.03-.903.094-3.023 2.251-3.706l.05-.013c1.46-.366 2.853-.949 4.125-1.728zM12.442 0c.966.002 1.917.223 2.776.646 1.578.827 2.544 2.429 2.506 4.154.036.325.367 3.733-1.62 5.72-.962.927-2.279 1.432-3.64 1.397h-.42c-1.27-.028-2.482-.527-3.38-1.396C6.674 8.533 7.005 5.125 7.041 4.8c-.038-1.737.94-3.348 2.534-4.172.862-.416 1.814-.631 2.778-.628zm.19 1.232l-.223.01h-.062c-1.04-.079-2.064.275-2.814.97S8.38 3.878 8.423 4.878c0 .008-.005.023-.005.036 0 .028-.354 3.157 1.28 4.787.701.671 1.665 1.027 2.654.98h.052c.99.047 1.956-.309 2.66-.98 1.641-1.64 1.28-4.755 1.274-4.787-.004-.011-.006-.024-.005-.036.04-1-.365-1.967-1.114-2.662-.749-.694-1.771-1.049-2.81-.975z" transform="translate(-444 -168) translate(444 168)"/>
            </g>
        </g>
    </g>
</svg>
