<svg width="24" height="24" xmlns="http://www.w3.org/2000/svg">
    <g fill="none" fill-rule="evenodd">
        <path d="M24 24H0V0h24z"/>
        <path d="M16.864 22.27c.404 0 .73.332.73.74a.738.738 0 0 1-.514.704l-.107.027-.109.009H6.81a.735.735 0 0 1-.73-.74c0-.323.205-.603.514-.704l.107-.028.109-.009h10.055zM2.37.473c.24-.25.62-.296.912-.11.27.171.394.495.316.813l-.033.106-.065.121-.279.36 1.073.86.55-.716a.72.72 0 0 1 .732-.265l.103.03.101.046.092.062 7.885 6.314c.25.2.34.536.228.843l-.044.1-.06.092-.554.724.983.8c.23.2.308.515.217.793l-.042.102-.058.097a.721.721 0 0 1-.826.265l-.102-.042-.1-.063-.975-.781-.549.717a.714.714 0 0 1-.21.184l-.087.044-.097.034-.124.02h-.059a.704.704 0 0 1-.275-.057l-.093-.046-.083-.057-5.672-4.536-.034.058a9.415 9.415 0 0 0-1.196 3.984l-.018.351-.005.353c0 4.738 3.33 8.58 7.4 8.58 2.59 0 4.981-1.568 6.317-4.114l.088-.174h-2.67a.731.731 0 0 1-.7-.534l-.022-.106-.007-.1c0-.322.204-.602.514-.704l.106-.027.11-.01h7.464c.404 0 .729.333.729.741a.738.738 0 0 1-.514.704l-.106.027-.11.01-3.199-.001-.05.125c-1.402 3.258-4.225 5.401-7.402 5.626l-.28.015-.276.005c-4.893 0-8.858-4.52-8.858-10.06a10.938 10.938 0 0 1 1.283-5.21l.19-.338.082-.138-1.046-.838a.742.742 0 0 1-.258-.738l.03-.103.043-.101.06-.093.555-.726-1.067-.86-.27.354a.72.72 0 0 1-.735.265l-.103-.03-.1-.047-.091-.061A.747.747 0 0 1 .8 2.57l.044-.101.06-.092L2.369.474zm3.168 2.93-.543.718-.553.722 6.744 5.395.55-.716.55-.723-6.748-5.396z" fill="navy"/>
    </g>
</svg>
