<svg width="24" height="24" viewBox="0 0 24 24" xmlns="http://www.w3.org/2000/svg">
    <g fill="none" fill-rule="evenodd">
        <path d="M24 24.001H0v-24h24z"/>
        <path d="m11.883.372.559.003a2.295 2.295 0 0 1 1.484.987l.119.199c.055.098.1.195.141.301.014.041.025.08.03.114l.008.047.01.036c.025.1.035.155.034.212.023.123.038.277.006.355l.024.015.02.005h1.903c.102 0 .178.007.254.025.25.058.448.246.517.489a.902.902 0 0 1 .04.208l.003.107v.503h2.272l.112.005.104.015.1.025a.81.81 0 0 1 .48.434.933.933 0 0 1 .065.251l.005.127v18.163l.008.104-.005.072-.009.043c-.001.005-.003.008-.004.009-.01.1-.025.157-.063.207a.68.68 0 0 1-.533.394l-.104.008H4.76l-.079.002-.082-.002a.702.702 0 0 1-.64-.46.78.78 0 0 1-.054-.204l-.006-.107V4.727a.776.776 0 0 1 .096-.36.69.69 0 0 1 .412-.343c.067-.02.134-.032.203-.038l.102-.005h2.291l.003-.62.014-.105.025-.104a.708.708 0 0 1 .51-.478l.117-.02.117-.006H9.52l.113-.003.075.001.015-.01.001-.107.01-.117.019-.12c.018-.075.038-.146.06-.212l.036-.096a2.328 2.328 0 0 1 .435-.81 2.59 2.59 0 0 1 .43-.398 2.325 2.325 0 0 1 .588-.296l.182-.052.194-.04-.01.01a.611.611 0 0 1 .135-.023l.08-.003zM7.105 5.314H5.333l-.1.1v17l.1.1h13.365l.1-.1v-8.308l-.002-.19V5.429l-.1-.1h-1.76l-.1.1-.001 1.755-.076.05-.04.072a.512.512 0 0 1-.253.199.654.654 0 0 1-.174.048l-.092.006H7.868l-.101-.007a.712.712 0 0 1-.19-.052.684.684 0 0 1-.293-.226l-.027-.047-.026-.054-.015-.035-.011-1.408v-.315l-.1-.1zm8.86 5.726.122.012c.12.02.233.069.33.143l.094.082a.783.783 0 0 1 .22.555c.001.209-.08.406-.228.555l-5.29 5.312a.756.756 0 0 1-.549.224.764.764 0 0 1-.545-.237l-2.035-2.143a.783.783 0 0 1-.22-.554c0-.209.082-.406.23-.555a.785.785 0 0 1 .548-.225.764.764 0 0 1 .544.239l1.492 1.574 4.74-4.758a.766.766 0 0 1 .434-.217l.114-.007zm-4.008-9.383a1.003 1.003 0 0 0-.96.831c-.01.084-.015.165-.015.242l.003.07-.003.073-.062.288h-.003l-.024.053-.026.073-.065.113-.038.055-.018.068-.02-.012-.095.103a1.263 1.263 0 0 1-.806.358l-.102.003H8.424l-.1.1.008 2.243.1.1h7.178l.1-.1V4.072l-.1-.1h-1.26l-.256-.012-.127-.021a.994.994 0 0 1-.237-.087c-.099-.049-.191-.11-.273-.18a1.274 1.274 0 0 1-.444-.7l-.019-.114V2.61l-.008-.117a.812.812 0 0 0-.066-.224 1.195 1.195 0 0 0-.24-.346.87.87 0 0 0-.499-.247l-.098-.01-.064-.007-.062-.002z" fill="navy"/>
    </g>
</svg>
