<svg width="24" height="24" viewBox="0 0 24 24" xmlns="http://www.w3.org/2000/svg">
    <g fill="none" fill-rule="evenodd">
        <path d="M0 0h24v24H0z"/>
        <g fill="navy">
            <g fill-rule="nonzero">
                <path d="M11.174 16H7a3 3 0 0 0-2.995 2.824L4 19.001v2a1 1 0 0 1-1.993.116L2 21.001v-2a5 5 0 0 1 4.783-4.996L7 14.001 12.023 14a6.464 6.464 0 0 0-.849 2zM11 2a5 5 0 1 0 0 10 5 5 0 0 0 0-10zm0 2a3 3 0 1 1 0 6 3 3 0 0 1 0-6z"/>
            </g>
            <path d="M17.5 12a5.25 5.25 0 1 1 0 10.5 5.25 5.25 0 0 1 0-10.5zm2.522 3.405a.547.547 0 0 0-.773 0l-2.49 2.49-1.008-1.007a.547.547 0 0 0-.774.773l1.392 1.392c.214.214.56.214.774 0a.25.25 0 0 0 .038-.046.55.55 0 0 0 .078-.065l2.763-2.763a.547.547 0 0 0 0-.774z"/>
        </g>
    </g>
</svg>
