<svg width="24" height="24" viewBox="0 0 24 24" xmlns="http://www.w3.org/2000/svg">
    <g fill="none" fill-rule="evenodd">
        <path d="M0 0h24v24H0z"/>
        <g fill="navy">
            <g fill-rule="nonzero">
                <path d="M11.174 16.001H7a3 3 0 0 0-2.995 2.824L4 19v2a1 1 0 0 1-1.993.117L2 21v-2a5 5 0 0 1 4.783-4.995L7 14h5.022a6.464 6.464 0 0 0-.848 2zM11 2a5 5 0 1 0 0 10 5 5 0 0 0 0-10zm0 2a3 3 0 1 1 0 6 3 3 0 0 1 0-6z"/>
            </g>
            <path d="M17.5 12a5.25 5.25 0 1 1 0 10.5 5.25 5.25 0 0 1 0-10.5zm-1.575 3.034a.524.524 0 0 0-.741.741l1.575 1.575-1.575 1.575a.524.524 0 0 0 .741.741l1.575-1.575 1.575 1.575a.524.524 0 0 0 .741-.741l-1.575-1.575 1.575-1.575a.524.524 0 0 0-.741-.741L17.5 16.609z"/>
        </g>
    </g>
</svg>
