<svg width="51" height="41" xmlns="http://www.w3.org/2000/svg">
    <path d="M47.528 33.346c1.781 0 2.805 1.093 2.805 3.169v.655h-4.826c.013 1.544.838 2.486 2.127 2.486.93 0 1.596-.533 1.875-1.461l.785.327c-.413 1.27-1.383 1.978-2.726 1.978-1.888 0-2.992-1.24-2.992-3.535 0-2.24 1.117-3.619 2.952-3.619zM5.864 30.658v9.684h-.878v-1.45C4.601 39.901 3.803 40.5 2.74 40.5 1.09 40.5 0 39.055 0 36.924c0-2.103 1.157-3.578 2.846-3.578.957 0 1.688.45 2.087 1.407v-4.095h.93zm15.965 2.688c1.782 0 2.553.847 2.553 2.827v1.776c0 1.065.066 1.833.213 2.393h-.97a9.662 9.662 0 0 1-.12-1.369c-.32.956-1.17 1.527-2.314 1.527-1.33 0-2.207-.79-2.207-1.964 0-.656.28-1.188.81-1.53.48-.287 1.131-.478 2.182-.614l1.475-.178v-.11c0-1.406-.478-1.966-1.609-1.966-.997 0-1.608.533-1.661 1.503h-.998c.08-1.407 1.117-2.295 2.646-2.295zm-11.295 0c1.782 0 2.553.847 2.553 2.827v1.776c0 1.065.067 1.833.213 2.393h-.97a9.663 9.663 0 0 1-.12-1.369c-.32.956-1.17 1.527-2.314 1.527-1.33 0-2.207-.79-2.207-1.964 0-.656.28-1.188.811-1.53.479-.287 1.13-.478 2.18-.614l1.476-.178v-.11c0-1.406-.478-1.966-1.608-1.966-.998 0-1.61.533-1.662 1.503h-.998c.08-1.407 1.117-2.295 2.646-2.295zM16.32 31.2v2.312h1.716v.792h-1.716V38.4c0 .806.346 1.16 1.037 1.16.266 0 .452-.026.679-.081v.86c-.28.082-.546.123-.918.123-1.29 0-1.728-.806-1.728-2.021v-4.138h-1.224v-.792h1.224v-2.312h.93zM43.04 30.5c.293 0 .558.028.784.096v.82a3.79 3.79 0 0 0-.664-.069c-.745 0-1.064.41-1.064 1.298v.865h1.728v.792h-1.728v6.04h-.917v-6.04h-1.224v-.792h1.224v-.988c0-1.23.704-2.022 1.861-2.022zm-4.704 3.01v6.832h-.917V33.51h.917zm-3.452-2.852v9.684h-.917v-9.684h.917zm-3.76 0v6.403h1.224v.792h-1.224v2.489h-.917v-2.489H25.74v-.696l4.403-6.5h.982zm-7.66 6.266-1.887.274c-1.13.163-1.623.56-1.623 1.31 0 .738.559 1.202 1.45 1.202 1.236 0 2.06-.955 2.06-2.349v-.437zm-11.294 0-1.888.274c-1.13.163-1.622.56-1.622 1.31 0 .738.558 1.202 1.449 1.202 1.236 0 2.06-.955 2.06-2.349v-.437zm-9.192-2.73c-1.25 0-1.994 1.023-1.994 2.73 0 1.694.745 2.732 1.981 2.732 1.223 0 1.981-1.065 1.981-2.581v-.287c0-1.557-.731-2.595-1.968-2.595zm27.256-2.431h-.027c-.16.396-.357.736-.636 1.16l-2.1 3.1c-.293.464-.493.751-.746 1.038h3.482v-4.367c.002-.368.007-.603.027-.931zm17.28 2.348c-1.236 0-1.98.874-2.007 2.28h3.882v-.122c0-1.407-.691-2.158-1.874-2.158zM37.879 30.5c.433 0 .785.361.785.806a.796.796 0 0 1-.785.807.796.796 0 0 1-.785-.807c0-.445.351-.806.785-.806zM27.5 15.167a3.833 3.833 0 1 1 0 7.666 3.833 3.833 0 0 1 0-7.666zm15.706-14v15.116h7.127v6.55h-14V1.167h6.873zM0 .5c5.891 0 10.667 5 10.667 11.167S5.89 22.833 0 22.833V.5zm31.333.667-8.333 12h-8.333l8.333-12h8.333z" fill="navy" fill-rule="evenodd"/>
</svg>
