<?xml version="1.0" standalone="no"?>
<!DOCTYPE svg PUBLIC "-//W3C//DTD SVG 1.1//EN" "http://www.w3.org/Graphics/SVG/1.1/DTD/svg11.dtd" >
<!--
2016-10-27: Created.
-->
<svg xmlns="http://www.w3.org/2000/svg">
<metadata>
Created by FontForge 20110222 at Thu Oct 27 20:34:34 2016
 By Emanuel Ziegler,,,
Created by Emanuel Ziegler,,, with FontForge 2.0 (http://fontforge.sf.net)
</metadata>
<defs>
<font id="sap-hc-hph-genomics-icons" horiz-adv-x="512" >
  <font-face 
    font-family="sap-hc-hph-genomics-icons"
    font-weight="500"
    font-stretch="normal"
    units-per-em="512"
    panose-1="2 0 6 9 0 0 0 0 0 0"
    ascent="448"
    descent="-64"
    bbox="-0.5 -65.2812 512.5 448.5"
    underline-thickness="25.6"
    underline-position="-51.2"
    unicode-range="U+F100-F12B"
  />
    <missing-glyph />
    <glyph glyph-name="uniF12B" unicode="&#xf12b;" 
d="M192 416c60.3076 0 114.113 -27.8223 149.312 -71.3125c-49.7002 -17.5801 -85.3125 -64.9658 -85.3125 -120.688c0 -30.043 10.3877 -57.6367 27.7188 -79.4688c15.041 9.78223 33.002 15.4688 52.2812 15.4688c12.2246 0 23.9014 -2.30273 34.6562 -6.46875
c-7.21875 -18.2871 -17.1729 -35.1807 -29.3438 -50.2188c-22.8965 8.10352 -42.8164 22.5254 -57.625 41.1875c-26.3018 -17.123 -43.6875 -46.7754 -43.6875 -80.5c0 -8.6582 1.16309 -17.0518 3.3125 -25.0312c-16.3389 -4.52441 -33.5332 -6.96875 -51.3125 -6.96875
c-106.039 0 -192 85.9609 -192 192s85.9609 192 192 192zM341.312 344.688c13.3535 4.72363 27.7168 7.3125 42.6875 7.3125c70.6924 0 128 -57.3076 128 -128c0 -56.7139 -36.8789 -104.82 -87.9688 -121.625c-10.2109 23.3877 -29.4893 41.9033 -53.375 51.1562
c8.6123 21.8164 13.3438 45.5918 13.3438 70.4688c0 45.7305 -15.9961 87.71 -42.6875 120.688zM424.031 102.375c5.13184 -11.7529 7.96875 -24.7305 7.96875 -38.375c0 -53.0195 -42.9805 -96 -96 -96c-44.3506 0 -81.667 30.0703 -92.6875 70.9375
c39.0918 10.8164 73.1748 33.7021 98 64.375c13.3555 -4.72656 27.7109 -7.3125 42.6875 -7.3125c13.9785 0 27.4395 2.2334 40.0312 6.375z" />
    <glyph glyph-name="uniF11A" unicode="&#xf11a;" 
d="M64 336h352v-288h-352v288zM112 288v-192h256v192h-256z" />
    <glyph glyph-name="uniF124" unicode="&#xf124;" 
d="M256 448c141.385 0 256 -114.615 256 -256s-114.615 -256 -256 -256s-256 114.615 -256 256s114.615 256 256 256zM144 256v-64h32v64h-32zM208 256v-64h32v64h-32zM272 256v-64h32v64h-32zM336 256v-64h32v64h-32zM96 176v-48h320v48h-320z" />
    <glyph glyph-name="uniF10D" unicode="&#xf10d;" 
d="M32 416h336v-336h-336v336zM64 384v-272h272v272h-272zM144 304h336v-336h-336v336zM176 272v-272h272v272h-272zM0 448h36.8125l-36.8125 -36.8125v36.8125zM82.0625 448h45.25l-127.312 -127.312v45.25zM172.562 448h45.2812l-217.844 -217.844v45.2812zM263.125 448
h45.25l-308.375 -308.375v45.25zM353.625 448h45.25l-160 -160h-45.25zM444.125 448h45.25l-160 -160h-45.25zM512 425.375v-45.25l-160 -160v45.25zM512 334.875v-45.25l-160 -160v45.25zM160 254.375v-45.25l-160 -160v45.25zM512 244.375v-45.25l-263.125 -263.125
h-45.25zM160 163.875v-45.25l-160 -160v45.25zM512 153.844v-45.2812l-172.562 -172.562h-45.2812zM182.625 96h45.25l-160 -160h-45.25zM273.125 96h45.25l-160 -160h-45.25zM512 63.3125v-45.25l-82.0625 -82.0625h-45.25zM512 -27.1875v-36.8125h-36.8125z" />
    <glyph glyph-name="uniF106" unicode="&#xf106;" 
d="M128 448h32v-160c0 -32 8.59668 -43.6133 26.9375 -54.0938c11 -6.28613 25.166 -11.6992 40.7812 -16.75c-15.6484 -4.57812 -31.5059 -9.65039 -46.625 -16.3438c-3.43555 1.66309 -6.77734 3.42188 -10.0312 5.28125
c-23.6592 13.5195 -43.0625 33.9062 -43.0625 81.9062v160zM352 448h32v-160c0 -48 -19.4033 -68.3867 -43.0625 -81.9062s-52.5312 -21.4688 -80.5312 -29.4688s-55.1279 -16.0508 -73.4688 -26.5312s-26.9375 -22.0938 -26.9375 -54.0938v-160h-32v160
c0 48 19.4033 68.3867 43.0625 81.9062s52.5312 21.4688 80.5312 29.4688s55.1279 16.0508 73.4688 26.5312s26.9375 22.0938 26.9375 54.0938v160zM256 432h80v-32h-80v32zM256 352h80v-32h-80v32zM256 272h78.9062c-0.84082 -5.15625 -2.10449 -8.80469 -3.5625 -11.5
c-2.65039 -4.90137 -6.32422 -8.17578 -14.2188 -12.6875c-4.65332 -2.65918 -10.3086 -5.25684 -16.6875 -7.8125h-44.4375v32zM330.906 183.188c3.43555 -1.66309 6.77734 -3.42188 10.0312 -5.28125c23.6592 -13.5195 43.0625 -33.9062 43.0625 -81.9062v-160h-32v160
c0 32 -8.59668 43.6133 -26.9375 54.0938c-11 6.28613 -25.166 11.6992 -40.7812 16.75c15.6484 4.57812 31.5059 9.65039 46.625 16.3438zM211.562 144h44.4375v-32h-78.9062c0.84082 5.15625 2.10449 8.80469 3.5625 11.5
c2.65039 4.90137 6.32422 8.17578 14.2188 12.6875c4.65332 2.65918 10.3086 5.25684 16.6875 7.8125zM176 64h80v-32h-80v32zM176 -16h80v-32h-80v32z" />
    <glyph glyph-name="uniF11E" unicode="&#xf11e;" 
d="M320 448c70.6924 0 128 -57.3076 128 -128s-57.3076 -128 -128 -128s-128 57.3076 -128 128s57.3076 128 128 128zM320 192h64c70.9121 0 128 -57.0879 128 -128v-128h-80v128h-16v-128h-192v128h-16v-128h-80v128c0 70.9121 57.0879 128 128 128h64zM188.688 447.969
c0.46582 0.0117188 0.939453 -0.00683594 1.40625 0c-46.3174 -23.9775 -78.0938 -72.3613 -78.0938 -127.969c0 -46.4443 22.2422 -87.7363 56.5312 -114.094c-7.61523 -1.25293 -15.0225 -3.10547 -22.1875 -5.5c-48.1416 18.3906 -82.3438 64.9893 -82.3438 119.594
c0 69.5879 55.5215 126.217 124.688 127.969zM252.688 447.969c0.46582 0.0117188 0.939453 -0.00683594 1.40625 0c-46.3174 -23.9775 -78.0938 -72.3613 -78.0938 -127.969c0 -46.4443 22.2422 -87.7363 56.5312 -114.094
c-7.61523 -1.25293 -15.0225 -3.10547 -22.1875 -5.5c-48.1416 18.3906 -82.3438 64.9893 -82.3438 119.594c0 69.5879 55.5215 126.217 124.688 127.969zM124.688 191.969c0.529297 0.0136719 1.0625 -0.00683594 1.59375 0
c-46.4639 -23.8525 -78.2812 -72.1602 -78.2812 -127.969v-128h-48v128c0 69.8037 55.3193 126.223 124.688 127.969zM188.688 191.969c0.529297 0.0136719 1.0625 -0.00683594 1.59375 0c-46.4639 -23.8525 -78.2812 -72.1602 -78.2812 -127.969v-128h-48v128
c0 69.8037 55.3193 126.223 124.688 127.969z" />
    <glyph glyph-name="uniF111" unicode="&#xf111;" 
d="M32 416h336v-128h7.3125l-7.3125 -7.3125v-45.25l52.5625 52.5625h43.4375v-1.8125l-96 -96v-45.25l96 96v-45.25l-96 -96v-19.6875h-19.6875l-96 -96h-45.25l96 96h-45.25l-96 -96h-1.8125v43.4375l52.5625 52.5625h-45.25l-7.3125 -7.3125v7.3125h-128v336zM109.25 384
l-45.25 -45.25v-45.25l90.5 90.5h-45.25zM199.75 384l-135.75 -135.75v-45.25l181 181h-45.25zM290.281 384l-112 -112h-2.28125v-2.25l-112 -112v-45.25l112 112v-45.3125l-67.1875 -67.1875h45.25l21.9375 21.9375v-21.9375h23.3125h45.25h45.25h45.25h0.9375v0.9375
v45.25v45.25v45.25v23.3125h-21.9688l21.9688 21.9688v45.25l-67.2188 -67.2188h-45.25l112 112h-45.25zM464 150.438v-45.25l-121.188 -121.188h-45.25zM464 59.9375v-45.25l-30.6875 -30.6875h-45.25zM144 304h336v-336h-336v336zM176 272v-272h272v272h-272z" />
    <glyph glyph-name="uniF10F" unicode="&#xf10f;" 
d="M0 448h36.8125l-36.8125 -36.8125v36.8125zM82.0625 448h45.25l-32 -32h45.25l32 32h45.2812l-32 -32h45.2812l32 32h45.25l-32 -32h45.25l32 32h45.25l-32 -32h1.125v-44.125l76.125 76.125h45.25l-121.375 -121.375v-22.625h22.625l121.375 121.375v-45.25
l-76.125 -76.125h44.125v-1.125l32 32v-45.25l-32 -32v-45.25l32 32v-45.25l-32 -32v-45.2812l32 32v-45.2812l-32 -32v-45.25l32 32v-45.25l-32 -32v-18.0625h-18.0625l-32 -32h-45.25l32 32h-45.25l-32 -32h-45.2812l32 32h-45.2812l-32 -32h-45.25l32 32h-45.25l-32 -32
h-45.25l32 32h-1.125v44.125l-76.125 -76.125h-45.25l121.375 121.375v22.625h-22.625l-121.375 -121.375v45.25l76.125 76.125h-44.125v1.125l-32 -32v45.25l32 32v45.25l-32 -32v45.25l32 32v45.2812l-32 -32v45.2812l32 32v45.25l-32 -32v45.25l32 32v18.0625h18.0625z
M64 384v-272h80v192h192v80h-272zM176 272v-160h160v160h-160zM368 272v-192h-192v-80h272v272h-80zM512 -27.1875v-36.8125h-36.8125z" />
    <glyph glyph-name="uniF129" unicode="&#xf129;" 
d="M192 384c60.3076 0 114.113 -27.8223 149.312 -71.3125c-49.7002 -17.5801 -85.3125 -64.9658 -85.3125 -120.688s35.6123 -103.107 85.3125 -120.688c-35.1992 -43.4902 -89.0049 -71.3125 -149.312 -71.3125c-106.039 0 -192 85.9609 -192 192s85.9609 192 192 192z
M341.312 312.688c13.3535 4.72363 27.7168 7.3125 42.6875 7.3125c70.6924 0 128 -57.3076 128 -128s-57.3076 -128 -128 -128c-14.9707 0 -29.334 2.58887 -42.6875 7.3125c26.6914 32.9775 42.6875 74.957 42.6875 120.688s-15.9961 87.71 -42.6875 120.688z" />
    <glyph glyph-name="uniF114" unicode="&#xf114;" 
d="M192 256h128v-128h-128v128z" />
    <glyph glyph-name="uniF10C" unicode="&#xf10c;" 
d="M128 304h224v-224h-224v224zM160 272v-47.5l47.5312 47.5h-47.5312zM252.781 272l-92.7812 -92.8125v-45.25l138.031 138.062h-45.25zM320 248.688l-136.688 -136.688h45.25l91.4375 91.4375v45.25zM320 158.188l-46.1875 -46.1875h45.25l0.9375 0.9375v45.25z" />
    <glyph glyph-name="uniF100" unicode="&#xf100;" 
d="M154.188 361.719l101.812 -101.844l101.812 101.844l67.9062 -67.9062l-101.844 -101.812l101.844 -101.812l-67.9062 -67.9062l-101.812 101.844l-101.812 -101.844l-67.9062 67.9062l101.844 101.812l-101.844 101.812z" />
    <glyph glyph-name="uniF126" unicode="&#xf126;" 
d="M256 448c141.385 0 256 -114.615 256 -256s-114.615 -256 -256 -256s-256 114.615 -256 256s114.615 256 256 256zM64 224v-64h96v16l96 80l96 -80v-16h96v64h-96v-16l-96 80l-96 -80v16h-96z" />
    <glyph glyph-name="uniF103" unicode="&#xf103;" 
d="M128 448h32v-160c0 -32 8.59668 -43.6133 26.9375 -54.0938c11 -6.28613 25.166 -11.6992 40.7812 -16.75c-15.6484 -4.57812 -31.5059 -9.65039 -46.625 -16.3438c-3.43555 1.66309 -6.77734 3.42188 -10.0312 5.28125
c-23.6592 13.5195 -43.0625 33.9062 -43.0625 81.9062v160zM352 448h32v-160c0 -48 -19.4033 -68.3867 -43.0625 -81.9062s-52.5312 -21.4688 -80.5312 -29.4688s-55.1279 -16.0508 -73.4688 -26.5312s-26.9375 -22.0938 -26.9375 -54.0938v-160h-32v160
c0 48 19.4033 68.3867 43.0625 81.9062s52.5312 21.4688 80.5312 29.4688s55.1279 16.0508 73.4688 26.5312s26.9375 22.0938 26.9375 54.0938v160zM176 432h160v-32h-160v32zM176 352h160v-32h-160v32zM177.094 272h157.812
c-0.84082 -5.15625 -2.10449 -8.80469 -3.5625 -11.5c-2.65039 -4.90137 -6.32422 -8.17578 -14.2188 -12.6875c-4.65332 -2.65918 -10.3086 -5.25684 -16.6875 -7.8125h-88.875c-6.37891 2.55566 -12.0342 5.15332 -16.6875 7.8125
c-7.89453 4.51172 -11.5684 7.78613 -14.2188 12.6875c-1.45801 2.69531 -2.72168 6.34375 -3.5625 11.5zM330.906 183.188c3.43555 -1.66309 6.77734 -3.42188 10.0312 -5.28125c23.6592 -13.5195 43.0625 -33.9062 43.0625 -81.9062v-160h-32v160
c0 32 -8.59668 43.6133 -26.9375 54.0938c-11 6.28613 -25.166 11.6992 -40.7812 16.75c15.6484 4.57812 31.5059 9.65039 46.625 16.3438zM211.562 144h88.875c6.37891 -2.55566 12.0342 -5.15332 16.6875 -7.8125c7.89453 -4.51172 11.5684 -7.78613 14.2188 -12.6875
c1.45801 -2.69531 2.72168 -6.34375 3.5625 -11.5h-157.812c0.84082 5.15625 2.10449 8.80469 3.5625 11.5c2.65039 4.90137 6.32422 8.17578 14.2188 12.6875c4.65332 2.65918 10.3086 5.25684 16.6875 7.8125zM176 64h160v-32h-160v32zM176 -16h160v-32h-160v32z" />
    <glyph glyph-name="uniF11D" unicode="&#xf11d;" 
d="M64 320v96h96v-96h-96zM448 368c0 -26.4961 -21.5039 -48 -48 -48s-48 21.5039 -48 48s21.5039 48 48 48s48 -21.5039 48 -48zM192 384h128v-32h-48v-112h176v-144h-32v112h-144v-112h-32v112h-144v-112h-32v144h176v112h-48v32zM32 -32v96h96v-96h-96zM304 16
c0 -26.4961 -21.5039 -48 -48 -48s-48 21.5039 -48 48s21.5039 48 48 48s48 -21.5039 48 -48zM480 16c0 -26.4961 -21.5039 -48 -48 -48s-48 21.5039 -48 48s21.5039 48 48 48s48 -21.5039 48 -48z" />
    <glyph glyph-name="uniF112" unicode="&#xf112;" 
d="M128 448h256c70.3584 0 128 -57.6416 128 -128v-256c0 -70.3584 -57.6416 -128 -128 -128h-256c-70.3584 0 -128 57.6416 -128 128v256c0 70.3584 57.6416 128 128 128zM128 384c-36.0098 0 -64 -27.9902 -64 -64v-256c0 -36.0098 27.9902 -64 64 -64h256
c36.0098 0 64 27.9902 64 64v256c0 36.0098 -27.9902 64 -64 64h-256zM128 320l128 -104v104l160 -128l-160 -128v104l-128 -104v256z" />
    <glyph glyph-name="uniF119" unicode="&#xf119;" 
d="M256 448c141.385 0 256 -114.615 256 -256s-114.615 -256 -256 -256s-256 114.615 -256 256s114.615 256 256 256zM96 288v-64h144l-32 32l32 32h-144zM304 288l-32 -32l32 -32h112v64h-112zM96 160v-64h144l-32 32l32 32h-144zM304 160l-32 -32l32 -32h112v64h-112z" />
    <glyph glyph-name="uniF12A" unicode="&#xf12a;" 
d="M160 440c36.0264 0 69.2559 -11.9072 96 -32c-38.8535 -29.1914 -64 -75.6602 -64 -128c0 -9.64355 0.865234 -19.0762 2.5 -28.25c18.9355 7.8916 39.7061 12.25 61.5 12.25s42.5645 -4.3584 61.5 -12.25c1.63477 9.17383 2.5 18.6064 2.5 28.25
c0 52.3398 -25.1465 98.8086 -64 128c26.7441 20.0928 59.9736 32 96 32c88.3652 0 160 -71.6348 160 -160c0 -66.5713 -40.6621 -123.646 -98.5 -147.75c-9.65039 54.1445 -46.5254 98.8799 -95.9688 119.5c-7.23926 -40.6211 -29.832 -75.9346 -61.5312 -99.75
c-31.6992 23.8154 -54.292 59.1289 -61.5312 99.75c-49.4434 -20.6201 -86.3184 -65.3555 -95.9688 -119.5c-57.8379 24.1045 -98.5 81.1787 -98.5 147.75c0 88.3652 71.6348 160 160 160zM413.5 132.25c1.63477 -9.17383 2.5 -18.6064 2.5 -28.25
c0 -88.3652 -71.6348 -160 -160 -160s-160 71.6348 -160 160c0 9.63867 0.866211 19.0801 2.5 28.25c18.9355 -7.8916 39.7061 -12.25 61.5 -12.25c36.0264 0 69.2559 11.9072 96 32c26.7402 -20.0938 59.9756 -32 96 -32c21.7939 0 42.5645 4.3584 61.5 12.25z" />
    <glyph glyph-name="uniF123" unicode="&#xf123;" 
d="M256 448c141.385 0 256 -114.615 256 -256s-114.615 -256 -256 -256s-256 114.615 -256 256s114.615 256 256 256zM96 288v-64h192l-32 32l32 32h-192zM352 288l-32 -32l32 -32h64v64h-64zM96 160v-64h96l-32 32l32 32h-96zM256 160l-32 -32l32 -32h160v64h-160z" />
    <glyph glyph-name="uniF107" unicode="&#xf107;" 
d="M64 448h64v-128c0 -39.1113 11.6426 -52.8672 34.4688 -66.5625c6.82324 -4.09375 14.9443 -7.69434 24 -10.9688c-24.2734 -6.34082 -49.3428 -15.1562 -73.4062 -29.5938c-0.587891 -0.352539 -1.16602 -0.732422 -1.75 -1.09375
c-27.8281 24.0156 -47.3125 61.0742 -47.3125 108.219v128zM384 448h64v-128c0 -56.8887 -28.3574 -99.1328 -65.5312 -121.438s-80.1875 -29.9375 -120.188 -37.9375s-76.9863 -16.3672 -99.8125 -30.0625s-34.4688 -27.4512 -34.4688 -66.5625v-128h-64v128
c0 56.8887 28.3574 99.1328 65.5312 121.438s80.1875 29.9375 120.188 37.9375s76.9863 16.3672 99.8125 30.0625s34.4688 27.4512 34.4688 66.5625v128zM256 368v64h96v-64h-96zM256 272v64h96v-16c0 -16.3799 -2.39551 -23.3174 -4.4375 -26.875
s-5.08203 -6.59863 -14.5 -12.25c-4.86035 -2.91602 -12.0371 -5.90234 -20.8438 -8.875h-56.2188zM400.688 172.219c27.8281 -24.0156 47.3125 -61.0742 47.3125 -108.219v-128h-64v128c0 39.1113 -11.6426 52.8672 -34.4688 66.5625
c-6.82324 4.09375 -14.9443 7.69434 -24 10.9688c24.2734 6.34082 49.3428 15.1562 73.4062 29.5938c0.587891 0.352539 1.16602 0.732422 1.75 1.09375zM199.781 112h56.2188v-64h-96v16c0 16.3799 2.39551 23.3174 4.4375 26.875s5.08203 6.59863 14.5 12.25
c4.86035 2.91602 12.0371 5.90234 20.8438 8.875zM160 16h96v-64h-96v64z" />
    <glyph glyph-name="uniF115" unicode="&#xf115;" 
d="M256 448c141.385 0 256 -114.615 256 -256s-114.615 -256 -256 -256s-256 114.615 -256 256s114.615 256 256 256zM224 352v-64h-64v-64h64v-64h64v64h64v64h-64v64h-64zM160 96v-64h192v64h-192z" />
    <glyph glyph-name="uniF101" unicode="&#xf101;" 
d="M256 448c141.385 0 256 -114.615 256 -256s-114.615 -256 -256 -256s-256 114.615 -256 256s114.615 256 256 256zM128 224v-64h256v64h-256z" />
    <glyph glyph-name="uniF10A" unicode="&#xf10a;" 
d="M64 224c17.6729 0 32 -14.3271 32 -32s-14.3271 -32 -32 -32s-32 14.3271 -32 32s14.3271 32 32 32zM256 224c17.6729 0 32 -14.3271 32 -32s-14.3271 -32 -32 -32s-32 14.3271 -32 32s14.3271 32 32 32zM448 224c17.6729 0 32 -14.3271 32 -32s-14.3271 -32 -32 -32
s-32 14.3271 -32 32s14.3271 32 32 32z" />
    <glyph glyph-name="uniF108" unicode="&#xf108;" 
d="M64 448h64v-128c0 -39.1113 11.6426 -52.8672 34.4688 -66.5625c6.82324 -4.09375 14.9443 -7.69434 24 -10.9688c-24.2734 -6.34082 -49.3428 -15.1562 -73.4062 -29.5938c-0.587891 -0.352539 -1.16602 -0.732422 -1.75 -1.09375
c-27.8281 24.0156 -47.3125 61.0742 -47.3125 108.219v128zM384 448h64v-128c0 -56.8887 -28.3574 -99.1328 -65.5312 -121.438s-80.1875 -29.9375 -120.188 -37.9375s-76.9863 -16.3672 -99.8125 -30.0625s-34.4688 -27.4512 -34.4688 -66.5625v-128h-64v128
c0 56.8887 28.3574 99.1328 65.5312 121.438s80.1875 29.9375 120.188 37.9375s76.9863 16.3672 99.8125 30.0625s34.4688 27.4512 34.4688 66.5625v128zM160 432h192v-64h-192v64zM160 336h192v-16c0 -16.3799 -2.39551 -23.3174 -4.4375 -26.875
s-5.08203 -6.59863 -14.5 -12.25c-4.86035 -2.91602 -12.0371 -5.90234 -20.8438 -8.875h-112.438c-8.80664 2.97266 -15.9834 5.95898 -20.8438 8.875c-9.41797 5.65137 -12.458 8.69238 -14.5 12.25s-4.4375 10.4951 -4.4375 26.875v16zM400.688 172.219
c27.8281 -24.0156 47.3125 -61.0742 47.3125 -108.219v-128h-64v128c0 39.1113 -11.6426 52.8672 -34.4688 66.5625c-6.82324 4.09375 -14.9443 7.69434 -24 10.9688c24.2734 6.34082 49.3428 15.1562 73.4062 29.5938c0.587891 0.352539 1.16602 0.732422 1.75 1.09375z
M199.781 112h112.438c8.80664 -2.97266 15.9834 -5.95898 20.8438 -8.875c9.41797 -5.65137 12.458 -8.69238 14.5 -12.25s4.4375 -10.4951 4.4375 -26.875v-16h-192v16c0 16.3799 2.39551 23.3174 4.4375 26.875s5.08203 6.59863 14.5 12.25
c4.86035 2.91602 12.0371 5.90234 20.8438 8.875zM160 16h192v-64h-192v64z" />
    <glyph glyph-name="uniF110" unicode="&#xf110;" 
d="M32 416h336v-112h112v-336h-336v112h-112v336zM109.25 384l-45.25 -45.25v-45.25l90.5 90.5h-45.25zM199.75 384l-135.75 -135.75v-45.25l80 80v21h21l80 80h-45.25zM290.281 384l-80 -80h45.25l80 80h-45.25zM336 339.219l-35.2188 -35.2188h35.2188v35.2188z
M178.281 272l-2.28125 -2.25v-45.25l47.5312 47.5h-45.25zM268.781 272l-92.7812 -92.8125v-45.25l138.031 138.062h-45.25zM368 272v-36.5625l36.5625 36.5625h-36.5625zM448 270.188l-80 -80v-45.25l80 80v45.25zM336 248.688l-136.688 -136.688h45.25l91.4375 91.4375
v45.25zM144 237.75l-80 -80v-45.25l80 80v45.25zM448 179.688l-80 -80v-19.6875h-19.6875l-80 -80h45.25l134.438 134.438v45.25zM336 158.188l-46.1875 -46.1875h45.25l0.9375 0.9375v45.25zM144 147.188l-35.1875 -35.1875h35.1875v35.1875zM448 89.1875
l-89.1875 -89.1875h45.25l43.9375 43.9375v45.25zM176 80v-36.5625l36.5625 36.5625h-36.5625zM257.812 80l-80 -80h45.25l80 80h-45.25z" />
    <glyph glyph-name="uniF105" unicode="&#xf105;" 
d="M64 448h64v-128c0 -39.1113 11.6426 -52.8672 34.4688 -66.5625c6.82324 -4.09375 14.9443 -7.69434 24 -10.9688c-24.2734 -6.34082 -49.3428 -15.1562 -73.4062 -29.5938c-0.587891 -0.352539 -1.16602 -0.732422 -1.75 -1.09375
c-27.8281 24.0156 -47.3125 61.0742 -47.3125 108.219v128zM384 448h64v-128c0 -56.8887 -28.3574 -99.1328 -65.5312 -121.438s-80.1875 -29.9375 -120.188 -37.9375s-76.9863 -16.3672 -99.8125 -30.0625s-34.4688 -27.4512 -34.4688 -66.5625v-128h-64v128
c0 56.8887 28.3574 99.1328 65.5312 121.438s80.1875 29.9375 120.188 37.9375s76.9863 16.3672 99.8125 30.0625s34.4688 27.4512 34.4688 66.5625v128zM400.688 172.219c27.8281 -24.0156 47.3125 -61.0742 47.3125 -108.219v-128h-64v128
c0 39.1113 -11.6426 52.8672 -34.4688 66.5625c-6.82324 4.09375 -14.9443 7.69434 -24 10.9688c24.2734 6.34082 49.3428 15.1562 73.4062 29.5938c0.587891 0.352539 1.16602 0.732422 1.75 1.09375z" />
    <glyph glyph-name="uniF121" unicode="&#xf121;" 
d="M480 448c-48 -112 -32 -160 -192 -208c-13.1934 -14.9082 -16 -32 -16 -48h-32c0 16 0 32 -16 48c-144 -16 -176 32 -176 112c32 -32 208 -16 192 -96c-48 32 -112 32 -176 72c48 -56 112 -40 176 -82c11.2256 -7.91016 14.1318 -15.708 16 -22l16 22
c80 106 128 90 176 170c-80 -80 -112 -64 -176 -160c-16 144 144 176 208 192zM120 176h272c4.43164 0 8 -3.56836 8 -8v-48c0 -4.43164 -3.56836 -8 -8 -8h-272c-4.43164 0 -8 3.56836 -8 8v48c0 4.43164 3.56836 8 8 8zM128 96h256l-64 -160h-128z" />
    <glyph glyph-name="uniF127" unicode="&#xf127;" 
d="M64 448h64v-128c0 -39.1113 11.6426 -52.8672 34.4688 -66.5625c6.82324 -4.09375 14.9443 -7.69434 24 -10.9688c-24.2734 -6.34082 -49.3428 -15.1562 -73.4062 -29.5938c-0.587891 -0.352539 -1.16602 -0.732422 -1.75 -1.09375
c-27.8281 24.0156 -47.3125 61.0742 -47.3125 108.219v128zM384 448h64v-128c0 -56.8887 -28.3574 -99.1328 -65.5312 -121.438s-80.1875 -29.9375 -120.188 -37.9375s-76.9863 -16.3672 -99.8125 -30.0625s-34.4688 -27.4512 -34.4688 -66.5625v-128h-64v128
c0 56.8887 28.3574 99.1328 65.5312 121.438s80.1875 29.9375 120.188 37.9375s76.9863 16.3672 99.8125 30.0625s34.4688 27.4512 34.4688 66.5625v128zM160 384h80l-32 -32l32 -32h-80v64zM288 384h64v-64h-64l-32 32zM400.688 172.219
c27.8281 -24.0156 47.3125 -61.0742 47.3125 -108.219v-128h-64v128c0 39.1113 -11.6426 52.8672 -34.4688 66.5625c-6.82324 4.09375 -14.9443 7.69434 -24 10.9688c24.2734 6.34082 49.3428 15.1562 73.4062 29.5938c0.587891 0.352539 1.16602 0.732422 1.75 1.09375z
M160 64h192v-64h-192v64z" />
    <glyph glyph-name="uniF11B" unicode="&#xf11b;" 
d="M256 448c141.385 0 256 -114.615 256 -256s-114.615 -256 -256 -256s-256 114.615 -256 256s114.615 256 256 256zM324.281 374.281l-49.8125 -86.2812h-178.469v-64h141.531l-36.9688 -64h-104.562v-64h67.625l-31.3438 -54.2812l55.4375 -32l49.8125 86.2812h178.469
v64h-141.531l36.9688 64h104.562v64h-67.625l31.3438 54.2812z" />
    <glyph glyph-name="uniF113" unicode="&#xf113;" 
d="M128 448h256c70.3584 0 128 -57.6416 128 -128v-256c0 -70.3584 -57.6416 -128 -128 -128h-256c-70.3584 0 -128 57.6416 -128 128v256c0 70.3584 57.6416 128 128 128zM128 384c-36.0098 0 -64 -27.9902 -64 -64v-256c0 -36.0098 27.9902 -64 64 -64h256
c36.0098 0 64 27.9902 64 64v256c0 36.0098 -27.9902 64 -64 64h-256zM256 320v-104l128 104v-256l-128 104v-104l-160 128z" />
    <glyph glyph-name="uniF118" unicode="&#xf118;" 
d="M480 443.642c-100.171 -227.289 -66.7812 -324.698 -400.685 -422.108c-20.0234 -14.6162 -40.6709 -44.2539 -50.0859 -81.1748c-7.33398 5.51367 -17.9434 8.0918 -29.2295 7.2832c36.0947 46.4795 44 76.4697 45.9248 86.0684
c166.952 215.112 267.123 182.643 367.294 344.991c-166.951 -162.349 -233.732 -129.879 -367.294 -324.698c-33.3896 292.229 300.514 357.168 434.075 389.639z" />
    <glyph glyph-name="uniF10E" unicode="&#xf10e;" 
d="M32 416h18.0938l-18.0938 -18.0625v18.0625zM95.3438 416h45.25l-108.594 -108.625v45.3125zM185.844 416h45.2812l-199.125 -199.125v45.25zM276.375 416h45.25l-112 -112h45.25l112 112h45.25l-112 -112h45.25l112 112h22.625v-22.625l-112 -112v-45.25l112 112v-45.25
l-112 -112v-45.2812l112 112v-45.25l-112 -112v-20.3438h-20.375l-112 -112h-45.25l112 112h-45.25l-112 -112h-45.25l112 112h-45.25l-112 -112h-22.625v22.625l112 112v45.25l-112 -112v45.25l112 112v45.25l-112 -112v45.25l112 112v20.375h20.375zM176 272v-160h160v160
h-160zM480 167.094v-45.25l-153.812 -153.844h-45.25zM480 76.5625v-45.25l-63.3125 -63.3125h-45.25zM480 -13.9375v-18.0625h-18.0625z" />
    <glyph glyph-name="uniF116" unicode="&#xf116;" 
d="M256 448c141.385 0 256 -114.615 256 -256s-114.615 -256 -256 -256s-256 114.615 -256 256s114.615 256 256 256zM224 320v-96h-96v-64h96v-96h64v96h96v64h-96v96h-64z" />
    <glyph glyph-name="uniF120" unicode="&#xf120;" 
d="M256 448c70.6924 0 128 -57.3076 128 -128s-57.3076 -128 -128 -128s-128 57.3076 -128 128s57.3076 128 128 128zM256 192h64c70.9121 0 128 -57.0879 128 -128v-128h-80v128h-16v-128h-192v128h-16v-128h-80v128c0 70.9121 57.0879 128 128 128h64zM191.438 155.156
v-43.4375c0 -15.9951 6.58984 -28.5703 16.0312 -36.7188c0.198242 0.12207 0.394531 0.255859 0.59375 0.375c8.16406 4.89844 16.6709 7.87988 24.9062 10.0312c-3.07227 1.11035 -5.81055 2.33008 -8.125 3.71875c-7.74414 4.64648 -11.6875 9.32422 -11.6875 22.5938
v43.4375h-21.7188zM300 155.156v-43.4375c0 -13.2695 -3.94336 -17.9473 -11.6875 -22.5938s-20.3037 -7.47363 -33.875 -10.1875s-28.1689 -5.30762 -40.7812 -12.875s-22.2188 -21.8867 -22.2188 -41.1875v-43.4375h21.7188v43.4375
c0 13.2695 3.94336 17.916 11.6875 22.5625s20.2725 7.50488 33.8438 10.2188s28.1689 5.27637 40.7812 12.8438s22.25 21.918 22.25 41.2188v43.4375h-21.7188zM224 149.719v-21.7188h65.125v21.7188h-65.125zM224 117.156v-5.4375
c0 -5.55762 0.806641 -7.91797 1.5 -9.125s1.74219 -2.23926 4.9375 -4.15625c1.64941 -0.989258 4.0752 -1.99121 7.0625 -3h38.1562c2.9873 1.00879 5.41309 2.01074 7.0625 3c3.19531 1.91699 4.21289 2.94922 4.90625 4.15625s1.5 3.56738 1.5 9.125v5.4375h-65.125z
M305.656 61.5625c-0.198242 -0.12207 -0.394531 -0.224609 -0.59375 -0.34375c-8.16406 -4.89844 -16.6709 -7.91113 -24.9062 -10.0625c3.07227 -1.11035 5.8418 -2.33008 8.15625 -3.71875c7.74414 -4.64648 11.6875 -9.29297 11.6875 -22.5625v-43.4375h21.7188v43.4375
c0 15.9951 -6.62109 28.5391 -16.0625 36.6875zM237.5 41.1562c-2.9873 -1.00879 -5.41309 -2.04199 -7.0625 -3.03125c-3.19531 -1.91699 -4.24414 -2.94922 -4.9375 -4.15625s-1.5 -3.53613 -1.5 -9.09375v-5.4375h65.125v5.4375
c0 5.55762 -0.806641 7.88672 -1.5 9.09375s-1.71094 2.23926 -4.90625 4.15625c-1.64941 0.989258 -4.0752 2.02246 -7.0625 3.03125h-38.1562zM224 8.5625v-21.6875h65.125v21.6875h-65.125z" />
    <glyph glyph-name="uniF102" unicode="&#xf102;" 
d="M128 288h256v-192h-256v192zM176 240v-96h160v96h-160z" />
    <glyph glyph-name="uniF11C" unicode="&#xf11c;" 
d="M144 448.5c-0.110352 0 -0.257812 -0.0507812 -0.353516 -0.146484l-144 -144c-0.078125 -0.078125 -0.146484 -0.21875 -0.146484 -0.353516v-224c0 -0.110352 0.0507812 -0.257812 0.146484 -0.353516l144 -144
c0.078125 -0.078125 0.21875 -0.146484 0.353516 -0.146484h224c0.110352 0 0.257812 0.0507812 0.353516 0.146484l144 144c0.078125 0.078125 0.146484 0.21875 0.146484 0.353516v224c0 0.110352 -0.0507812 0.257812 -0.146484 0.353516l-144 144
c-0.078125 0.078125 -0.21875 0.146484 -0.353516 0.146484h-224zM144.207 447.5h223.586l143.707 -143.707v-223.586l-143.707 -143.707h-223.586l-143.707 143.707v223.586zM254.32 382.969c30.4189 0.0283203 61.1953 -5.48828 88.7471 -16.3096
c19.4531 -7.63965 -0.206055 0.09375 -0.0244141 0.0107422c28.1484 -12.7949 56.2031 -40.4541 56.4551 -78.1699h-63.001c-0.151367 9.62305 -4.12305 13.8223 -19.543 20.8311c-35.1465 15.3848 -97.7764 11.542 -125.059 -2.54297
c-18.6953 -9.65234 -25.2881 -29.9902 -16.876 -46.2373c3.9248 -7.58008 11.1035 -14.2363 21.7637 -18.4844c33.29 -13.2627 96.9893 -22.5391 144.982 -42.9922c25.1104 -11.6367 50.6699 -32.6445 57.1191 -64.8906c10.0479 -50.2412 -14.79 -92.6113 -47.0068 -111.405
c-48.6611 -27.415 -124.152 -28.5273 -182.945 -5.4375c-19.4541 7.63965 0.206055 -0.09375 0.0244141 -0.0107422c-28.1484 12.7949 -56.2031 40.4541 -56.4551 78.1699h63.001c0.151367 -9.62305 4.12305 -13.8232 19.543 -20.8311
c35.1465 -15.3857 97.7764 -11.541 125.059 2.54297c18.6953 9.65234 25.2881 29.9902 16.876 46.2373c-3.9248 7.58008 -11.1035 14.2363 -21.7637 18.4844c-33.29 13.2627 -96.9902 22.5391 -144.982 42.9922c-25.1113 11.6367 -50.6699 32.6436 -57.1191 64.8906
c-10.0479 50.2412 14.7891 92.6113 47.0088 111.406c25.8389 14.5566 59.5664 21.7139 94.1963 21.7461zM253.875 383.969c-34.6113 -0.0322266 -68.1992 -7.20312 -94.249 -21.8789c-32.585 -19.0078 -57.627 -61.79 -47.4912 -112.469
c6.53906 -32.6953 32.4023 -53.8887 57.6934 -65.6094c48.1875 -20.5361 111.927 -29.8232 145.018 -43.0078c10.4697 -4.1709 17.4434 -10.6689 21.2471 -18.0146c8.13672 -15.7168 1.81348 -35.4619 -16.4473 -44.8887
c-26.9307 -13.9033 -89.4189 -17.7402 -124.191 -2.51953c-15.5918 7.08691 -18.9541 10.8887 -18.9541 20.4189c0 0.272461 -0.227539 0.5 -0.5 0.5h-64c-0.272461 0 -0.5 -0.227539 -0.5 -0.5c0 -38.4912 28.5488 -66.6279 57.043 -79.5801
c0.0078125 -0.00390625 0.0185547 -0.0078125 0.0244141 -0.0107422c59.042 -23.1865 134.791 -22.1133 183.805 5.5c32.5879 19.0098 57.6289 61.79 47.4932 112.47c-6.53809 32.6953 -32.4023 53.8887 -57.6934 65.6094
c-48.1875 20.5361 -111.927 29.8232 -145.018 43.0078c-10.4697 4.1709 -17.4434 10.6689 -21.2471 18.0146c-8.13672 15.7168 -1.81348 35.4619 16.4473 44.8887c26.9307 13.9033 89.418 17.7402 124.191 2.51953c15.5908 -7.08691 18.9541 -10.8887 18.9541 -20.4189
c0 -0.272461 0.227539 -0.5 0.5 -0.5h64c0.272461 0 0.5 0.227539 0.5 0.5c0 38.4912 -28.5479 66.6279 -57.043 79.5801c-0.0078125 0.00390625 -0.0185547 0.0078125 -0.0244141 0.0107422c-27.6826 10.8721 -59.0195 16.4062 -89.5576 16.3779zM254.32 382.969
c30.4189 0.0283203 61.1953 -5.48828 88.7471 -16.3096c19.4531 -7.63965 -0.206055 0.09375 -0.0244141 0.0107422c28.1484 -12.7949 56.2031 -40.4541 56.4551 -78.1699h-63.001c-0.151367 9.62305 -4.12305 13.8223 -19.543 20.8311
c-35.1465 15.3848 -97.7764 11.542 -125.059 -2.54297c-18.6953 -9.65234 -25.2881 -29.9902 -16.876 -46.2373c3.9248 -7.58008 11.1035 -14.2363 21.7637 -18.4844c33.29 -13.2627 96.9893 -22.5391 144.982 -42.9922c25.1104 -11.6367 50.6699 -32.6445 57.1191 -64.8906
c10.0479 -50.2412 -14.79 -92.6113 -47.0068 -111.405c-48.6611 -27.415 -124.152 -28.5273 -182.945 -5.4375c-19.4541 7.63965 0.206055 -0.09375 0.0244141 -0.0107422c-28.1484 12.7949 -56.2031 40.4541 -56.4551 78.1699h63.001
c0.151367 -9.62305 4.12305 -13.8232 19.543 -20.8311c35.1465 -15.3857 97.7764 -11.541 125.059 2.54297c18.6953 9.65234 25.2881 29.9902 16.876 46.2373c-3.9248 7.58008 -11.1035 14.2363 -21.7637 18.4844c-33.29 13.2627 -96.9902 22.5391 -144.982 42.9922
c-25.1113 11.6367 -50.6699 32.6436 -57.1191 64.8906c-10.0479 50.2412 14.7891 92.6113 47.0088 111.406c25.8389 14.5566 59.5664 21.7139 94.1963 21.7461zM253.875 383.969c-34.6113 -0.0322266 -68.1992 -7.20312 -94.249 -21.8789
c-32.585 -19.0078 -57.627 -61.79 -47.4912 -112.469c6.53906 -32.6953 32.4023 -53.8887 57.6934 -65.6094c48.1875 -20.5361 111.927 -29.8232 145.018 -43.0078c10.4697 -4.1709 17.4434 -10.6689 21.2471 -18.0146c8.13672 -15.7168 1.81348 -35.4619 -16.4473 -44.8887
c-26.9307 -13.9033 -89.4189 -17.7402 -124.191 -2.51953c-15.5918 7.08691 -18.9541 10.8887 -18.9541 20.4189c0 0.272461 -0.227539 0.5 -0.5 0.5h-64c-0.272461 0 -0.5 -0.227539 -0.5 -0.5c0 -38.4912 28.5488 -66.6279 57.043 -79.5801
c0.0078125 -0.00390625 0.0185547 -0.0078125 0.0244141 -0.0107422c59.042 -23.1865 134.791 -22.1133 183.805 5.5c32.5879 19.0098 57.6289 61.79 47.4932 112.47c-6.53809 32.6953 -32.4023 53.8887 -57.6934 65.6094
c-48.1875 20.5361 -111.927 29.8232 -145.018 43.0078c-10.4697 4.1709 -17.4434 10.6689 -21.2471 18.0146c-8.13672 15.7168 -1.81348 35.4619 16.4473 44.8887c26.9307 13.9033 89.418 17.7402 124.191 2.51953c15.5908 -7.08691 18.9541 -10.8887 18.9541 -20.4189
c0 -0.272461 0.227539 -0.5 0.5 -0.5h64c0.272461 0 0.5 0.227539 0.5 0.5c0 38.4912 -28.5479 66.6279 -57.043 79.5801c-0.0078125 0.00390625 -0.0185547 0.0078125 -0.0244141 0.0107422c-27.6826 10.8721 -59.0195 16.4062 -89.5576 16.3779zM144 448h224l144 -144
v-224l-144 -144h-224l-144 144v224zM253.875 383.469c-34.543 -0.0322266 -68.0557 -7.19629 -94 -21.8125c-32.4023 -18.9014 -57.3418 -61.4775 -47.25 -111.938c6.49414 -32.4707 32.2051 -53.5713 57.4062 -65.25c48.0898 -20.4951 111.81 -29.7764 145 -43
s31.9502 -49.8184 4.84375 -63.8125s-89.665 -17.834 -124.625 -2.53125c-15.6152 7.09766 -19.25 11.0977 -19.25 20.875h-64c0 -38.2227 28.3652 -66.2227 56.75 -79.125c58.917 -23.1387 134.538 -22.0449 183.375 5.46875
c32.4023 18.9014 57.3418 61.4775 47.25 111.938c-6.49414 32.4707 -32.2051 53.5713 -57.4062 65.25c-48.0898 20.4951 -111.81 29.7764 -145 43s-31.9502 49.8184 -4.84375 63.8125s89.665 17.834 124.625 2.53125c15.6152 -7.09766 19.25 -11.0977 19.25 -20.875h64
c0 38.2227 -28.3652 66.2227 -56.75 79.125c-27.6172 10.8467 -58.8965 16.3721 -89.375 16.3438z" />
    <glyph glyph-name="uniF109" unicode="&#xf109;" 
d="M416.354 448.354c-0.192383 0.192383 -0.514648 0.192383 -0.707031 0l-320 -320c-0.03125 -0.03125 -0.0703125 -0.0830078 -0.09375 -0.129883l-32 -64c-0.0849609 -0.169922 -0.0634766 -0.419922 0.09375 -0.577148l64 -64
c0.133789 -0.134766 0.378906 -0.193359 0.577148 -0.09375l64 32c0.0390625 0.0195312 0.0927734 0.0566406 0.129883 0.09375l320 320c0.192383 0.192383 0.192383 0.514648 0 0.707031zM416 447.293l95.293 -95.293l-319.589 -319.589l-63.6055 -31.8027
l-63.4902 63.4902l31.8027 63.6055zM48.3535 32.3535c-0.03125 0.03125 -0.0820312 0.0703125 -0.129883 0.09375c-0.243164 0.12207 -0.548828 0.0195312 -0.670898 -0.223633l-48 -96c-0.0683594 -0.137695 -0.0703125 -0.307617 0 -0.447266
c0.12207 -0.243164 0.427734 -0.345703 0.670898 -0.223633l96 48c0.0400391 0.0195312 0.0927734 0.0566406 0.129883 0.09375c0.192383 0.192383 0.192383 0.514648 0 0.707031zM48.1367 31.1562l47.0195 -47.0195l-94.0381 -47.0186zM48.3535 32.3535
c-0.03125 0.03125 -0.0820312 0.0703125 -0.129883 0.09375c-0.243164 0.12207 -0.548828 0.0195312 -0.670898 -0.223633l-48 -96c-0.0683594 -0.137695 -0.0703125 -0.307617 0 -0.447266c0.12207 -0.243164 0.427734 -0.345703 0.670898 -0.223633l96 48
c0.0400391 0.0195312 0.0927734 0.0566406 0.129883 0.09375c0.192383 0.192383 0.192383 0.514648 0 0.707031zM48.1367 31.1562l47.0195 -47.0195l-94.0381 -47.0186zM416 448l96 -96l-320 -320l-64 -32l-64 64l32 64zM48 32l48 -48l-96 -48z" />
    <glyph glyph-name="uniF104" unicode="&#xf104;" 
d="M128 448h32v-160c0 -32 8.59668 -43.6133 26.9375 -54.0938c11 -6.28613 25.166 -11.6992 40.7812 -16.75c-15.6484 -4.57812 -31.5059 -9.65039 -46.625 -16.3438c-3.43555 1.66309 -6.77734 3.42188 -10.0312 5.28125
c-23.6592 13.5195 -43.0625 33.9062 -43.0625 81.9062v160zM352 448h32v-160c0 -48 -19.4033 -68.3867 -43.0625 -81.9062s-52.5312 -21.4688 -80.5312 -29.4688s-55.1279 -16.0508 -73.4688 -26.5312s-26.9375 -22.0938 -26.9375 -54.0938v-160h-32v160
c0 48 19.4033 68.3867 43.0625 81.9062s52.5312 21.4688 80.5312 29.4688s55.1279 16.0508 73.4688 26.5312s26.9375 22.0938 26.9375 54.0938v160zM330.906 183.188c3.43555 -1.66309 6.77734 -3.42188 10.0312 -5.28125
c23.6592 -13.5195 43.0625 -33.9062 43.0625 -81.9062v-160h-32v160c0 32 -8.59668 43.6133 -26.9375 54.0938c-11 6.28613 -25.166 11.6992 -40.7812 16.75c15.6484 4.57812 31.5059 9.65039 46.625 16.3438z" />
    <glyph glyph-name="uniF10B" unicode="&#xf10b;" 
d="M32 416h336v-112h112v-336h-336v112h-112v336zM64 384v-45.25v-45.25v-45.25v-45.25v-45.25v-45.25v-0.5h44.8125h35.1875v35.1875v45.3125v45.2188v45.2812v21h192v35.2188v44.7812h-0.46875h-45.25h-45.2812h-45.25h-45.25h-45.25h-45.25zM178.281 272
l-2.28125 -2.28125v-45.2188l47.5312 47.5h-45.25zM268.781 272l-92.7812 -92.8125v-45.25l138.031 138.062h-45.25zM368 272v-36.5625v-45.25v-45.25v-45.25v-19.6875h-19.6875h-45.25h-45.25h-45.25h-36.5625v-80h272v89.1875v45.25v45.25v45.25v45.25v1.8125h-80z
M336 248.688l-136.688 -136.688h45.25l91.4375 91.4375v45.25zM336 158.188l-46.1875 -46.1875h45.25l0.9375 0.9375v45.25z" />
    <glyph glyph-name="uniF11F" unicode="&#xf11f;" 
d="M256 448c70.6924 0 128 -57.3076 128 -128s-57.3076 -128 -128 -128s-128 57.3076 -128 128s57.3076 128 128 128zM256 192h64c70.9121 0 128 -57.0879 128 -128v-128h-80v128h-16v-128h-192v128h-16v-128h-80v128c0 70.9121 57.0879 128 128 128h64z" />
    <glyph glyph-name="uniF125" unicode="&#xf125;" 
d="M256 448c141.385 0 256 -114.615 256 -256s-114.615 -256 -256 -256s-256 114.615 -256 256s114.615 256 256 256zM96 288v-64h320v64h-320zM96 160v-64h320v64h-320z" />
    <glyph glyph-name="uniF122" unicode="&#xf122;" 
d="M480.46 447.803c0.0341797 0.0800781 0.0517578 0.210938 0.0253906 0.318359c-0.0664062 0.264648 -0.342773 0.429688 -0.606445 0.364258c-63.8643 -15.9648 -224.434 -48.0303 -208.376 -192.541c0.0136719 -0.124023 0.09375 -0.276367 0.219727 -0.360352
c0.226562 -0.151367 0.541992 -0.0878906 0.693359 0.138672c63.1348 94.7061 94.9795 80.1436 173.002 157.01c-47.1348 -75.6943 -94.9033 -61.8721 -173.819 -166.434l-15.4111 -21.1914c-1.88965 6.09082 -5.10938 13.6973 -15.9062 21.3057
c-63.3047 41.543 -125.957 26.4951 -173.707 79.415c62.9053 -38.1689 126.094 -38.875 173.148 -70.2441c0.0351562 -0.0234375 0.116211 -0.0615234 0.179688 -0.0742188c0.266602 -0.0537109 0.53418 0.125 0.587891 0.392578
c8.61816 43.0889 -37.7939 58.5508 -87.2334 68.4277c-43.6914 8.72949 -90.1592 13.2803 -104.903 28.0234c-0.078125 0.078125 -0.21875 0.146484 -0.353516 0.146484c-0.272461 0 -0.5 -0.227539 -0.5 -0.5c0 -69.8877 24.543 -115.605 126.266 -115.565
c15.0508 0.00585938 31.1445 0.956055 50.0508 3.04199c15.6377 -15.832 15.6836 -31.4785 15.6836 -47.4766c0 -0.272461 0.227539 -0.5 0.5 -0.5h32c0.272461 0 0.5 0.227539 0.5 0.5c0 15.9092 2.74414 32.7451 15.7803 47.5625
c159.906 48.0225 144.232 96.3623 192.18 208.24zM479.145 447.271c-47.5986 -111.575 -31.918 -158.98 -191.288 -206.793c-0.0898438 -0.0263672 -0.183594 -0.09375 -0.230469 -0.147461c-13.1787 -14.8906 -16.0537 -31.9873 -16.125 -47.8311h-31.001
c-0.00292969 15.9854 -0.186523 31.8945 -16.1465 47.8535c-0.106445 0.106445 -0.260742 0.160156 -0.40918 0.143555c-17.9072 -1.99023 -34.0771 -2.98828 -48.6621 -3.05859c-101.965 -0.492188 -126.478 44.2158 -126.78 113.394
c14.9844 -13.5176 55.002 -18.1982 94.75 -25.5947c53.1172 -9.88281 104.605 -24.3311 96.3994 -68.4062c-48.1182 31.707 -111.794 31.8477 -175.387 71.5928c-0.230469 0.144531 -0.543945 0.0722656 -0.688477 -0.15918
c-0.125 -0.199219 -0.0644531 -0.462891 0.0439453 -0.589844c48.1826 -56.2119 112.359 -40.2598 176.099 -82.0879c11.1094 -7.8291 13.9473 -15.4814 15.8018 -21.7295c0.078125 -0.260742 0.360352 -0.414062 0.62207 -0.336914
c0.108398 0.0322266 0.222656 0.130859 0.261719 0.185547l15.9971 21.9951c79.8809 105.84 127.892 89.8164 176.027 170.042c0.139648 0.233398 0.0625 0.545898 -0.171875 0.685547c-0.196289 0.118164 -0.455078 0.0800781 -0.610352 -0.0751953
c-79.5215 -79.5215 -111.847 -64.2803 -175.297 -158.931c-14.7041 141.671 142.456 173.84 206.795 189.849zM480 448c-48 -112 -32 -160 -192 -208c-13.1934 -14.9082 -16 -32 -16 -48h-32c0 16 0 32 -16 48c-144 -16 -176 32 -176 112c32 -32 208 -16 192 -96
c-48 32 -112 32 -176 72c48 -56 112 -40 176 -82c11.2256 -7.91016 14.1318 -15.708 16 -22l16 22c80 106 128 90 176 170c-80 -80 -112 -64 -176 -160c-16 144 144 176 208 192zM158.766 190.719h32v-64c0 -19.5557 5.82129 -26.4336 17.2344 -33.2812
c3.41113 -2.04688 7.47266 -3.84766 12 -5.48438c-12.1367 -3.16992 -24.6719 -7.57812 -36.7031 -14.7969c-0.293945 -0.176758 -0.583008 -0.366211 -0.875 -0.546875c-13.9141 12.0078 -23.6562 30.5371 -23.6562 54.1094v64zM318.766 190.719h32v-64
c0 -28.4443 -14.1787 -49.5664 -32.7656 -60.7188s-40.0938 -14.9688 -60.0938 -18.9688s-38.4932 -8.18359 -49.9062 -15.0312s-17.2344 -13.7256 -17.2344 -33.2812v-64h-32v64c0 28.4443 14.1787 49.5664 32.7656 60.7188s40.0938 14.9688 60.0938 18.9688
s38.4932 8.18359 49.9062 15.0312s17.2344 13.7256 17.2344 33.2812v64zM206.766 182.719h96v-32h-96v32zM206.766 134.719h96v-8c0 -8.19043 -1.19727 -11.6592 -2.21875 -13.4375s-2.54102 -3.2998 -7.25 -6.125c-2.43066 -1.45801 -6.01855 -2.95117 -10.4219 -4.4375
h-56.2188c-4.40332 1.48633 -7.99121 2.97949 -10.4219 4.4375c-4.70898 2.8252 -6.22852 4.34668 -7.25 6.125s-2.21875 5.24707 -2.21875 13.4375v8zM327.109 52.8281c13.9141 -12.0078 23.6562 -30.5371 23.6562 -54.1094v-64h-32v64
c0 19.5557 -5.82129 26.4336 -17.2344 33.2812c-3.41113 2.04688 -7.47266 3.84766 -12 5.48438c12.1367 3.1709 24.6719 7.57812 36.7031 14.7969c0.293945 0.176758 0.583008 0.366211 0.875 0.546875zM226.656 22.7188h56.2188
c4.40332 -1.48633 7.99121 -2.97949 10.4219 -4.4375c4.70898 -2.8252 6.22852 -4.34668 7.25 -6.125s2.21875 -5.24707 2.21875 -13.4375v-8h-96v8c0 8.19043 1.19727 11.6592 2.21875 13.4375s2.54102 3.2998 7.25 6.125c2.43066 1.45801 6.01855 2.95117 10.4219 4.4375z
M206.766 -25.2812h96v-32h-96v32z" />
    <glyph glyph-name="uniF128" unicode="&#xf128;" 
d="M160 352c36.0264 0 69.2559 -11.9072 96 -32c-38.8535 -29.1914 -64 -75.6602 -64 -128s25.1465 -98.8086 64 -128c-26.7441 -20.0928 -59.9736 -32 -96 -32c-88.3652 0 -160 71.6348 -160 160s71.6348 160 160 160zM256 320c26.7441 20.0928 59.9736 32 96 32
c88.3652 0 160 -71.6348 160 -160s-71.6348 -160 -160 -160c-36.0264 0 -69.2559 11.9072 -96 32c38.8535 29.1914 64 75.6602 64 128s-25.1465 98.8086 -64 128z" />
    <glyph glyph-name="uniF117" unicode="&#xf117;" 
d="M0 448h32v-480h480v-32h-512v512zM48 432h144v-48h96v-32h64v-96h64v-32h80v-32h-112v32h-64v96h-64v32h-96v48h-112v32zM64 432h32v-144h80v-32h112v-64h32v-48h128v-32h48v-32h-80v32h-128v48h-32v64h-112v32h-80v176zM112 432h32v-96h80v-32h240v-16h32v-32h-64v16
h-240v32h-80v128z" />
  </font>
</defs>
</svg>
