<svg width="24" height="24" viewBox="0 0 24 24" xmlns="http://www.w3.org/2000/svg">
    <g fill="navy" fill-rule="nonzero">
        <path d="M9.576 2H3.894A1.894 1.894 0 0 0 2 3.894v5.682c0 1.046.848 1.894 1.894 1.894h5.682a1.894 1.894 0 0 0 1.894-1.894V3.894A1.894 1.894 0 0 0 9.576 2zM20.546 2c1.046 0 1.894.848 1.894 1.894v5.682a1.894 1.894 0 0 1-1.894 1.894h-5.682a1.894 1.894 0 0 1-1.894-1.894V3.894c0-1.046.848-1.894 1.894-1.894zm-.758 1.263h-4.166c-.767 0-1.39.622-1.39 1.389v4.166c0 .767.623 1.39 1.39 1.39h4.166c.767 0 1.39-.623 1.39-1.39V4.652c0-.767-.623-1.39-1.39-1.39zM20.546 12.97h-5.682a1.894 1.894 0 0 0-1.894 1.894v5.682c0 1.046.848 1.894 1.894 1.894h5.682a1.894 1.894 0 0 0 1.894-1.894v-5.682a1.894 1.894 0 0 0-1.894-1.894zM9.576 12.97c1.046 0 1.894.848 1.894 1.894v5.682a1.894 1.894 0 0 1-1.894 1.894H3.894A1.894 1.894 0 0 1 2 20.546v-5.682c0-1.046.848-1.894 1.894-1.894zm-.758 1.263H4.652c-.767 0-1.39.622-1.39 1.389v4.166c0 .767.623 1.39 1.39 1.39h4.166c.767 0 1.39-.623 1.39-1.39v-4.166c0-.767-.623-1.39-1.39-1.39z"/>
    </g>
</svg>
