<svg width="24" height="24" viewBox="0 0 24 24" xmlns="http://www.w3.org/2000/svg">
    <g fill="none" fill-rule="evenodd">
        <path fill="none" d="M0 0h24v24H0z"/>
        <path d="M20 1a3 3 0 0 1 3 3v4a3 3 0 0 1-3 3H4a3 3 0 0 1-3-3V4a3 3 0 0 1 3-3zm0 2H4a1 1 0 0 0-1 1v4a1 1 0 0 0 1 1h16a1 1 0 0 0 1-1V4a1 1 0 0 0-1-1zM6.01 5a1 1 0 0 1 .117 1.993L6 7a1 1 0 0 1-.117-1.993L6.01 5zM20 13a3 3 0 0 1 3 3v4a3 3 0 0 1-3 3H4a3 3 0 0 1-3-3v-4a3 3 0 0 1 3-3zm0 2H4a1 1 0 0 0-1 1v4a1 1 0 0 0 1 1h16a1 1 0 0 0 1-1v-4a1 1 0 0 0-1-1zM6.01 17a1 1 0 0 1 .117 1.993L6 19a1 1 0 0 1-.117-1.993L6.01 17z" fill="navy" fill-rule="nonzero"/>
    </g>
</svg>
