<svg width="24" height="29" viewBox="0 0 24 29" xmlns="http://www.w3.org/2000/svg">
    <g fill-rule="nonzero" fill="none">
        <g fill="#4E4E4E">
            <path d="M.981 14.702c0 .876-.07 1.161-.25 1.372-.2.18-.461.28-.731.28l.07.5c.419.006.825-.142 1.142-.415a2.002 2.002 0 0 0 .44-1.502v-3.314h-.67v3.079zM5.984 14.307c0 .376 0 .71.03 1.001h-.596l-.04-.595a1.387 1.387 0 0 1-1.216.68c-.58 0-1.272-.315-1.272-1.602v-2.137h.671v2.002c0 .696.215 1.162.821 1.162a.936.936 0 0 0 .946-.947V11.63H6v2.658l-.015.02zM7.256 12.845c0-.466 0-.846-.03-1.192h.6l.03.626a1.452 1.452 0 0 1 1.312-.71c.891 0 1.562.745 1.562 1.856 0 1.312-.806 1.963-1.677 1.963a1.297 1.297 0 0 1-1.136-.576v2.003h-.661v-3.97zm.66.976c.002.09.012.181.03.27a1.031 1.031 0 0 0 1.002.776c.706 0 1.121-.575 1.121-1.411 0-.731-.39-1.357-1.096-1.357a1.151 1.151 0 0 0-1.056 1.096v.626zM11.925 11.65l.806 2.158c.085.24.176.53.236.746.07-.22.145-.501.235-.761l.73-2.143h.707l-1.001 2.603c-.501 1.252-.806 1.898-1.267 2.288-.232.212-.515.36-.821.43l-.165-.56c.214-.07.413-.18.585-.325.245-.2.438-.453.566-.741a.5.5 0 0 0 .055-.16.576.576 0 0 0-.045-.176l-1.362-3.37h.731l.01.01zM16.42 10.6v1.051h.96v.5h-.96v1.973c0 .45.13.711.5.711.132.002.263-.013.39-.045l.03.5a1.652 1.652 0 0 1-.595.09.931.931 0 0 1-.726-.28 1.347 1.347 0 0 1-.26-.95v-2.003h-.57v-.501h.58v-.891l.65-.155zM18.617 13.596a1.177 1.177 0 0 0 1.266 1.267c.344.007.685-.057 1.002-.19l.115.5c-.389.16-.807.237-1.227.225a1.702 1.702 0 0 1-1.812-1.842c0-1.101.656-1.972 1.727-1.972 1.202 0 1.502 1.051 1.502 1.722.006.103.006.207 0 .31h-2.588l.015-.02zm1.962-.5a.946.946 0 0 0-.931-1.082 1.106 1.106 0 0 0-1.026 1.082h1.957zM22.208 12.788c0-.43 0-.8-.03-1.141h.6v.716h.03a1.106 1.106 0 0 1 1.002-.801.73.73 0 0 1 .19 0v.626a1 1 0 0 0-.23 0 .936.936 0 0 0-.896.85 1.852 1.852 0 0 0-.03.311v1.947h-.661v-2.503l.025-.005z"/>
        </g>
        <path d="M21.914 1.595A1.697 1.697 0 1 1 20.147.003a1.677 1.677 0 0 1 1.767 1.592z" fill="#767677"/>
        <path d="M12.015 21.2c-4.506 0-8.466-1.616-10.514-4.004a11.21 11.21 0 0 0 21.027 0C20.485 19.584 16.54 21.2 12.015 21.2zM12.015 5.672c4.505 0 8.465 1.617 10.513 4.005a11.21 11.21 0 0 0-21.027 0C3.55 7.284 7.49 5.672 12.015 5.672z" fill="#F37726"/>
        <path d="M5.812 25.848a2.138 2.138 0 1 1-2.228-2.003 2.118 2.118 0 0 1 2.228 2.003z" fill="#9E9E9E"/>
        <path d="M2.013 5.128A1.232 1.232 0 1 1 3.21 3.846a1.247 1.247 0 0 1-1.197 1.282z" fill="#616262"/>
    </g>
</svg>
