<svg width="24" height="24" viewBox="0 0 24 24" xmlns="http://www.w3.org/2000/svg">
    <g fill="none" fill-rule="evenodd">
        <path d="M0 0h24v24H0z"/>
        <path d="M11.906 12c.731 0 1.332.458 1.4 1.043l.007.11v7.693c0 .637-.63 1.154-1.407 1.154-.73 0-1.331-.458-1.4-1.043l-.006-.11v-7.693c0-.637.63-1.154 1.406-1.154zm5.5-4c.731 0 1.332.438 1.4.999l.006.106v11.79c0 .61-.63 1.105-1.406 1.105-.73 0-1.331-.438-1.4-.999L16 20.895V9.105C16 8.495 16.63 8 17.406 8zm-11 8c.731 0 1.332.51 1.4 1.162l.006.124v3.428c0 .71-.63 1.286-1.406 1.286-.73 0-1.331-.51-1.4-1.162L5 20.714v-3.428C5 16.576 5.63 16 6.406 16z" fill="navy" fill-rule="nonzero"/>
        <g stroke="navy" stroke-linecap="round" stroke-linejoin="round" stroke-width="2">
            <path d="m10 6-5.667 5.333M18 3l-3.479 3.274-2.188 2.06M12 8l-2-2"/>
        </g>
    </g>
</svg>
