<svg width="24" height="24" xmlns="http://www.w3.org/2000/svg">
    <g fill="none" fill-rule="evenodd">
        <path d="M0 0h24v24H0z"/>
        <path d="M12 1a2.75 2.75 0 0 1 2.75 2.75v.079a.6.6 0 0 0 .37.549.593.593 0 0 0 .65-.112l.187-.179a2.75 2.75 0 0 1 3.759 4.015l-.048.047a.596.596 0 0 0-.12.658.917.917 0 0 1 .044.119l.01.054.042.057c.092.11.222.184.364.206l.086.007h.156a2.75 2.75 0 1 1 0 5.5h-.079a.6.6 0 0 0-.549.37.593.593 0 0 0 .112.65l.179.187a2.75 2.75 0 0 1-4.015 3.759l-.047-.048a.6.6 0 0 0-.667-.115.595.595 0 0 0-.36.541v.156a2.75 2.75 0 1 1-5.5 0v-.061c-.006-.245-.16-.46-.444-.567a.593.593 0 0 0-.65.112l-.187.179a2.75 2.75 0 0 1-3.759-4.015l.048-.047a.6.6 0 0 0 .115-.667.595.595 0 0 0-.541-.36H3.75a2.75 2.75 0 1 1 0-5.5h.061c.245-.006.46-.16.567-.444a.593.593 0 0 0-.112-.65l-.179-.187a2.75 2.75 0 0 1 4.015-3.759l.047.048c.174.17.435.218.658.12a.917.917 0 0 1 .119-.044l.054-.012.057-.04a.595.595 0 0 0 .206-.364l.007-.086V3.75A2.75 2.75 0 0 1 12 1zm0 1.833a.917.917 0 0 0-.917.917v.16a2.43 2.43 0 0 1-1.472 2.223.917.917 0 0 1-.361.074l-.03.039a2.433 2.433 0 0 1-2.23-.492l-.13-.118-.055-.056a.917.917 0 1 0-1.298 1.298l.062.063c.695.71.887 1.77.508 2.625l-.066.162a2.438 2.438 0 0 1-2.179 1.429H3.75a.917.917 0 1 0 0 1.833h.16a2.426 2.426 0 0 1 2.219 1.463c.4.909.208 1.97-.493 2.687l-.056.055a.917.917 0 1 0 1.298 1.298l.063-.062c.71-.695 1.77-.887 2.625-.508l.162.066a2.438 2.438 0 0 1 1.429 2.178v.083a.917.917 0 1 0 1.833 0v-.16a2.426 2.426 0 0 1 1.463-2.219 2.432 2.432 0 0 1 2.687.493l.055.056a.917.917 0 1 0 1.298-1.298l-.062-.063a2.426 2.426 0 0 1-.49-2.67 2.43 2.43 0 0 1 2.227-1.472h.082a.917.917 0 0 0 0-1.834h-.16a2.43 2.43 0 0 1-2.223-1.472.917.917 0 0 1-.074-.361l-.039-.03a2.433 2.433 0 0 1 .492-2.23l.118-.13.056-.055a.917.917 0 1 0-1.298-1.298l-.063.062a2.426 2.426 0 0 1-2.67.49 2.43 2.43 0 0 1-1.472-2.227V3.75A.917.917 0 0 0 12 2.833zm0 5.5a3.667 3.667 0 1 1 0 7.334 3.667 3.667 0 0 1 0-7.334zm0 1.834a1.833 1.833 0 1 0 0 3.666 1.833 1.833 0 0 0 0-3.666z" fill="navy" fill-rule="nonzero"/>
    </g>
</svg>
