<svg width="24" height="24" viewBox="0 0 24 24" xmlns="http://www.w3.org/2000/svg">
    <g fill="none" fill-rule="evenodd">
        <rect width="22" height="15.4" rx="2" transform="translate(1 3)" stroke="navy" stroke-linecap="round" stroke-linejoin="round" stroke-width="2"/>
        <g fill="navy" fill-rule="nonzero">
            <path d="M24 21c0 .552-.425 1-.948 1H.948C.424 22 0 21.552 0 21"/>
            <path d="M22.633 23H1.367C.613 23 0 22.103 0 21h.91c0 .369.205.669.457.669h21.266c.252 0 .457-.3.457-.669H24c0 1.103-.614 2-1.367 2z"/>
        </g>
        <path d="M20 18.7H4v-16h16z"/>
        <path d="M8.015 8.215a.828.828 0 0 1 1.128.087.735.735 0 0 1-.019 1.007l-.072.067-1.67 1.35 1.657 1.288a.737.737 0 0 1 .173.995l-.059.077a.828.828 0 0 1-1.044.165l-.081-.056-2.4-1.865a.738.738 0 0 1-.084-1.106l.071-.065 2.4-1.944zm7.97 0a.828.828 0 0 0-1.128.087.735.735 0 0 0 .019 1.007l.072.067 1.67 1.35-1.657 1.288a.737.737 0 0 0-.173.995l.059.077c.258.301.707.366 1.044.165l.081-.056 2.4-1.865a.738.738 0 0 0 .084-1.106l-.071-.065-2.4-1.944zm-3.27-1.096a.667.667 0 0 1 1.262.422l-.025.073-2.666 6.667a.667.667 0 0 1-1.263-.421l.025-.074 2.667-6.667z" fill="navy"/>
    </g>
</svg>
