<svg width="24" height="24" viewBox="0 0 24 24" xmlns="http://www.w3.org/2000/svg">
    <path d="m12.502 1.135.112.076 9 7a1 1 0 0 1 .377.658L22 9l.002 3.103A7.018 7.018 0 0 0 20 10.674L20 9.489l-8-6.223-8 6.222V20a1 1 0 0 0 .77.974l.113.02L5 21l6.256.001a7.037 7.037 0 0 0 2.138 2L5 23a3 3 0 0 1-2.995-2.824L2 20V9a1 1 0 0 1 .288-.702l.098-.087 9-7a1 1 0 0 1 1.116-.076zM17 11.375c.847 0 1.534.687 1.534 1.534v.039c0 .05.03.094.082.117.047.02.101.01.133-.02l.027-.028a1.534 1.534 0 1 1 2.17 2.17l-.022.023a.125.125 0 0 0-.025.138.625.625 0 0 1 .03.081.12.12 0 0 0 .085.037h.077a1.534 1.534 0 0 1 0 3.068h-.039c-.05 0-.094.03-.117.082a.123.123 0 0 0 .02.133l.028.027a1.534 1.534 0 1 1-2.17 2.17l-.023-.022a.128.128 0 0 0-.144-.022.124.124 0 0 0-.076.112v.077a1.534 1.534 0 1 1-3.068 0v-.026c0-.052-.033-.097-.118-.13a.123.123 0 0 0-.133.02l-.027.028a1.534 1.534 0 1 1-2.17-2.17l.022-.023a.128.128 0 0 0 .022-.144.124.124 0 0 0-.112-.076h-.077a1.534 1.534 0 1 1 0-3.068h.026c.052 0 .097-.033.13-.118a.123.123 0 0 0-.02-.133l-.028-.027a1.534 1.534 0 1 1 2.17-2.17l.023.022a.125.125 0 0 0 .138.025.625.625 0 0 1 .081-.03l.027-.039.01-.046v-.077c0-.847.687-1.534 1.534-1.534zm0 1.25a.284.284 0 0 0-.284.284v.08a1.375 1.375 0 0 1-.833 1.258l-.08.028-.067.014-.162.044a1.378 1.378 0 0 1-1.138-.275l-.105-.093-.028-.028a.284.284 0 1 0-.402.403l.032.032c.393.402.502 1.002.29 1.48a1.38 1.38 0 0 1-1.273.9h-.04a.284.284 0 0 0 0 .568h.079c.548.003 1.042.33 1.256.828a1.377 1.377 0 0 1-.28 1.521l-.028.028a.284.284 0 1 0 .403.402l.032-.032c.402-.393 1.002-.502 1.48-.29.53.195.887.694.9 1.273v.04a.284.284 0 0 0 .568 0v-.079c.003-.548.33-1.042.828-1.256a1.377 1.377 0 0 1 1.521.28l.028.028a.284.284 0 1 0 .402-.403l-.032-.032a1.373 1.373 0 0 1-.278-1.51c.216-.504.71-.832 1.261-.834h.04a.284.284 0 1 0 0-.568h-.079a1.375 1.375 0 0 1-1.258-.833l-.028-.08-.015-.067-.043-.162a1.378 1.378 0 0 1 .275-1.138l.093-.105.028-.028a.284.284 0 1 0-.403-.402l-.032.032a1.373 1.373 0 0 1-1.51.278 1.376 1.376 0 0 1-.834-1.261v-.04a.284.284 0 0 0-.284-.285zm0 2.386a1.989 1.989 0 1 1 0 3.978 1.989 1.989 0 0 1 0-3.978zm0 1.25a.739.739 0 1 0 0 1.478.739.739 0 0 0 0-1.478z" fill="navy" fill-rule="nonzero"/>
</svg>
