<svg width="24" height="24" viewBox="0 0 24 24" xmlns="http://www.w3.org/2000/svg">
    <g fill="none" fill-rule="evenodd">
        <path d="M11.174 16H7a3 3 0 0 0-2.995 2.824L4 19.001v2a1 1 0 0 1-1.993.116L2 21.001v-2a5 5 0 0 1 4.783-4.996L7 14.001 12.023 14a6.464 6.464 0 0 0-.849 2zM11 2a5 5 0 1 0 0 10 5 5 0 0 0 0-10zm0 2a3 3 0 1 1 0 6 3 3 0 0 1 0-6z" fill="navy" fill-rule="nonzero"/>
        <g transform="translate(13 12)" stroke="navy" stroke-linecap="round" stroke-linejoin="round" stroke-width="1.25">
            <circle cx="5" cy="5" r="1.364"/>
            <path d="M8.364 6.364a.75.75 0 0 0 .15.827l.027.027a.91.91 0 1 1-1.286 1.287l-.028-.028a.75.75 0 0 0-.827-.15.75.75 0 0 0-.455.687v.077a.91.91 0 0 1-1.818 0V9.05a.75.75 0 0 0-.49-.686.75.75 0 0 0-.828.15l-.027.027a.91.91 0 1 1-1.287-1.286l.028-.028a.75.75 0 0 0 .15-.827.75.75 0 0 0-.687-.455H.91a.91.91 0 0 1 0-1.818H.95a.75.75 0 0 0 .686-.49.75.75 0 0 0-.15-.828l-.027-.027a.91.91 0 1 1 1.286-1.287l.028.028a.75.75 0 0 0 .827.15h.036a.75.75 0 0 0 .455-.687V.91a.91.91 0 1 1 1.818 0V.95a.75.75 0 0 0 .455.686.75.75 0 0 0 .827-.15l.027-.027a.91.91 0 1 1 1.287 1.286l-.028.028a.75.75 0 0 0-.15.827v.036a.75.75 0 0 0 .687.455h.077a.91.91 0 1 1 0 1.818H9.05a.75.75 0 0 0-.686.455z"/>
        </g>
    </g>
</svg>
