<svg xmlns="http://www.w3.org/2000/svg" width="229" height="28" viewBox="0 0 229 28"><path fill="#FF5E59" d="M7.10542736e-15 26.28 9.108 26.28C18.036 26.28 21.204 21.06 21.204 13.896 21.204 5.256 16.452 1.476 9.108 1.476L7.10542736e-15 1.476 7.10542736e-15 2.736C2.412 2.808 2.88 3.42 2.88 5.472L2.88 22.284C2.88 24.336 2.412 24.948 7.10542736e-15 25.02L7.10542736e-15 26.28ZM6.408 24.444 6.408 3.168 9.54 3.168C14.724 3.168 17.46 6.048 17.46 14.328 17.46 22.392 14.832 24.444 9.468 24.444L6.408 24.444ZM37.908 21.564C37.908 18.288 38.052 15.192 38.052 14.112 38.052 9.9 35.82 8.064 31.788 8.064 29.34 8.064 26.568 9.072 25.056 9.9L25.056 13.104 27.324 13.104C27.612 11.448 28.476 9.864 31.5 9.864 34.056 9.864 34.776 11.232 34.776 14.328L34.776 15.912C34.308 15.876 33.948 15.876 33.516 15.876 27.864 15.876 24.084 17.352 24.084 21.672 24.084 24.984 26.424 26.82 29.88 26.82 32.58 26.82 34.2 25.02 34.812 23.94 34.992 25.452 35.532 26.496 38.088 26.496 39.024 26.496 40.032 26.316 40.572 26.1L40.572 24.912C38.232 24.732 37.908 24.264 37.908 21.564ZM34.704 17.64 34.596 22.14C33.768 23.58 32.364 24.768 30.672 24.768 28.584 24.768 27.576 23.976 27.576 21.42 27.576 18.684 29.34 17.568 33.444 17.568 33.912 17.568 34.2 17.604 34.704 17.64ZM51.948 8.604 47.664 8.604C47.664 6.768 47.808 4.5 47.988 3.204L46.296 3.636C45.468 4.968 44.928 6.912 44.604 8.604L42.192 9.432 42.192 10.584 44.352 10.584 44.352 21.924C44.352 25.524 46.008 26.784 48.708 26.784 49.932 26.784 51.084 26.46 52.272 25.848L51.984 24.552C51.228 24.804 50.544 24.912 49.932 24.912 48.132 24.912 47.628 24.264 47.628 21.456L47.628 10.584 51.444 10.584 51.948 8.604ZM67.896 21.564C67.896 18.288 68.04 15.192 68.04 14.112 68.04 9.9 65.808 8.064 61.776 8.064 59.328 8.064 56.556 9.072 55.044 9.9L55.044 13.104 57.312 13.104C57.6 11.448 58.464 9.864 61.488 9.864 64.044 9.864 64.764 11.232 64.764 14.328L64.764 15.912C64.296 15.876 63.936 15.876 63.504 15.876 57.852 15.876 54.072 17.352 54.072 21.672 54.072 24.984 56.412 26.82 59.868 26.82 62.568 26.82 64.188 25.02 64.8 23.94 64.98 25.452 65.52 26.496 68.076 26.496 69.012 26.496 70.02 26.316 70.56 26.1L70.56 24.912C68.22 24.732 67.896 24.264 67.896 21.564ZM64.692 17.64 64.584 22.14C63.756 23.58 62.352 24.768 60.66 24.768 58.572 24.768 57.564 23.976 57.564 21.42 57.564 18.684 59.328 17.568 63.432 17.568 63.9 17.568 64.188 17.604 64.692 17.64ZM79.348 7.151C76.832 7.151 74.612 7.891 72.614 9.334L73.613 10.888C74.945 10.111 76.203 9.408 78.793 9.408 81.124 9.408 82.604 10.703 82.604 12.96 82.604 16.438 79.422 19.065 75.685 21.877L72.096 24.578 72.096 26.28 86.082 26.28 86.674 23.579 76.314 23.579 77.868 22.506C83.381 18.695 86.156 16.475 86.156 12.812 86.156 9.519 83.973 7.151 79.348 7.151ZM89.079 26.28 106.791 26.28 106.791 20.34 105.171 20.34C104.883 23.688 104.199 24.516 101.427 24.516L95.379 24.516 95.379 14.184 98.763 14.184C100.995 14.184 101.679 14.796 101.823 16.74L103.299 16.74 103.299 9.9 101.823 9.9C101.679 11.952 100.959 12.456 98.727 12.456L95.379 12.456 95.379 3.24 101.391 3.24C103.479 3.24 104.055 4.14 104.847 6.876L106.359 6.876 105.999 1.476 89.079 1.476 89.079 2.736C91.491 2.808 91.959 3.42 91.959 5.472L91.959 22.284C91.959 24.336 91.491 24.948 89.079 25.02L89.079 26.28ZM118.491 26.46 123.675 12.348C124.395 10.404 124.863 10.008 126.303 9.828L126.303 8.604 119.535 8.604 119.535 9.828C121.263 9.9 121.839 10.188 121.839 10.908 121.839 11.124 121.731 11.52 121.587 11.952L118.743 20.016C118.383 21.096 117.987 22.644 117.879 23.112L117.735 23.112C117.555 22.104 117.123 20.592 116.907 19.98L113.991 11.952C113.811 11.448 113.739 11.16 113.739 10.872 113.739 10.188 114.315 9.9 116.043 9.828L116.043 8.604 108.051 8.604 108.051 9.828C109.455 10.008 109.959 10.44 110.679 12.348L116.007 26.46 118.491 26.46ZM135.627 26.28 135.627 25.056C133.359 24.948 133.107 24.588 133.107 22.536L133.107 8.136 132.567 8.136 127.203 9.576 127.203 10.656C129.327 10.728 129.831 11.088 129.831 13.716L129.831 22.536C129.831 24.588 129.363 24.912 127.311 25.056L127.311 26.28 135.627 26.28ZM133.467 3.096C133.467 1.836 132.495.828 131.235.828 129.975.828 129.003 1.836 129.003 3.096 129.003 4.356 129.975 5.364 131.235 5.364 132.495 5.364 133.467 4.356 133.467 3.096ZM150.351 23.616C150.459 25.056 150.927 26.316 151.143 26.748L151.683 26.748 156.255 25.452 156.255 24.372C153.951 24.3 153.411 23.94 153.411 21.312L153.411 0 152.655 0 147.399 1.044 147.399 2.196C149.523 2.268 150.135 2.628 150.135 5.256L150.135 10.332C148.803 8.892 147.039 8.172 145.239 8.172 140.631 8.172 137.859 11.988 137.859 17.604 137.859 24.156 141.279 26.64 144.951 26.64 146.859 26.64 148.983 25.38 150.351 23.616ZM141.387 17.172C141.387 11.556 143.043 10.224 145.779 10.224 147.291 10.224 149.019 10.908 150.135 12.276L150.135 22.032C148.695 23.616 147.147 24.624 145.527 24.624 142.683 24.624 141.387 22.752 141.387 17.172ZM167.379 24.516C163.599 24.516 161.799 22.824 161.727 17.604L173.211 17.604 173.211 16.632C173.211 11.16 170.547 8.028 166.011 8.028 161.583 8.028 158.271 11.448 158.271 17.316 158.271 23.22 161.367 26.676 166.515 26.676 169.071 26.676 171.195 25.56 172.923 24.228L172.167 23.004C170.907 23.832 168.927 24.516 167.379 24.516ZM165.939 9.756C168.675 9.756 169.791 11.448 169.791 15.84L161.763 15.84C162.015 11.232 163.491 9.756 165.939 9.756ZM192.075 12.996C192.075 9.864 190.095 8.172 187.215 8.172 184.479 8.172 182.679 9.576 181.059 11.268 181.023 10.008 180.699 8.712 180.447 8.136L179.907 8.136 175.299 9.576 175.299 10.656C177.423 10.728 177.927 11.088 177.927 13.716L177.927 22.536C177.927 24.588 177.459 24.912 175.407 25.056L175.407 26.28 183.723 26.28 183.723 25.056C181.455 24.948 181.203 24.552 181.203 22.788L181.203 12.96C182.643 11.556 184.011 10.692 186.171 10.692 187.899 10.692 188.799 11.52 188.799 13.644L188.799 22.788C188.799 24.552 188.547 24.948 186.279 25.056L186.279 26.28 194.415 26.28 194.415 25.056C192.507 24.912 192.075 24.588 192.075 22.536L192.075 12.996ZM210.291 9.576C209.391 8.964 207.663 8.172 204.891 8.172 200.211 8.172 196.647 11.484 196.647 17.712 196.647 23.76 200.283 26.676 204.711 26.676 207.339 26.676 209.355 25.524 210.939 23.724L210.003 22.716C208.419 24.012 207.375 24.696 205.215 24.696 201.867 24.696 200.211 22.752 200.211 16.992 200.211 11.628 202.083 9.828 204.819 9.828 206.799 9.828 207.483 10.764 207.843 12.888L210.291 12.888 210.291 9.576ZM222.063 24.516C218.283 24.516 216.483 22.824 216.411 17.604L227.895 17.604 227.895 16.632C227.895 11.16 225.231 8.028 220.695 8.028 216.267 8.028 212.955 11.448 212.955 17.316 212.955 23.22 216.051 26.676 221.199 26.676 223.755 26.676 225.879 25.56 227.607 24.228L226.851 23.004C225.591 23.832 223.611 24.516 222.063 24.516ZM220.623 9.756C223.359 9.756 224.475 11.448 224.475 15.84L216.447 15.84C216.699 11.232 218.175 9.756 220.623 9.756Z" transform="translate(.332 .72)"/></svg>