<svg xmlns="http://www.w3.org/2000/svg" width="237" height="30" viewBox="30 25 237 30">
  <g fill="none" fill-rule="evenodd">
    <path fill="navy" fill-rule="nonzero"
      d="M31.332,53 L40.44,53 C49.368,53 52.536,47.78 52.536,40.616 C52.536,31.976 47.784,28.196 40.44,28.196 L31.332,28.196 L31.332,29.456 C33.744,29.528 34.212,30.14 34.212,32.192 L34.212,49.004 C34.212,51.056 33.744,51.668 31.332,51.74 L31.332,53 Z M37.74,51.164 L37.74,29.888 L40.872,29.888 C46.056,29.888 48.792,32.768 48.792,41.048 C48.792,49.112 46.164,51.164 40.8,51.164 L37.74,51.164 Z M69.24,48.284 C69.24,45.008 69.384,41.912 69.384,40.832 C69.384,36.62 67.152,34.784 63.12,34.784 C60.672,34.784 57.9,35.792 56.388,36.62 L56.388,39.824 L58.656,39.824 C58.944,38.168 59.808,36.584 62.832,36.584 C65.388,36.584 66.108,37.952 66.108,41.048 L66.108,42.632 C65.64,42.596 65.28,42.596 64.848,42.596 C59.196,42.596 55.416,44.072 55.416,48.392 C55.416,51.704 57.756,53.54 61.212,53.54 C63.912,53.54 65.532,51.74 66.144,50.66 C66.324,52.172 66.864,53.216 69.42,53.216 C70.356,53.216 71.364,53.036 71.904,52.82 L71.904,51.632 C69.564,51.452 69.24,50.984 69.24,48.284 Z M66.036,44.36 L65.928,48.86 C65.1,50.3 63.696,51.488 62.004,51.488 C59.916,51.488 58.908,50.696 58.908,48.14 C58.908,45.404 60.672,44.288 64.776,44.288 C65.244,44.288 65.532,44.324 66.036,44.36 Z M83.28,35.324 L78.996,35.324 C78.996,33.488 79.14,31.22 79.32,29.924 L77.628,30.356 C76.8,31.688 76.26,33.632 75.936,35.324 L73.524,36.152 L73.524,37.304 L75.684,37.304 L75.684,48.644 C75.684,52.244 77.34,53.504 80.04,53.504 C81.264,53.504 82.416,53.18 83.604,52.568 L83.316,51.272 C82.56,51.524 81.876,51.632 81.264,51.632 C79.464,51.632 78.96,50.984 78.96,48.176 L78.96,37.304 L82.776,37.304 L83.28,35.324 Z M99.228,48.284 C99.228,45.008 99.372,41.912 99.372,40.832 C99.372,36.62 97.14,34.784 93.108,34.784 C90.66,34.784 87.888,35.792 86.376,36.62 L86.376,39.824 L88.644,39.824 C88.932,38.168 89.796,36.584 92.82,36.584 C95.376,36.584 96.096,37.952 96.096,41.048 L96.096,42.632 C95.628,42.596 95.268,42.596 94.836,42.596 C89.184,42.596 85.404,44.072 85.404,48.392 C85.404,51.704 87.744,53.54 91.2,53.54 C93.9,53.54 95.52,51.74 96.132,50.66 C96.312,52.172 96.852,53.216 99.408,53.216 C100.344,53.216 101.352,53.036 101.892,52.82 L101.892,51.632 C99.552,51.452 99.228,50.984 99.228,48.284 Z M96.024,44.36 L95.916,48.86 C95.088,50.3 93.684,51.488 91.992,51.488 C89.904,51.488 88.896,50.696 88.896,48.14 C88.896,45.404 90.66,44.288 94.764,44.288 C95.232,44.288 95.52,44.324 96.024,44.36 Z M113.54,27.15 C110.14,27.15 107.14,28.15 104.44,30.1 L105.79,32.2 C107.59,31.15 109.29,30.2 112.79,30.2 C115.94,30.2 117.94,31.95 117.94,35 C117.94,39.7 113.64,43.25 108.59,47.05 L103.74,50.7 L103.74,53 L122.64,53 L123.44,49.35 L109.44,49.35 L111.54,47.9 C118.99,42.75 122.74,39.75 122.74,34.8 C122.74,30.35 119.79,27.15 113.54,27.15 Z M126.222,53 L143.934,53 L143.934,47.06 L142.314,47.06 C142.026,50.408 141.342,51.236 138.57,51.236 L132.522,51.236 L132.522,40.904 L135.906,40.904 C138.138,40.904 138.822,41.516 138.966,43.46 L140.442,43.46 L140.442,36.62 L138.966,36.62 C138.822,38.672 138.102,39.176 135.87,39.176 L132.522,39.176 L132.522,29.96 L138.534,29.96 C140.622,29.96 141.198,30.86 141.99,33.596 L143.502,33.596 L143.142,28.196 L126.222,28.196 L126.222,29.456 C128.634,29.528 129.102,30.14 129.102,32.192 L129.102,49.004 C129.102,51.056 128.634,51.668 126.222,51.74 L126.222,53 Z M155.634,53.18 L160.818,39.068 C161.538,37.124 162.006,36.728 163.446,36.548 L163.446,35.324 L156.678,35.324 L156.678,36.548 C158.406,36.62 158.982,36.908 158.982,37.628 C158.982,37.844 158.874,38.24 158.73,38.672 L155.886,46.736 C155.526,47.816 155.13,49.364 155.022,49.832 L154.878,49.832 C154.698,48.824 154.266,47.312 154.05,46.7 L151.134,38.672 C150.954,38.168 150.882,37.88 150.882,37.592 C150.882,36.908 151.458,36.62 153.186,36.548 L153.186,35.324 L145.194,35.324 L145.194,36.548 C146.598,36.728 147.102,37.16 147.822,39.068 L153.15,53.18 L155.634,53.18 Z M172.77,53 L172.77,51.776 C170.502,51.668 170.25,51.308 170.25,49.256 L170.25,34.856 L169.71,34.856 L164.346,36.296 L164.346,37.376 C166.47,37.448 166.974,37.808 166.974,40.436 L166.974,49.256 C166.974,51.308 166.506,51.632 164.454,51.776 L164.454,53 L172.77,53 Z M170.61,29.816 C170.61,28.556 169.638,27.548 168.378,27.548 C167.118,27.548 166.146,28.556 166.146,29.816 C166.146,31.076 167.118,32.084 168.378,32.084 C169.638,32.084 170.61,31.076 170.61,29.816 Z M187.494,50.336 C187.602,51.776 188.07,53.036 188.286,53.468 L188.826,53.468 L193.398,52.172 L193.398,51.092 C191.094,51.02 190.554,50.66 190.554,48.032 L190.554,26.72 L189.798,26.72 L184.542,27.764 L184.542,28.916 C186.666,28.988 187.278,29.348 187.278,31.976 L187.278,37.052 C185.946,35.612 184.182,34.892 182.382,34.892 C177.774,34.892 175.002,38.708 175.002,44.324 C175.002,50.876 178.422,53.36 182.094,53.36 C184.002,53.36 186.126,52.1 187.494,50.336 Z M178.53,43.892 C178.53,38.276 180.186,36.944 182.922,36.944 C184.434,36.944 186.162,37.628 187.278,38.996 L187.278,48.752 C185.838,50.336 184.29,51.344 182.67,51.344 C179.826,51.344 178.53,49.472 178.53,43.892 Z M204.522,51.236 C200.742,51.236 198.942,49.544 198.87,44.324 L210.354,44.324 L210.354,43.352 C210.354,37.88 207.69,34.748 203.154,34.748 C198.726,34.748 195.414,38.168 195.414,44.036 C195.414,49.94 198.51,53.396 203.658,53.396 C206.214,53.396 208.338,52.28 210.066,50.948 L209.31,49.724 C208.05,50.552 206.07,51.236 204.522,51.236 Z M203.082,36.476 C205.818,36.476 206.934,38.168 206.934,42.56 L198.906,42.56 C199.158,37.952 200.634,36.476 203.082,36.476 Z M229.218,39.716 C229.218,36.584 227.238,34.892 224.358,34.892 C221.622,34.892 219.822,36.296 218.202,37.988 C218.166,36.728 217.842,35.432 217.59,34.856 L217.05,34.856 L212.442,36.296 L212.442,37.376 C214.566,37.448 215.07,37.808 215.07,40.436 L215.07,49.256 C215.07,51.308 214.602,51.632 212.55,51.776 L212.55,53 L220.866,53 L220.866,51.776 C218.598,51.668 218.346,51.272 218.346,49.508 L218.346,39.68 C219.786,38.276 221.154,37.412 223.314,37.412 C225.042,37.412 225.942,38.24 225.942,40.364 L225.942,49.508 C225.942,51.272 225.69,51.668 223.422,51.776 L223.422,53 L231.558,53 L231.558,51.776 C229.65,51.632 229.218,51.308 229.218,49.256 L229.218,39.716 Z M247.434,36.296 C246.534,35.684 244.806,34.892 242.034,34.892 C237.354,34.892 233.79,38.204 233.79,44.432 C233.79,50.48 237.426,53.396 241.854,53.396 C244.482,53.396 246.498,52.244 248.082,50.444 L247.146,49.436 C245.562,50.732 244.518,51.416 242.358,51.416 C239.01,51.416 237.354,49.472 237.354,43.712 C237.354,38.348 239.226,36.548 241.962,36.548 C243.942,36.548 244.626,37.484 244.986,39.608 L247.434,39.608 L247.434,36.296 Z M259.206,51.236 C255.426,51.236 253.626,49.544 253.554,44.324 L265.038,44.324 L265.038,43.352 C265.038,37.88 262.374,34.748 257.838,34.748 C253.41,34.748 250.098,38.168 250.098,44.036 C250.098,49.94 253.194,53.396 258.342,53.396 C260.898,53.396 263.022,52.28 264.75,50.948 L263.994,49.724 C262.734,50.552 260.754,51.236 259.206,51.236 Z M257.766,36.476 C260.502,36.476 261.618,38.168 261.618,42.56 L253.59,42.56 C253.842,37.952 255.318,36.476 257.766,36.476 Z" />
  </g>
</svg>