<svg width="320" height="214" viewBox="0 0 320 214" xmlns="http://www.w3.org/2000/svg">
    <g fill="none" fill-rule="evenodd">
        <path d="M317.19 54.687c2.715 6.8 3.006 13.778 2.724 21.095-.281 7.317-1.935 11.053-7.475 15.859-9.536 8.25-25.448 10.287-36.806 4.789-7.045-3.412-13.705-8.355-17.206-15.352-5.855-11.683-.935-27.023 9.586-34.777 10.522-7.754 25.246-8.41 37.388-3.588 5.684 2.261 9.255 5.1 11.801 12.315" fill="#E6E9FD"/>
        <path d="M55.76 83.904c21.847-6.13 5.94 3.669 55.162-12.084 34.893-11.16 63.938-4.725 94.704 19.66 26.172 20.742 33.227 50.802 1.405 87.381-43.626 50.144-98.588 32.966-156.728 25.514-62.767-8.045-73.151-98.415 5.458-120.471z" fill="#E3E5F7"/>
        <path d="M218.13 20.27c6.25-3.878 12.555-3.734 19.867-2.86 7.312.876 14.383 5.431 17.07 12.282 1.602 4.085 1.583 8.65.8 12.976-.78 4.286-2.405 8.616-5.658 11.517-1.945 1.735-4.36 2.857-6.824 3.703-6.732 2.311-14.376 2.643-20.846-.332-6.893-3.167-11.907-10.092-12.743-17.64-.837-7.547.271-13.494 6.294-18.105l2.04-1.54zM157.666 4.45c7.831-5.102 15.708-4.929 24.845-3.8 9.136 1.13 17.968 7.082 21.303 16.06 1.99 5.358 1.954 11.353.961 17.021-.983 5.623-3.024 11.294-7.1 15.12-2.435 2.277-5.458 3.755-8.54 4.87-8.416 3.05-17.98 3.503-26.061-.38-8.613-4.135-14.862-13.216-15.896-23.096-1.034-9.881.375-17.698 7.915-23.76l2.573-2.035zM311.126 126.512c11.3 26.143-3.414 35.197-18.348 42.983-13.604 7.09-32.072 2.528-41.016-9.941-8.944-12.469-7.454-31.252 3.154-42.334 10.609-11.082 29.094-13.423 42.26-5.548 4.087 2.436 8.1 5.274 10.887 9.13.95 1.305 2.419 4.22 3.063 5.71z" fill="#E6E9FD"/>
        <g>
            <path d="M150.303 153.332a3.264 3.264 0 0 1 1.345-2.117 3.282 3.282 0 0 1 2.454-.542 3.249 3.249 0 0 1 1.723.86l6.794-4.17a3.238 3.238 0 0 1-.134-1.61 3.27 3.27 0 0 1 1.343-2.123 3.287 3.287 0 0 1 2.456-.548c.473.08.924.262 1.318.535.393.257.722.6.963 1.003l.24.468.166.568v.077c.045.361.045.726 0 1.087v.022l4.531 1.893c.236-.368.54-.688.895-.943a3.33 3.33 0 0 1 3.77-.007c.11.073.217.154.318.24l4.572-4.833s-.022-.024-.032-.038l-.108-.175a3.25 3.25 0 0 1 .811-4.533 3.333 3.333 0 0 1 2.447-.525c.475.077.926.26 1.32.533.393.258.722.6.963 1.003l.24.48.165.568.014.077c.045.36.045.726 0 1.087v.048a3.262 3.262 0 0 1-1.347 2.104 3.376 3.376 0 0 1-2.455.54 3.44 3.44 0 0 1-1.28-.5l-4.663 4.934.012.016.241.466.164.569.014.076a4.69 4.69 0 0 1 0 1.09v.048a3.248 3.248 0 0 1-1.345 2.101 3.341 3.341 0 0 1-2.454.543h-.015a3.289 3.289 0 0 1-2.028-1.178l-.106-.178c-.486-.7-.68-1.56-.541-2.4.02-.1.04-.198.067-.297l-4.441-1.854a3.23 3.23 0 0 1-1.052 1.211 3.364 3.364 0 0 1-2.452.542h-.014a3.281 3.281 0 0 1-2.028-1.178l-.075-.12-6.64 4.08.192.378.166.569.014.077c.044.36.044.726 0 1.087v.048a3.257 3.257 0 0 1-1.345 2.101 3.376 3.376 0 0 1-2.454.543h-.041a3.289 3.289 0 0 1-2.028-1.178l-.106-.176a3.275 3.275 0 0 1-.534-2.45zm34.91-9.931a2.387 2.387 0 0 0 1.744-.384c.493-.342.832-.865.943-1.454a3.522 3.522 0 0 0 0-.861l-.106-.391-.19-.377a2.193 2.193 0 0 0-.662-.691 2.309 2.309 0 0 0-.962-.381 2.316 2.316 0 0 0-2.673 1.88c-.101.6.04 1.217.392 1.714l.087.148c.365.427.87.71 1.427.797zm-10.828 8.398.09.148c.36.423.861.705 1.412.794a2.38 2.38 0 0 0 1.742-.381c.493-.343.832-.866.943-1.456a3.388 3.388 0 0 0 0-.86l-.106-.393-.19-.374a2.186 2.186 0 0 0-.66-.691 2.326 2.326 0 0 0-.962-.384 2.31 2.31 0 0 0-2.353 1.035c-.5.79-.473 1.803.07 2.564l.014-.002zm-10.478-4.02c.36.423.859.704 1.407.795l-.067.48.077-.48a2.37 2.37 0 0 0 1.742-.384c.493-.343.831-.865.943-1.454a3.522 3.522 0 0 0 0-.861l-.106-.391-.19-.377a2.193 2.193 0 0 0-.662-.691 2.309 2.309 0 0 0-.962-.382 2.316 2.316 0 0 0-2.673 1.881c-.101.6.04 1.216.392 1.714l.099.15zm-12.271 7.439.089.148c.36.422.859.704 1.407.794l-.067.48.077-.48a2.395 2.395 0 0 0 1.742-.383c.493-.343.832-.865.943-1.454a3.407 3.407 0 0 0 0-.862l-.106-.39-.19-.378a2.162 2.162 0 0 0-.662-.69 2.297 2.297 0 0 0-.962-.382 2.308 2.308 0 0 0-2.354 1.035c-.5.79-.472 1.804.073 2.564l.01-.002z" fill="#FF5E59"/>
            <path d="M66.761 127.007a.37.37 0 0 1 .13-.24.352.352 0 0 1 .265-.08l4.571.452.195-1.949a.362.362 0 0 1 .573-.257.361.361 0 0 1 .149.33l-.193 1.945.585.06.195-1.948a.362.362 0 0 1 .572-.26c.105.075.162.2.15.33l-.193 1.948 3.802.376a.364.364 0 0 1 .322.394l-.64 6.416a.36.36 0 0 1-.358.323h-.036l-10.385-1.026a.363.363 0 0 1-.322-.394l.618-6.42zm9.78 7.085.569-5.699-5.106-.506-4.572-.451-.568 5.698 9.678.958zM95.27 82.068c.434.043 1.406.144 2.094.24a29.152 29.152 0 0 1-2.307-5.927.36.36 0 0 1 .438-.453.36.36 0 0 1 .257.261 27.97 27.97 0 0 0 2.406 6.063.529.529 0 0 1-.031.569.544.544 0 0 1-.453.24.442.442 0 0 1-.079 0c-.59-.086-1.684-.2-2.245-.26a.364.364 0 0 1-.286.142.361.361 0 0 1-.356-.364c0-.146.063-.285.173-.382a.525.525 0 0 1 .39-.13zM92.326 75.232a.358.358 0 0 1-.356.314h-.046a.361.361 0 0 1-.315-.4l.24-1.944a.363.363 0 0 1 .58-.245.362.362 0 0 1 .142.334l-.245 1.941zM97.99 76.333a.361.361 0 0 1-.296-.415l.296-1.756a.36.36 0 0 1 .416-.295.359.359 0 0 1 .296.413l-.296 1.758a.363.363 0 0 1-.356.3l-.06-.005zM91.017 84.721c.753.898 1.824 1.478 3.27 1.78a.362.362 0 1 1-.075.72h-.075c-1.61-.336-2.812-.998-3.674-2.022a.36.36 0 0 1 .045-.508.362.362 0 0 1 .509.045v-.015zM40.754 165.141a.357.357 0 0 1 .375.343c.101 2.265 2.704 2.894 2.815 2.918a.362.362 0 1 1-.08.72.482.482 0 0 1-.081 0 5.542 5.542 0 0 1-1.62-.72c-1.094-.72-1.703-1.706-1.753-2.88a.354.354 0 0 1 .344-.38z" fill="navy"/>
            <path d="M37.272 167.075c-.597-4.559.897-14.996 3.997-27.906 2.99-12.477 6.886-24.75 10.168-32.04 4.643-10.318 8.837-11.786 12.875-12.175a2.055 2.055 0 0 1-.015-.321c.039-.96 1.184-4.76 2.25-6.754 1.066-1.994 2.254-3.84 2.264-4.396 0-.48-3.823-5.362-4.237-8.935-.347-2.999 1.256-7.13 3.017-9.914 1.684-2.653 5.38-6.384 8.2-7.572 3.128-1.315 5.953-1.617 10.252-1.12 4.95.573 9.841 5.348 11.677 7.548.573.686.991 3.131.782 3.17.763 1.732 1.177 3.965 1.384 7.372.053.98.035 1.962-.056 2.94-.082.92-.108 1.843-.077 2.766.173 4.583-.83 8.249-2.825 10.317a6.375 6.375 0 0 1-4.732 1.967h-.036c-1.163 0-2.823-.31-4.476-.72-.312.672-1 2.148-1.248 2.613-.318.6-1.203 1.86-1.19 2.64 5.956 1.933 10.171 8.41 12.375 11.795.198.304.378.58.54.82 3.49 5.235 4.954 9.149 6.368 12.93.917 2.447 1.78 4.755 3.157 7.409 6.422 12.38 12.726 19.686 16.244 22.249.808.223 4.367 2.138 4.978 2.524.505.321 1.638 1.725 2.314 2.593 1.545 1.2 4.09 2.35 5.775 3.12.607.25 1.197.54 1.768.863l12.661-30.972a.359.359 0 0 1 .335-.223l50.626.256c.065.002.128.02.183.053h.592a.482.482 0 0 1 .45.67l-13.749 35.166-.055 2.263h26.775a.36.36 0 1 1 0 .72H108.025c-.05 0-.1-.011-.146-.032-.08.588-.135.886-.135.886s-.07-.065-.104-.099l.097.168-.58.024c-.137 0-7.052.295-16.754.758.027.547.481 8.316 5.031 21.798 2.344 6.922 4.56 12.601 7.288 19.194v-20.98a299.929 299.929 0 0 1-1.537-5.729c-.445-.695-1.218-3.613-1.444-4.525a.36.36 0 0 1 .258-.436l2.733-.72v-8.758a.36.36 0 0 1 .722 0v41.681a.36.36 0 0 1-.722 0v-.029l-22.307-2.994c-1.068-12.587.481-36.278.59-38.041-7.859.398-16.525.869-24.56 1.368-2.576.16-5.18.323-7.602.323-.666 0-1.317-.013-1.952-.04-.508 2.16-4.33 18.078-8.842 28.655a.359.359 0 0 1-.472.19.36.36 0 0 1-.192-.48c4.408-10.344 8.164-25.848 8.772-28.416-4.783-.302-8.392-1.62-8.895-5.482zm65.446 12.767-2.202.585c.462 1.752 1.042 3.654 1.258 3.959.302.142.618.25.944.324v-4.868zm0 5.614c-.272-.072-.482-.137-.67-.194.152.585.39 1.485.67 2.528v-2.334zM71.45 106.161c-.86-1.713-.24-5.386-3.274-7.59a29.252 29.252 0 0 1-1.91 3.838c.74.624 3.127 2.64 5.964 5.106-.257-.41-.517-.862-.784-1.36l.004.006zm9.144 19.62c-.104-2.661-1.555-9.358-3.092-14.876a3.08 3.08 0 0 1-2.587-.389L69.6 113.41c1.925 1.216 8.421 5.782 11.022 13.479-.014-.453-.024-.83-.036-1.116l.008.008zm.897-17.249c-1.054.547-2.127 1.543-3.301 2.095l.289 1.05c.91.48 2.93 1.313 4.951.557 1.617-.605 2.77-1.9 3.39-2.752-.692-2.363-1.378-4.398-1.946-5.636-.897 2.623-2.854 4.422-3.383 4.686zm6.646.48c.482-2.301.76-4.64.832-6.99a58.444 58.444 0 0 0-2.004-1.245c-.626-.379-1.18-.72-1.663-1.02a8.757 8.757 0 0 1 0 2.242c-.029.28-.073.559-.132.835 1.862 3.224 4.892 15.31 5.688 21.01.962-5.021 3.02-11.202 3.587-12.853-1.828-.345-5.858-1.514-6.044-1.569a.357.357 0 0 1-.264-.41zm2.297 46.203-1.354.067 1.36-.024a.132.132 0 0 1-.006-.052v.01zm1.728-63.91h.031a5.662 5.662 0 0 0 4.213-1.747c1.858-1.934 2.791-5.415 2.625-9.8-.032-.95-.005-1.9.08-2.846.088-.946.106-1.896.053-2.844-.21-3.471-.633-5.672-1.427-7.349-1.01 0-2.002-.312-3.012.219-3.706 1.943-5.551 2.639-7.353 5.278-1.512 2.215-1.358 9.674-3.152 11.802-.369.435-.215 1.5.158 3.489.198 1.048.373 1.42.397 2.183 2.455.847 5.676 1.615 7.387 1.615zm14.882 38.535c-1.396-2.692-2.308-5.13-3.19-7.488-1.41-3.743-2.854-7.615-6.295-12.784-.161-.24-.344-.52-.544-.827-2.124-3.263-6.172-9.475-11.77-11.423-.04.478-.11.953-.21 1.422.722.461 1.6.999 2.298 1.423.907.55 1.764 1.07 2.202 1.377.097.069.154.18.154.298a40.632 40.632 0 0 1-.778 6.987c1.114.316 4.813 1.36 6.05 1.523a.368.368 0 0 1 .26.168.378.378 0 0 1 .033.31c-.043.12-4.042 11.543-4.17 16.941.113 7.33.07 27.199.07 27.422a.294.294 0 0 1 0 .045c2.9-.062 5.774-.156 8.505-.292-.185-.838-3.609-16.455-3.929-31.32a.36.36 0 0 1 .354-.368.354.354 0 0 1 .368.353c.02.93.052 1.863.094 2.797.099.67 1.509 10.164 2.035 12.89.318 1.648 1.204 4.875 1.572 6.218 2.697 3.923 5.964 6.342 8.065 7.887.34.252.637.48.907.679 2.295-.876 7.596-2.488 8.715-2.64.962-.131 3.609.101 4.829.255-7.04-5.72-14.21-19.12-15.625-21.853zm-1.62 24.778c1.357.019 2.074 0 2.888-.24l-.525-.389c-2.442-1.807-6.45-4.772-9.384-9.902.977 6.296 1.954 10.658 1.973 10.74a.347.347 0 0 1 0 .083c1.552-.084 3.06-.18 4.502-.295l.566-.043-.02.046zm-8.712-25.231-.154-2.654c.043.885.094 1.773.154 2.654zm41.685 32.088a14.634 14.634 0 0 0-1.7-.83c-1.408-.64-3.405-1.545-4.965-2.539a1.219 1.219 0 0 1-.344.514c.222.24.335.324.335.326a.348.348 0 0 1 .132.254 1.13 1.13 0 0 1-.351.876 1.727 1.727 0 0 1-1.15.52h-.036c-.8-.026-1.56-.887-2.062-1.532a4.54 4.54 0 0 0-.684-.655l-.038.016c-.7.252-1.668-.028-2.543-.734a16.165 16.165 0 0 1-3.181-1.223 2.933 2.933 0 0 0-.739.405c.154.026.327.06.527.1 1.46.306 1.754.641 1.853.752.363.428.499 1.003.365 1.547-.043.195-.375 1.22-2.504 1.22h-.315a22.78 22.78 0 0 1-3.646-.44c-.27.185-.552.353-.844.502-.404.199-.82.393-1.261.563.79.656 1.5 1.402 2.113 2.225a15.46 15.46 0 0 0 1.95 2.137h17.599a.43.43 0 0 1 .024-.096l1.566-3.838a.356.356 0 0 1-.1-.07zm-7.278-2.107c-.096-.09-.24-.24-.436-.45-.07.01-.142.015-.214.016h-.173c-.652-.055-1.33-.703-1.925-1.305l-.026-.024c-.052.127-.12.246-.205.355.239.204.46.426.664.665.797 1.022 1.263 1.247 1.516 1.254a1.04 1.04 0 0 0 .655-.297.557.557 0 0 0 .144-.214zm-10.827-1.871c-.241.218-.503.456-.76.698-.443.413-.915.854-1.413 1.26.96.161 1.927.264 2.9.307 1.85.077 2.08-.643 2.08-.643a.177.177 0 0 1 0-.034c.076-.311 0-.64-.204-.888-.308-.357-2.117-.676-2.603-.7zm81.566-26.872-49.85-.245-14.337 35.078 50.263-.024 13.924-34.81zm-36.08 37.098.017-1.557-51.1.024-.017 1.518 51.1.015zm-57.745.355h5.92v-.015l.027-2.236a.363.363 0 0 1 .361-.357h3.913a18.154 18.154 0 0 1-1.473-1.694 12.135 12.135 0 0 0-2.36-2.4 8.391 8.391 0 0 1-4.216.077 6.31 6.31 0 0 0-1.821-.07c-.07 3.12-.265 5.344-.421 6.7a.263.263 0 0 1 .062-.005h.008zm2.333-7.328a7.629 7.629 0 0 0 3.985-.096.316.316 0 0 1 .077-.024c.603-.199 1.19-.444 1.754-.734.246-.122.483-.262.71-.417a.363.363 0 0 1 .274-.195c.657-.5 1.284-1.04 1.877-1.614.998-.934 1.862-1.74 2.719-1.941a.362.362 0 0 1 .24.03c.934.48 2.476 1.112 3.198 1.236.063.012.121.04.17.08.677.568 1.444.837 1.906.669.23-.095.4-.294.458-.535-.556-.365-2.08-1.348-2.888-1.764-.216-.11-.454-.24-.702-.386-.871-.48-1.954-1.101-2.592-.96-.48.108-1.34.54-1.97.852a5.802 5.802 0 0 1-1.023.459.356.356 0 0 1-.418-.276.365.365 0 0 1 .271-.43c.29-.117.572-.249.847-.396.7-.348 1.572-.782 2.132-.91.912-.205 2.079.452 3.106 1.033.241.136.482.266.679.374.59.3 1.51.876 2.211 1.322.488.22.945.502 1.36.84l.151.153c.303.315 1.015 1.051 1.444 1.085.113.012.228.005.339-.02h.031a.48.48 0 0 0 .335-.33l-.368-.48c-.787-1.013-1.8-2.239-2.166-2.467-.662-.422-3.765-2.066-4.622-2.4a.386.386 0 0 1-.257-.062c-.438-.019-1.548.24-2.298.42-.327.077-.635.149-.893.202a.36.36 0 0 1-.147-.703l.551-.125c-1.128-.094-2.362-.158-2.92-.082-1.004.14-6.497 1.788-8.742 2.673-1.075.423-1.804.516-3.128.516h-.89c-.202.682-.722 2.805-.363 5.845.392-.043.847-.12 1.325-.204 1.367-.25 2.936-.516 4.23-.238h.007zm-53.968 10.857c20.882-1.303 46.057-2.4 50.152-2.567-2.15-4.13-2.6-7.678-2.589-9.976a14.582 14.582 0 0 1 .453-3.695c-18.046 1.363-45.956.266-46.238.254l-.433-.017.096-.42c1.567-6.97 6.564-30.142 6.615-30.375a.361.361 0 0 1 .707.151c0 .053-.28 1.294-.703 3.256l.749-3.344-4.16 30.128c3.866.122 11.26.316 19.518.328.019-2.529.132-18.018.086-25.775a.345.345 0 0 1-.081-.159c-2.166-10.257-11.771-15.636-11.867-15.689a.357.357 0 0 1 0-.631l5.423-2.95a601.49 601.49 0 0 0-8.558-7.367.357.357 0 0 1-.075-.463 27.752 27.752 0 0 0 2.064-4.134 7.467 7.467 0 0 0-.721-.37c-.633-.275-1.805-1.093-2.296-2.142-3.996.358-7.885 1.68-12.425 11.757-3.265 7.253-7.144 19.482-10.127 31.91-3.077 12.832-4.572 23.168-3.982 27.65.729 5.74 9.704 5.18 18.385 4.64h.007z" fill="navy"/>
            <path d="M52.58 187.21a.957.957 0 0 1-.073-.814c.366-.76 1.925-3.783 2.002-3.91a.359.359 0 0 1 .424-.18l15.11 4.544c.06.018.113.05.156.096l.015-.043s.48.624.428.96c-.053.335-5.21 15.676-5.378 16.012-.168.336-1.26.48-1.26.48l.014-.04c-1.836 0-10.664-2.659-13.385-3.947-.962-.451-1.15-.703-1.217-.907-.301-.895 2.285-8.352 3.481-11.707a3.935 3.935 0 0 1-.317-.544zm16.912.225-14.48-4.354c-.397.765-1.533 2.965-1.843 3.599 0 .122.125.393.397.789l.022.029c.562.766 1.19 1.482 1.876 2.14 1.444 1.425 2.888 2.522 3.58 2.73 1.844.547 8.477-.67 9.062-1.027.229-.273.869-2.169 1.374-3.906h.012zM50.084 199.21c.241.3 2.238 1.233 6.817 2.639 3.645 1.116 6.556 1.8 7.071 1.761.522-.662 2.308-6.173 3.836-11.382-1.624.492-5.164.993-7.4.993a6.032 6.032 0 0 1-1.57-.149c-1.302-.386-4.009-2.84-5.436-4.618-1.713 4.832-3.397 10.07-3.318 10.756zM140.2 163.306l12.59-31.26a.363.363 0 0 1 .335-.24l45.497.153a.364.364 0 0 1 .334.48l-12.271 31.19a.363.363 0 0 1-.337.24l-45.821-.074a.361.361 0 0 1-.299-.158.364.364 0 0 1-.029-.331zm45.91-.154 11.985-30.471-44.727-.149-12.3 30.54 45.042.08z" fill="navy"/>
            <g fill="#FF5E59">
                <path stroke="#FF5E59" stroke-width="1.131" fill-rule="nonzero" stroke-linecap="round" stroke-linejoin="round" d="m158.284 92.603-4.553-.946h0l4.553.946zM157.722 82.318h0l-3.986.485h0zM153.475 72.185h0l-3.737 2.473h0zM144.29 65.36h0l-1.5 3.421h0zM133.918 68.389l-.613-4.118h0l.613 4.118zM125.582 71.315l-2.43-2.84h0l2.43 2.84zM120.625 78.943l-4.296-1.286h0l4.296 1.286zM119.361 87.927h0l-4.143.611h0zM123.06 96.157h0l-3.607 2.46h0z"/>
                <path d="M137.572 111.183h.055l5.22-.772a.397.397 0 0 0 .293-.21l1.754-3.358a.424.424 0 0 0 .04-.24l-.882-5.989.24-.228c.722-.703.722-1.974.722-2.999 0-1.243 0-2.529.722-3.707 3.082-5.096 3.253-10.653.455-14.875a11.453 11.453 0 0 0-9.598-5.066h-.092a12.58 12.58 0 0 0-1.742.137c-4.571.677-8.226 3.753-9.508 8.024-1.444 4.841.33 10.11 4.761 14.096 1.028.923 1.405 2.159 1.771 3.359.296.96.664 2.18 1.566 2.639l.292.149.887 5.979a.405.405 0 0 0 .113.225l2.647 2.702a.398.398 0 0 0 .284.117v.017zm-2.165-3.162 8.625-1.277-1.513 2.896-4.812.72-2.3-2.34zm-.535-2.88 8.836-1.304.305 2.056-8.847 1.307-.294-2.058zm-.433-2.898 8.838-1.305.34 2.193-8.84 1.279-.338-2.167zm2.21-27.781v.089a10.467 10.467 0 0 1 8.863 4.71c2.62 3.944 2.445 9.177-.481 14-.828 1.372-.83 2.903-.833 4.133 0 1.836-.132 2.601-1.414 2.793l-8.181 1.2a3.289 3.289 0 0 1-.327.024c-.963 0-1.288-.737-1.764-2.299-.36-1.175-.806-2.639-2.002-3.714-4.194-3.772-5.887-8.728-4.528-13.258 1.203-4.034 4.521-6.824 8.862-7.465.557-.082 1.12-.127 1.684-.132h.089l.031-.081z"/>
            </g>
            <path d="M75.781 89.47a.27.27 0 0 0 .077 0 .36.36 0 0 0 .277-.428c-1.056-4.798-5.515-11.152-5.702-11.42a.362.362 0 0 0-.504-.088.36.36 0 0 0-.088.503c.045.065 4.571 6.512 5.59 11.159.038.161.184.275.35.274zM76.698 83.457a.36.36 0 0 0 .342-.458c-1.795-6.258-1.817-14.039-1.817-14.118a.36.36 0 0 0-.722 0c0 .08.022 7.961 1.843 14.314a.36.36 0 0 0 .354.262zM86.067 72.674a.361.361 0 1 0 .05-.72c-.018 0-1.955-.29-3.257-.96a.362.362 0 0 0-.525.339.36.36 0 0 0 .195.302c1.41.72 3.4 1.02 3.484 1.032l.053.007z" fill="#EBF2FA"/>
            <path d="m287.23 137.196.041-.103c.032-.081.06-.16.09-.24.055-.156.108-.312.156-.48a9 9 0 0 0 .24-.983.361.361 0 0 1 .443-.24.37.37 0 0 1 .24.441 9.714 9.714 0 0 1-.625 2.056.366.366 0 0 1-.495.13.371.371 0 0 1-.128-.48c-.02.027.038-.091.038-.1zM267.116 160.474a6.685 6.685 0 0 0 4.646 3.088.36.36 0 0 1 .24.442.368.368 0 0 1-.442.24 7.378 7.378 0 0 1-5.068-3.407.362.362 0 0 1 .623-.362z" fill="navy"/>
            <path d="M257.255 118.92a.379.379 0 0 1 .07-.018c2.062-.375 12.396-2.222 13.395-1.92 1.133.331 1.696 1.867 1.715 1.92l4.149 10.077c.452-.221.91-.432 1.364-.64a336.005 336.005 0 0 1 2.343-3.976c.393-.653.787-1.308 1.187-1.958.322-.53.628-1.2 1.179-1.536.55-.336 1.277-.19 1.9-.1.688.099 1.373.215 2.053.35 1.398.276 2.778.635 4.133 1.075a30.522 30.522 0 0 1 4.09 1.665.405.405 0 0 1 .155.033c3.128 1.42 5.293 4.194 7.317 6.86 1.032 1.372 2.04 2.764 3.176 4.052a20.114 20.114 0 0 0 4.018 3.549 22.906 22.906 0 0 0 5.493 2.57c.438.146.24.842-.193.695a24.511 24.511 0 0 1-4.975-2.221 20.174 20.174 0 0 1-4.192-3.371c-2.406-2.515-4.186-5.538-6.535-8.098a14.43 14.43 0 0 0-4.167-3.285.39.39 0 0 1-.159-.04 31.721 31.721 0 0 0-7.504-2.64 37.15 37.15 0 0 0-2.895-.53 4.118 4.118 0 0 0-.984-.086c-.616.062-.91.777-1.191 1.24a300.219 300.219 0 0 0-3.104 5.202 85.318 85.318 0 0 1 5.192-2.16.343.343 0 0 1 .157-.024.192.192 0 0 1 .036-.04l-.022-.24-.014-.116a.266.266 0 0 0 0-.045v-.012c0-.029 0-.024 0 0-.029-.125-.039-.257-.06-.382a12.172 12.172 0 0 1-.123-.96.36.36 0 0 1 .722 0c0 .087.014.173.024.26a.4.4 0 0 0 .012.117v.046c0 .029 0 .024 0 0 .029.125.038.257.06.381.043.262.077.523.104.785 1.628-.156 3.262-.336 4.896-.427a34.362 34.362 0 0 1 4.944.106c.46.04.465.76 0 .72a34.362 34.362 0 0 0-4.944-.106c-1.793.1-3.583.307-5.37.48h-.046a.363.363 0 0 1-.185.148 79.978 79.978 0 0 0-8.708 3.885c-.615.306-1.201.667-1.752 1.077-.249.195-.483.408-.7.638-.178.192-.438.437-.192.672.377.365 1.066.312 1.547.295.596-.023 1.19-.099 1.773-.225 1.08-.222 2.125-.591 3.104-1.097a2.865 2.865 0 0 1 1.951-1.168c.303-.037.61-.014.902.07a.338.338 0 0 1 .16-.017c.093 0 .185.024.276.038 1.063.082 2.13.192 3.195.218.467.017.933.005 1.398-.036.47-.045.943-.216 1.417-.19.458.047.881.265 1.184.61.292.313.627.582.996.8a3.618 3.618 0 0 0 2.558.337.362.362 0 0 1 .351.6 6.901 6.901 0 0 0-1.845 2.771.365.365 0 0 1-.53.216 47.548 47.548 0 0 1-2.504-1.298c-.744-.422-1.444-.902-2.166-1.377-1.249-.837-2.565-1.68-4.073-1.934h-.017l-.147-.021a.282.282 0 0 1-.216.045c.3.172.567.398.786.665.239.325.43.682.568 1.06.16.385.194.81.096 1.214a2.208 2.208 0 0 1-1.364 1.44 2.511 2.511 0 0 1-2.052-.18c-.068-.033-.133-.072-.198-.11a6.122 6.122 0 0 0 2.281 1.878c1.641.83 3.48 1.2 5.087 2.11 1.47.832 2.584 2.11 3.741 3.308.88.928 1.88 1.734 2.972 2.4.962.585 1.978 1.11 2.988 1.626 2.447 1.245 4.942 2.4 7.416 3.599 2.11 1.02 4.266 2.025 6.256 3.287.173.11.346.226.515.343.377.264.016.888-.364.622-1.905-1.332-4.07-2.323-6.155-3.335-2.584-1.258-5.194-2.465-7.76-3.76a52.431 52.431 0 0 1-3.154-1.699 14.966 14.966 0 0 1-3.077-2.43c-1.22-1.248-2.36-2.606-3.924-3.441l-.022-.012c.06.167.09.343.087.52a2.578 2.578 0 0 1-.604 1.467c-.481.566-1.174.935-1.745 1.396-.486.38-.947.792-1.38 1.23.666-.28 1.327-.563 1.994-.841.5-.211 1.145-.353 1.412.256.367.867.35 1.848-.045 2.702-.397.88-1.153 1.552-1.95 2.07a.383.383 0 0 1-.074.041c.168.42.305.85.412 1.289.214 1.399-.657 2.118-1.163 2.31l-4.862 1.625a4.02 4.02 0 0 0-.046.77c0 .511.026 1.022.065 1.53.077 1.061.2 2.117.315 3.173.048.422.075.844.128 1.264.11.873.303 1.732.387 2.61.098.853.102 1.714.012 2.568-.103.815-.481 1.413-.982 2.037-1.013 1.233-1.25 2.879-1.203 4.436 0 .463-.722.463-.722 0-.04-1.38.135-2.898.819-4.12.36-.643.993-1.123 1.241-1.828.274-.78.207-1.713.159-2.524-.053-.926-.24-1.826-.37-2.742-.075-.495-.111-.996-.164-1.493-.11-1.017-.24-2.034-.315-3.054a22.837 22.837 0 0 1-.092-1.768v-.61l-4.91 1.63 1.525 3.874a.362.362 0 0 1-.674.264l-1.65-4.201c-.31-.513-4.331-7.181-4.673-7.858-.178-.35-1.203-.67-1.846-.772a.363.363 0 0 1-.279-.228c-.151-.396-1.78-4.664-3.638-9.561.022.144.017.29-.012.434-.125.58-.762.878-1.273 1.05-.28.091-.566.164-.856.22a.589.589 0 0 1-.065 0c-.043 1.03.152 2.06.173 3.092.05 2.174-.683 4.446 0 6.576.164.507.416.972.388 1.519-.03.547-.241 1.07-.29 1.62-.093 1.12.198 2.221.557 3.275.358 1.053.78 2.032 1.09 3.075.296 1.007.53 2.031.7 3.067a35.06 35.06 0 0 1 .426 7.116c-.02.463-.741.466-.722 0a34.65 34.65 0 0 0-.32-6.524 26.35 26.35 0 0 0-.667-3.143c-.296-1.055-.71-2.065-1.078-3.097-.385-1.077-.721-2.203-.71-3.36.022-.559.102-1.115.241-1.657.076-.28.08-.576.012-.86-.072-.258-.19-.503-.276-.757-.754-2.174-.046-4.482-.063-6.706 0-1.298-.303-2.592-.118-3.89.147-1.036.606-2.022 1.487-2.639a.301.301 0 0 1 .438.072c.228.105.422.271.56.48-2.345-6.195-4.913-13.02-5.278-14.209-.77-2.502.61-3.085.668-3.11zm4.288 18.476a1.307 1.307 0 0 0-.065-.276 1.608 1.608 0 0 0-.255-.535s-.048-.053-.055-.058l-.039-.036-.045-.024a3.04 3.04 0 0 0-.946 1.775c.202-.045.404-.093.601-.158.073-.024.145-.048.215-.077l.036-.014h.024l.084-.04c.064-.03.126-.065.185-.104l.07-.046.05-.04.068-.068.017-.019c0-.024.031-.053.043-.072.012-.019 0 0 0 0l.017-.067a.816.816 0 0 1-.005-.146v.005zm11.383-4.06c-.587-.324-.825-.977-.428-1.552a6.01 6.01 0 0 1 1.684-1.495l.258-.159a.363.363 0 0 1-.267-.218l-3.867-9.544-11.051 1.691 9.595 25.342a.361.361 0 0 1-.06.355c.142.252.383.662.681 1.17a.363.363 0 0 1 .24-.227l10.965-3.417-4.834-11.757a.033.033 0 0 1 0-.016 11.02 11.02 0 0 1-1.075.105c-.623.017-1.292.022-1.84-.283v.005zm14.167-.917c.722.48 1.432.972 2.18 1.404a41.22 41.22 0 0 0 2.276 1.2c.3-.713.706-1.376 1.203-1.968a4.25 4.25 0 0 1-1.578-.3 4.348 4.348 0 0 1-1.177-.696c-.32-.266-.603-.72-1.025-.827-.42-.108-.988.115-1.443.163-.48.047-.962.063-1.444.048-.214 0-.43-.015-.645-.027.568.296 1.114.641 1.653.999v.004zm-5.036 2.596c.483-.104.888-.43 1.09-.88.229-.571-.108-1.224-.42-1.699-.313-.475-.963-.787-1.526-.94a.378.378 0 0 1-.142-.075 7.883 7.883 0 0 0-1.396 1.92.24.24 0 0 1 .056.12c.156.969 1.362 1.782 2.338 1.55v.004zm-3.128-1.389a3.11 3.11 0 0 1 .109-1.012c-.267.11-.537.216-.811.307.669 1.557 1.607 3.75 2.58 6.05.423-.387.82-.803 1.188-1.244l-.166-.087c-1.49-.844-2.78-2.236-2.89-4.019l-.01.005zm3.73 4.417c-.47.587-.99 1.132-1.554 1.627l.012.029a8.064 8.064 0 0 1 1.862-.838c.337-.11.676-.201 1.02-.28a20.81 20.81 0 0 1-1.34-.538zm1.444 4.799c.51-.42 1.075-.777 1.58-1.2.388-.306.651-.741.744-1.226.074-.499-.395-.928-.756-1.23l-.337-.128h-.062c-.71.094-1.41.254-2.091.48a7.278 7.278 0 0 0-1.768.823c.51 1.214 1.015 2.426 1.482 3.563.382-.383.785-.744 1.208-1.082zm2.278 2.25c0-.09 0-.182-.017-.273v-.017a.478.478 0 0 0 0-.057c0-.046-.014-.09-.024-.132a2.873 2.873 0 0 0-.135-.447.206.206 0 0 0-.026-.062h-.063a3.5 3.5 0 0 0-.48.173c-.737.307-1.466.621-2.2.928.424 1.046.799 1.992 1.095 2.764.982-.66 1.865-1.653 1.848-2.87l.002-.007zm-1.925 4.957c-.147-.96-3.664-9.357-6.917-16.927-.24.068-.481.13-.722.185-.087.022-.176.036-.262.055l4.93 11.997a.359.359 0 0 1-.226.48l-11.352 3.536a.422.422 0 0 1-.106.017.309.309 0 0 1-.065 0c.998 1.68 2.452 4.098 3.424 5.71l.962-.324a.37.37 0 0 1 .087-.016l4.432-1.471a.378.378 0 0 1 .212-.07l4.91-1.629c.099-.048.871-.393.696-1.535l-.003-.008zm-27.188-28.23c.64 2.076 8.378 22.367 9.212 24.555.474.09.935.238 1.372.441l-9.442-24.929a.359.359 0 0 1 .284-.48l11.773-1.804a.361.361 0 0 1 .39.221l3.985 9.823a.359.359 0 0 1 0 .24c.353-.209.721-.406 1.085-.595l-4.175-10.13c-.127-.348-.599-1.293-1.244-1.483-.722-.177-8.34 1.09-13.012 1.934-.127.072-.731.542-.216 2.214l-.012-.007z" fill="navy"/>
            <path d="M266.827 132.904c.11-.098.238-.171.378-.216l.327-4.885v-.02a1.679 1.679 0 0 1-.825-1.347 1.176 1.176 0 0 1 .387-.96c.252-.211.59-.291.91-.216.694.183 1.19.792 1.227 1.507.028.36-.113.715-.38.96-.171.144-.385.229-.61.24l-.317 4.728c.615.22 1.035.79 1.064 1.44.014.25-.043.5-.164.72l4.23 3.599.024-.024c.22-.208.522-.307.823-.271a1.472 1.472 0 0 1 1.203 1.408c.028.369-.105.732-.366.996a1.007 1.007 0 0 1-.705.283h-.108c-.645-.063-1.182-.684-1.218-1.413a1.622 1.622 0 0 1 .017-.308l-4.446-3.776a1.09 1.09 0 0 1-.563.065 1.57 1.57 0 0 1-1.28-1.49 1.24 1.24 0 0 1 .392-1.02zm7.172 7.198a.309.309 0 0 0 .241-.082.553.553 0 0 0 .142-.436.773.773 0 0 0-.563-.72h-.04c-.078 0-.152.03-.208.081a.563.563 0 0 0-.142.437c.02.34.287.694.568.722l.002-.002zm-5.488-13.309a.922.922 0 0 0-.652-.833.338.338 0 0 0-.296.058.479.479 0 0 0-.132.382c.02.39.284.724.66.837a.33.33 0 0 0 .29-.062.479.479 0 0 0 .13-.38v-.002zm-.698 7.891a.374.374 0 0 0 .306-.086.539.539 0 0 0 .15-.427.862.862 0 0 0-.648-.806.364.364 0 0 0-.313.084.534.534 0 0 0-.15.427c.01.386.279.717.655.808z" fill="#FF5E59"/>
            <g fill="navy">
                <path d="M177.857 20.262a.36.36 0 1 1 .366-.622l.657.324.315.156h.017v-.04c.021-.135.04-.272.06-.406l.115-.782c.08-.53.157-1.063.241-1.593a.363.363 0 0 1 .443-.24.37.37 0 0 1 .24.443l-.397 2.688c0 .21-.053.417-.154.602a.501.501 0 0 1-.654.096c-.412-.202-.828-.41-1.249-.626zM181.938 16.017v-.014a3.627 3.627 0 0 0 .087-.226c.038-.105.074-.213.105-.321a.36.36 0 1 1 .696.192 5.906 5.906 0 0 1-.583 1.331.366.366 0 0 1-.493.13.369.369 0 0 1-.13-.494c.119-.193.225-.392.318-.598zM178.704 15.933a.358.358 0 0 1-.216.166.361.361 0 0 1-.443-.24.414.414 0 0 1 .036-.278c0-.017.062-.125.017-.039a.73.73 0 0 0 .031-.077l.072-.177c.044-.115.087-.24.125-.346.082-.24.152-.48.212-.72a.362.362 0 0 1 .698.193 9.88 9.88 0 0 1-.532 1.518zM175.935 20.823c.17-.09.38-.033.48.13a3.4 3.4 0 0 0 2.433 1.346.36.36 0 1 1 0 .72 4.132 4.132 0 0 1-3.055-1.704.362.362 0 0 1 .142-.492z"/>
                <path d="M156.392 38.472c.207-1.055.535-2.087.835-3.119l.934-3.217a12.34 12.34 0 0 1 1.059-2.8c.51-.821 1.083-1.601 1.715-2.332.655-.806 1.26-1.65 1.814-2.53.51-.781.941-1.61 1.29-2.475.04-.187.102-.369.188-.54.183-.4.417-.776.695-1.118.21-.262.452-.571.801-.64a.724.724 0 0 1 .32 0v-.015a5.011 5.011 0 0 0 1.292-1.521c.155-.28.28-.575.373-.88.02-.066.039-.128.06-.188a.326.326 0 0 1 .049-.151c.18-.395.252-.83.206-1.262a2.493 2.493 0 0 0-.48-1.298 3.353 3.353 0 0 1-.602-1.6c.005-.57.135-1.13.38-1.644a6.06 6.06 0 0 0 .522-1.761c.05-.626.014-1.267.193-1.874a4.816 4.816 0 0 1 .88-1.57c.354-.453.722-.897 1.117-1.316.808-.857 1.77-1.54 2.964-1.706 1.287-.18 2.623.103 3.898.28 2.454.344 5.156.667 7.283 2.045a4.764 4.764 0 0 1 1.398 1.276c.314.505.485 1.085.496 1.68a5.237 5.237 0 0 1-1.069 3.359 41.746 41.746 0 0 1-2.172 8.443 40.925 40.925 0 0 1-1.783 4.079c-.508 1.01-1.23 2.21-2.406 2.497-1.013.24-2.214-.091-3.112-.655a3.425 3.425 0 0 0-.135.437c.542.137 1.083.293 1.608.48.185.06.291.254.24.441a.406.406 0 0 1-.197.24c-.012.036-.024.072-.033.108l.012.012c1.684 1.879 3.236 3.865 4.843 5.806.768.929 1.605 1.812 2.353 2.755.39.5.63 1.1.693 1.73.096.739.171 1.478.255 2.217l.525 4.645c1.833-1.615 4.028-2.925 6.373-3.518a.364.364 0 0 1 .446.432l.64-.113 3.962-5.038c.365-.456.94-.693 1.521-.626l1.381.163a1.005 1.005 0 0 1 .693 1.603l-3.27 4.378a.356.356 0 0 1-.192.132.998.998 0 0 1-.077.108.416.416 0 0 1-.017.322 4.164 4.164 0 0 1-.633.981.32.32 0 0 1-.048.187c-.498.74-.984 1.49-1.499 2.217-.4.566-.902 1.142-1.612 1.296-1.018.852-1.925 2.04-3.239 2.425-1.08.317-2.25.24-3.337.514.296.76.575 1.526.854 2.291a.362.362 0 0 1-.166.406c-1.807.93-5.534 2.545-5.534 2.545s-.608.116-1.294.204c-.756.099-1.595.17-1.588.166 2.646-1.077 5.24-2.107 7.786-3.402-.26-.72-1.124-2.951-1.237-3.213a29.924 29.924 0 0 0-1.646-3.196l-.108-.182c0-.017-.017-.027-.024-.041l-.257.098c-.455.178-.905.363-1.355.547-2.984 1.226-5.955 2.486-8.99 3.585-.702.257-1.41.504-2.129.72a5.859 5.859 0 0 1-1.236.266l-.027.04c-.938 1.186-2.856 3.686-2.856 3.686l-.707-.223s1.925-2.54 2.82-3.678a85.177 85.177 0 0 0-.512-10.161c-.205-1.833-.528-3.705-1.31-5.391a8.31 8.31 0 0 0-3.007-3.458 9.258 9.258 0 0 0-4.752-1.473 9.58 9.58 0 0 0-.366.96c-.633 2.015-1.203 4.057-1.766 6.094a11.53 11.53 0 0 0-.47 3.107c.037 1.048.16 2.091.369 3.12.411 2.317 1.925 7.324 1.925 7.324l-1.001-.743s-1.105-3.6-1.444-5.468c-.402-2.09-.787-4.18-.366-6.31zm10.33-10.509c.008.436.158.857.426 1.2.558.804 1.39 1.44 2.105 2.097 3.017 2.78 6.049 5.571 8.7 8.71a40.558 40.558 0 0 1 2.945 3.918c-2.03-3.868-4.14-7.691-6.328-11.47a241.66 241.66 0 0 0-2.028-3.442c-.505.375-.988.78-1.444 1.214a.366.366 0 0 1-.567-.072 32.812 32.812 0 0 0-3.003-4.098 31.93 31.93 0 0 0-2.563-2.656 4.354 4.354 0 0 0-.183-.156c.126 1.327.21 2.951 1.463 3.623a.94.94 0 0 1 .462.405c.113.238.022.48.015.73v-.003zm9.458.41c.01-.337.06-.672.15-.997a12.493 12.493 0 0 0-.864-.24c.279.388.518.804.714 1.24v-.002zm.785 1.839c.024.35.055.7.086 1.053.049.33.076.664.082.998 0 .48-.693.46-.722 0-.02-.29-.043-.583-.07-.873-.114-.758-.314-1.5-.596-2.213a6.671 6.671 0 0 0-.963-1.773c-.55.382-1.107.754-1.653 1.138a308.313 308.313 0 0 1 7.474 13.22c.508.96 1.012 1.92 1.51 2.879a31.687 31.687 0 0 0-2.107-7.73 30.892 30.892 0 0 0-1.865-3.748 12.416 12.416 0 0 1-.962-2.313c-.073-.209-.147-.422-.214-.636v-.002zm-11.242-9.672a3.996 3.996 0 0 0-.618.828 4.11 4.11 0 0 0-.21.41.436.436 0 0 1-.019.086c-.029.087-.065.17-.096.257.01.084.056.16.125.209a39.586 39.586 0 0 1 3.212 3.263 33.836 33.836 0 0 1 2.799 3.781 30.347 30.347 0 0 1 3.197-2.373 33.135 33.135 0 0 0-7.44-6.166l-.48-.29c-.23-.113-.301-.183-.47-.005zm12.726 5.346c1.09-.264 1.684-1.536 2.122-2.445a41.01 41.01 0 0 0 2.868-7.73c.37-1.434.663-2.886.878-4.35a45.961 45.961 0 0 0-2.887-1.81 13.833 13.833 0 0 0-3.306-1.44 3.822 3.822 0 0 0-1.91-.064 2.126 2.126 0 0 0-1.372 1.353c-.29.72-.255 1.44-.204 2.212.032.369.02.74-.034 1.106-.082.396-.21.78-.38 1.147-.178.43-.36.857-.539 1.286-.123.29-.24.643-.577.751a.579.579 0 0 1-.722-.48 8.006 8.006 0 0 1-.125-1.082c-.383-.434-.982-1.151-1.653-.904-.59.216-.722 1.132-.684 1.662.072 1.38 1.129 2.428 2.166 3.223a.36.36 0 0 1 .001.51.362.362 0 0 1-.511 0c-.847-.652-1.656-1.484-2.077-2.463l-1.013.988a5.624 5.624 0 0 1-1.718 2.723l.05.032c1.425.848 2.785 1.799 4.07 2.845a33.14 33.14 0 0 1 3.253 3.04.374.374 0 0 1 .149.048c.13.076.254.16.373.252.074-.379.21-.743.402-1.077a.366.366 0 0 1 .48-.13.305.305 0 0 1 .06.05h.013c.398.295.849.51 1.328.636.479.165.992.203 1.49.11h.01zm18.72 15.367 2.961-4a.285.285 0 0 0 .034-.285.281.281 0 0 0-.24-.173l-1.382-.163a.964.964 0 0 0-.868.358l-3.45 4.388.767-.146c.568-.104 1.68-.464 2.168.021h.01zm-11.057 7.352c.145.326.284.655.421.986 1.057-.293 2.2-.223 3.263-.497 1.283-.329 2.166-1.54 3.142-2.344a.289.289 0 0 1 .171-.103c.614-.103 1.008-.624 1.338-1.106.128-.185.24-.37.375-.555-.784.48-1.626.869-2.377 1.334-.394.24-.758-.376-.363-.62 1.203-.745 2.673-1.294 3.676-2.31-.072.042-.144.085-.219.123a8.253 8.253 0 0 1-2.868.869c-.46.055-.457-.665 0-.72a7.188 7.188 0 0 0 2.257-.66c.193-.09 1.872-1.024 1.706-1.228-.125-.154-.659 0-.796.029l-1.355.256-1.044.2h-.017l-1.766.335a.388.388 0 0 1-.452-.312c-2.356.833-4.5 2.383-6.203 4.168.072.13.147.26.216.389.318.579.613 1.167.886 1.766h.01zm-2.011-3.537c.265.077.423.48.556.72.14-.144.281-.286.426-.425a.371.371 0 0 1-.034-.117c-.16-1.469-.33-2.938-.508-4.408l-.24-2.145c-.077-.667-.109-1.344-.506-1.92-.364-.47-.752-.921-1.162-1.353-.38-.444-.757-.891-1.13-1.34-.8-.96-1.586-1.935-2.38-2.902a139.596 139.596 0 0 0-1.72-2.063c.115.406.24.806.38 1.2.22.788.517 1.552.887 2.281a34.414 34.414 0 0 1 3.302 7.743c.428 1.544.742 3.117.938 4.707.034.26-.18.37-.385.339l.082.158c.24-.1.498-.204.75-.302.188-.05.506-.24.734-.173h.01zm-16.602-10.88c.986 1.648 1.444 3.598 1.684 5.482.24 1.734.368 3.483.47 5.23.108 1.81.173 3.625.168 5.437h.159l.16-.031c.241-.05.482-.113.703-.178.638-.185 1.268-.4 1.894-.624 1.602-.57 3.186-1.2 4.764-1.838 1.314-.53 2.625-1.072 3.934-1.612a.36.36 0 0 1-.11-.12c-2.075-3.599-4.834-6.718-7.78-9.638-1.487-1.47-3.024-2.891-4.571-4.319-.722-.671-1.53-1.312-2.166-2.08a3.724 3.724 0 0 1-.697-1.183 2.29 2.29 0 0 1-.113-.611c-.004-.12.003-.24.019-.358.021-.158.04-.185-.101-.269a3.254 3.254 0 0 1-1.516-2.049c-.147-.599-.246-1.208-.296-1.823a22.584 22.584 0 0 1-1.903 2.946c-.556.751-1.182 1.452-1.735 2.205-.22.3-.421.612-.604.936 3.077.201 6.022 1.823 7.62 4.496h.017z"/>
            </g>
        </g>
        <g fill="navy">
            <path d="M290.53 70.325c-.505-.22-1.038-.408-1.528-.664a1.017 1.017 0 0 1-.547-1.236c.207-.812.456-1.62.687-2.426a.362.362 0 0 1 .697.192c-.2.693-.39 1.388-.588 2.081-.044.15-.184.433-.114.588.07.156.241.19.355.24.463.207.935.4 1.403.602.171.101.23.32.13.492a.376.376 0 0 1-.494.131zM289.362 71.872c.912.257 1.879.257 2.791 0a.36.36 0 0 1 .193.693c-1.039.289-2.138.289-3.177 0a.36.36 0 0 1 .193-.693zM292.06 65.803c.062-.592-.017-1.195.13-1.78a.362.362 0 0 1 .696.191c-.014.065-.028.13-.04.196a.42.42 0 0 1 0 .05v.108a6.925 6.925 0 0 0-.02.447c0 .265 0 .53-.026.793a.367.367 0 0 1-.362.359.366.366 0 0 1-.268-.102.36.36 0 0 1-.11-.262zM288.34 63.83c0 .028 0 .059-.015.088v.05a5.545 5.545 0 0 0-.027.399c-.004.286.01.571.039.856a.36.36 0 0 1-.362.358.37.37 0 0 1-.361-.358 5.521 5.521 0 0 1 .072-1.78.363.363 0 0 1 .7.19.527.527 0 0 0-.047.196zM298.386 87.897a14.786 14.786 0 0 1 3-1.912 13.54 13.54 0 0 1 3.45-.978 39.69 39.69 0 0 1 4.052-.36c.463-.024.463.693 0 .716-2.302.122-4.667.24-6.832 1.112a12.934 12.934 0 0 0-2.978 1.778c-.986.75-1.929 1.546-2.893 2.326l-3.417 2.777c-.357.291-.87-.213-.51-.507 2.027-1.65 4.038-3.339 6.128-4.952z"/>
            <path d="M279.447 77.682c.125.946.303 1.884.533 2.81.188.835.319 1.682.39 2.534.068.825.112 1.652.153 2.476.103 2.23.17 4.468.202 6.711.032 1.958.08 3.922 0 5.882l-.723-.181c.065-1.434.026-2.868 0-4.303a243.11 243.11 0 0 0-.162-6.589c-.06-1.673-.11-3.346-.313-4.993V81.91c0-.055-.017-.108-.024-.163-.053-.298-.12-.595-.188-.891-.196-.884-.41-1.766-.538-2.665a12.38 12.38 0 0 1-.048-2.706 7.45 7.45 0 0 0-.36-2.703 15.769 15.769 0 0 0-2.516-4.978c-.114-.153-.606-.956-.842-.734-.309.28.118 1.076.227 1.374.325.894.701 1.769 1.075 2.644a.41.41 0 0 1 .027.088l1.465 1.33c.343.312-.168.819-.513.506l-4.822-4.384c-.654-.592-1.333-1.305-2.228-1.517-.277-.067-.803-.108-.897.253-.11.44.393.796.692 1.016a7.78 7.78 0 0 1 2.088 2.242v.019l.588.265c.172.1.23.319.13.49a.37.37 0 0 1-.494.13l-2.023-.909a3.635 3.635 0 0 0-.986-.392.64.64 0 0 0-.573.306c-.116.155-.31.459-.242.66.07.127.163.24.275.332.115.119.237.231.364.337.241.193.536.332.67.616a.616.616 0 0 1-.221.794.308.308 0 0 1-.263.055 1.532 1.532 0 0 1-.682-.05.865.865 0 0 1-.297.564.948.948 0 0 1-.357.186c0 .014 0 .026.017.043.017.017 0 .026.012.04.014.026.03.051.046.075a.8.8 0 0 0 .101.1c.05.034.102.064.157.089.194.065.394.111.598.136a.359.359 0 0 1 .229.191.351.351 0 0 1-.176.579 1.305 1.305 0 0 0-.88.68c-.198.414.482.997.723 1.27.944 1.026 1.898 2.04 2.862 3.042.265.275.552.543.825.822.072.041.13.102.168.175.136.143.263.294.381.452.321.427.377.92.405 1.434.015.296 0 .597 0 .894-.024 2.734-.106 5.466-.159 8.197-.019.956-.123 2.051-.067 3.014l-.7-.37c-.021-.717.025-1.532.037-2.256.026-1.51.062-3.021.094-4.541.026-1.313.058-2.63.07-3.937 0-.327.014-.657 0-.985a3.61 3.61 0 0 0-.032-.427 1.299 1.299 0 0 0-.28-.67c-.595 1.009-1.535 1.836-2.41 2.594-1.23 1.075-2.435 2.177-3.802 3.085l-.034.017c-.241.76-.509 1.73-.704 2.502l-.598-.49a46.458 46.458 0 0 1 3.525-9.369 7.612 7.612 0 0 0-1.119.039c-.39.076-.762.227-1.155.289-1.22.193-2.223-.555-2.79-1.549a22.127 22.127 0 0 0-1.42 3.231c-.352.998-.823 1.95-1.403 2.837l-.053.055-.482-.626a24.209 24.209 0 0 0 1.468-3.054c.437-1.14.957-2.247 1.555-3.313a.526.526 0 0 1 .041-.06.51.51 0 0 1 0-.172 2.343 2.343 0 0 0-.161-1.008 6.329 6.329 0 0 1-.22-1.019 10.603 10.603 0 0 1 .032-2.177.349.349 0 0 1 .029-.115 1.35 1.35 0 0 1 .17-1.4c.351-.412.866-.65 1.409-.655.034-.243.116-.477.241-.688 0-.368.27-.717.526-.985a1.534 1.534 0 0 1 1.152-.535.326.326 0 0 1 .273.014c-.02-1.353-.068-4.761-.068-6.828 0-1.052.265-1.738.79-2.04.62-.358 1.334 0 1.448.053.383.18 3.327 1.544 3.97 2.056.524.416.598 1.886.661 4.261.012.529.027 1.03.05 1.434.42.39.835.784 1.254 1.167l.483.432a40.363 40.363 0 0 1-.422-1.058c-.265-.7-.806-1.721-.2-2.39a.861.861 0 0 1 1.048-.192c.327.222.603.51.81.844.476.613.906 1.26 1.288 1.933.895 1.607 1.71 3.507 1.844 5.376.056.779-.057 1.556-.062 2.335 2.48-1.336 5.545-1.996 8.35-1.487a5.816 5.816 0 0 1-.55-1.29 25.88 25.88 0 0 1-.893-5.328 45.1 45.1 0 0 1-.11-4.976c.024-.81.07-1.62.163-2.426.04-.473.12-.943.242-1.403a3.796 3.796 0 0 1-.336-1.61c-.05-1.435.456-2.818 1.167-4.037a16.363 16.363 0 0 1 2.749-3.418 10.135 10.135 0 0 1 3.706-2.39c1.497-.524 3.134-.717 4.699-.844a16.536 16.536 0 0 1 4.877.258 10.25 10.25 0 0 1 3.89 1.726 8.62 8.62 0 0 1 2.557 3.107c1.283 2.595 1.495 5.59 1.546 8.434.031 1.692-.022 3.382-.075 5.074-.05 1.63-.142 3.275.046 4.9.164 1.434.702 2.741 1.234 4.063.273.686.656 1.833.849 2.545a63.886 63.886 0 0 1 1.42 6.532c.104.627.181 1.255.241 1.886.044.418.063.84.056 1.26l-.924 1.1a.368.368 0 0 1-.014-.075 5.71 5.71 0 0 0-.523-1.195c-.22-.418-.461-.824-.724-1.217a3.81 3.81 0 0 0-1.1-1.082 3.574 3.574 0 0 0-.908-.411c-.335-.096-.685-.12-1.018-.223-1.133-.349-1.49-1.553-2.297-2.292-.873-.798-2.04-1.195-3.135-1.615a23.006 23.006 0 0 1-.764-.301c-2.078 2.02-4.935 2.925-7.807 3.009-1.398.04-2.939 0-4.24-.574-1.064-.461-2.115-1.484-2.106-2.715a3.41 3.41 0 0 1 1.121-2.41l-.07-.014a4.921 4.921 0 0 1-2.268-1.168c-2.973-.827-6.373-.125-9.003 1.384l-.01.002zm-10.878-5.206c.058 0 .116.016.166.046.034.019.07.036.106.052.046.018.092.031.14.041h-.014a5.9 5.9 0 0 1-.432-.344l-.05-.048c.04.079.067.16.084.253zm-2.004 14.164c1.04-.767 2.004-1.633 2.968-2.479.88-.77 1.835-1.599 2.394-2.645-.38-.39-.766-.777-1.145-1.172l-.169-.179h-.058c-.469.01-.936.064-1.395.158a.346.346 0 0 1-.022.287 44.316 44.316 0 0 0-2.563 6.03h-.01zm-2.336-14.204h-.039l-.077.014c-.048 0-.099.022-.147.036a.485.485 0 0 0-.145.05l.04-.017-.047.022-.067.036c-.04.021-.079.045-.116.071h-.014l-.051.044a1.348 1.348 0 0 0-.099.105l-.039.057-.036.062v.02c0 .04-.029.078-.04.119l-.015.07a.888.888 0 0 0 0 .138v.026c.13-.01.256.05.328.158.373.512.813.974 1.307 1.374.24.208.482.423.737.61.051.035.222.172.29.124a.259.259 0 0 0 .031-.1.813.813 0 0 0 .031-.254c0 .012-.07-.12-.07-.12-.04-.078-.086-.157-.132-.238a13.304 13.304 0 0 0-.535-.837c-.372-.504-.758-1.025-1.095-1.57zm.803-.667c0 .02 0 .038-.012.057-.01.103-.01.206 0 .309.01.065.026.13.046.193.004.03.004.061 0 .091.258.387.53.762.795 1.145.174.253.345.509.507.772.19.245.326.528.397.83.014.22-.016.442-.089.652a.757.757 0 0 1-.692.478 1.305 1.305 0 0 1-.849-.376 14.745 14.745 0 0 1-.69-.57 9.228 9.228 0 0 1-1.06-1.055 8.013 8.013 0 0 0 .012 1.831c.111.734.463 1.396.347 2.151a.306.306 0 0 1-.014.05c.029.033.052.071.067.113a2.72 2.72 0 0 0 1.056 1.35c.596.373 1.167.27 1.814.086a4.291 4.291 0 0 1 1.027-.184c.325 0 .646.019.964-.014.436-.046.868-.141 1.304-.192-.28-.296-.561-.59-.839-.889-.499-.54-1.075-1.07-1.473-1.69-.31-.477-.398-1-.043-1.484.114-.156.246-.3.393-.428-.036-.016-.073-.03-.106-.05a1.159 1.159 0 0 1-.557-.688.37.37 0 0 1 .026-.253 1.142 1.142 0 0 1-.24-.094 2.928 2.928 0 0 1-.912-.872 9.28 9.28 0 0 0-.7-.891 3.754 3.754 0 0 0-.484-.378h.005zm1.929-.99a1.487 1.487 0 0 0-.581-.55.372.372 0 0 1-.135 0c-.26-.059-.502.175-.668.347-.115.105-.21.23-.278.368-.033.096 0 .127.08.19.24.16.469.338.682.532.209.227.402.466.579.717.165.24.351.465.557.672.154.15.441.387.673.258.231-.13.055-.516 0-.681a5.726 5.726 0 0 0-.403-.935 9.775 9.775 0 0 0-.518-.918h.012zm5.644-3.747c-.031-1.195-.09-3.423-.39-3.719-.483-.39-2.935-1.554-3.834-1.97l-.027-.011s-.448-.24-.75-.067c-.301.172-.429.664-.429 1.42 0 2.416.065 6.677.077 7.313.233.257.432.543.591.85a1.99 1.99 0 0 1 .711-1.09c.656-.491 1.353-.123 2.006.168l.28.127c-.099-.115-.203-.24-.311-.337-.383-.351-.785-.68-1.206-.987a1.67 1.67 0 0 1-.706-1.281c.004-.453.293-.855.723-1.006.924-.342 1.93.239 2.628.795.217.17.43.35.637.529 0-.235-.007-.478-.012-.734h.012zm17.745 9.572c1.63.564 3.419.461 5.111.33.466-.036.463.681 0 .717a18.57 18.57 0 0 1-3.616 0 .35.35 0 0 1-.186.131c-.38.13-.656.512-.848.844-.228.37-.362.789-.391 1.221-.027 1.05 1.005 1.864 1.91 2.19 1.205.43 2.56.454 3.819.41a12.636 12.636 0 0 0 3.746-.68 9.42 9.42 0 0 0 3.243-1.932 6.809 6.809 0 0 1-1.538-.982c-.924-.83-1.317-1.948-1.447-3.152-.137-1.399-.017-2.809-.091-4.212-.051-.977-.222-1.95-.34-2.923-.133-1.082-.275-2.167-.511-3.233-.176-.792-.384-1.714-.885-2.39a6.283 6.283 0 0 1-.81-.134c-.427-.067-.856-.134-1.283-.206a104.675 104.675 0 0 1-7.395-1.513c-.516-.124-1.162-.208-1.654-.492a15.146 15.146 0 0 0-.24 2.56c-.08 1.698-.065 3.399.045 5.095a26.5 26.5 0 0 0 .723 5.074c.132.583.34 1.146.622 1.673a3.61 3.61 0 0 0 2.004 1.604h.012z"/>
        </g>
        <g>
            <g fill="#FF5E59" fill-rule="nonzero">
                <path d="M259.04 89.642a.349.349 0 0 0 .207-.067l.588-.417a.359.359 0 1 0-.417-.585l-.586.415a.361.361 0 0 0-.087.503c.069.094.179.15.296.15zM207.01 126.552a.375.375 0 0 0 .208-.065l1.131-.802a.36.36 0 1 0-.418-.587l-1.13.803a.359.359 0 0 0 .208.651zm2.261-1.605a.37.37 0 0 0 .209-.064l1.13-.803a.36.36 0 1 0-.417-.587l-1.13.803a.359.359 0 0 0 .208.651zm2.262-1.6a.37.37 0 0 0 .209-.065l1.13-.802a.36.36 0 1 0-.417-.587l-1.13.803a.359.359 0 0 0 .208.651zm2.262-1.605a.37.37 0 0 0 .209-.064l1.13-.803a.36.36 0 1 0-.417-.587l-1.131.803a.359.359 0 0 0 .209.651zm2.264-1.605a.363.363 0 0 0 .207-.064l1.126-.798a.359.359 0 0 0-.416-.587l-1.133.803a.359.359 0 0 0 .211.651l.005-.005zm2.262-1.605a.363.363 0 0 0 .207-.064l1.13-.803a.359.359 0 1 0-.415-.587l-1.13.803a.359.359 0 0 0-.087.5c.07.093.179.148.295.147v.004zm2.262-1.605a.375.375 0 0 0 .209-.064l1.13-.803a.36.36 0 1 0-.417-.587l-1.13.803a.359.359 0 0 0-.087.5c.07.093.179.148.295.147v.004zm2.262-1.604a.375.375 0 0 0 .209-.065l1.13-.803a.36.36 0 1 0-.417-.586l-1.13.802a.359.359 0 0 0-.087.5c.07.093.179.148.295.147v.005zm2.262-1.605a.375.375 0 0 0 .209-.065l1.13-.802a.36.36 0 1 0-.417-.587l-1.131.802a.359.359 0 0 0 .209.652zm2.262-1.605a.358.358 0 0 0 .209-.065l1.13-.802a.36.36 0 1 0-.417-.587l-1.131.802a.357.357 0 0 0-.084.5.35.35 0 0 0 .293.147v.005zm2.262-1.605a.37.37 0 0 0 .209-.065l1.13-.802a.36.36 0 1 0-.417-.587l-1.131.802a.359.359 0 0 0 .209.652zm2.262-1.605a.37.37 0 0 0 .209-.065l1.138-.807a.36.36 0 1 0-.418-.587l-1.131.803a.359.359 0 0 0 .209.651l-.007.005zm2.262-1.605a.351.351 0 0 0 .208-.067l1.131-.802a.36.36 0 1 0-.417-.587l-1.131.802a.359.359 0 0 0-.084.5.358.358 0 0 0 .293.154zm2.264-1.605a.349.349 0 0 0 .206-.067l1.131-.802a.359.359 0 1 0-.415-.587l-1.133.802a.361.361 0 0 0 .21.654zm2.262-1.607a.346.346 0 0 0 .206-.065l1.131-.795a.359.359 0 1 0-.415-.587l-1.131.802a.359.359 0 0 0 .209.652v-.007zm2.262-1.603a.36.36 0 0 0 .209-.067l1.13-.802a.36.36 0 1 0-.417-.587l-1.131.802a.359.359 0 0 0 .209.654zm2.262-1.605a.36.36 0 0 0 .209-.067l1.13-.802a.36.36 0 1 0-.417-.587l-1.131.802a.359.359 0 0 0 .209.654zm2.262-1.605a.36.36 0 0 0 .208-.067l1.131-.802a.36.36 0 1 0-.417-.587l-1.131.803a.357.357 0 0 0-.084.5.353.353 0 0 0 .293.151v.002zm2.262-1.604a.356.356 0 0 0 .208-.067l1.131-.803a.36.36 0 1 0-.417-.587l-1.131.803a.358.358 0 0 0 .209.652v.002zm2.261-1.605a.356.356 0 0 0 .21-.067l1.13-.803a.361.361 0 1 0-.418-.592l-1.13.803a.361.361 0 0 0 .208.656v.003zm2.262-1.605a.356.356 0 0 0 .21-.067l1.13-.803a.36.36 0 1 0-.418-.587l-1.13.803a.359.359 0 0 0 .208.651v.003zM205.29 127.771a.351.351 0 0 0 .209-.067l.588-.414a.36.36 0 1 0-.418-.587l-.588.417a.359.359 0 0 0 .209.651zM222.915 62.265c.135 0 .26-.076.321-.197l.327-.64a.362.362 0 0 0-.644-.328l-.326.643a.359.359 0 0 0 .322.522zM254.514 92.851a.351.351 0 0 0 .21-.067l1.13-.802a.36.36 0 1 0-.418-.587l-1.13.803a.361.361 0 0 0 .208.653zm2.257-1.602a.349.349 0 0 0 .207-.067l1.13-.803a.359.359 0 1 0-.415-.586l-1.133.802a.361.361 0 0 0 .211.654zM220.343 67.326a.36.36 0 0 0 .32-.194l.645-1.274a.36.36 0 0 0-.641-.328l-.646 1.267a.359.359 0 0 0 .159.479c.05.03.105.047.163.05zm1.292-2.532c.135 0 .26-.076.322-.196l.645-1.267a.361.361 0 0 0-.644-.326l-.645 1.267a.357.357 0 0 0 .159.48c.05.027.106.042.163.042zM181.686 67.894a.36.36 0 0 0 .358-.326l.137-1.39a.36.36 0 0 0-.51-.362.361.361 0 0 0-.21.293l-.137 1.39a.36.36 0 0 0 .321.393l.041.002zm.274-2.781c.185 0 .34-.14.358-.323l.137-1.39a.36.36 0 0 0-.51-.363.361.361 0 0 0-.21.294l-.138 1.389a.36.36 0 0 0 .322.393h.04zM239.183 136.797a.363.363 0 0 0 .11-.017l1.266-.402a.36.36 0 1 0-.221-.685l-1.266.402a.36.36 0 0 0-.24.453.358.358 0 0 0 .35.25zm2.53-.807a.354.354 0 0 0 .111-.017l1.26-.41a.36.36 0 1 0-.218-.684l-1.268.402a.36.36 0 0 0 .11.702l.006.007zM193.205 120.535c.136 0 .26-.075.321-.196l.646-1.268a.36.36 0 0 0-.641-.326l-.646 1.268a.356.356 0 0 0 .32.522zm1.292-2.534a.355.355 0 0 0 .321-.194l.646-1.268a.359.359 0 0 0-.337-.537.36.36 0 0 0-.304.212l-.646 1.264a.356.356 0 0 0 .32.523zm1.284-2.532a.358.358 0 0 0 .32-.197l.655-1.267a.359.359 0 0 0-.337-.537.36.36 0 0 0-.304.211l-.646 1.267a.357.357 0 0 0 .158.48.33.33 0 0 0 .154.043zm1.292-2.535a.358.358 0 0 0 .32-.196l.648-1.267a.361.361 0 0 0-.644-.326l-.646 1.267a.359.359 0 0 0 .322.522zm1.301-2.522c.136 0 .26-.076.322-.196l.646-1.268a.361.361 0 0 0-.644-.326l-.645 1.268a.359.359 0 0 0 .321.522zm1.292-2.534c.136 0 .26-.076.322-.197l.646-1.264a.36.36 0 0 0-.341-.523.36.36 0 0 0-.303.197l-.645 1.267a.356.356 0 0 0 .321.52zm1.292-2.532c.136 0 .26-.076.322-.197l.646-1.267a.359.359 0 0 0-.338-.537.36.36 0 0 0-.303.211l-.646 1.268a.354.354 0 0 0 .156.479.337.337 0 0 0 .163.03v.013zm1.292-2.535c.136.001.26-.075.322-.196l.653-1.28a.359.359 0 0 0-.337-.536.36.36 0 0 0-.304.211l-.646 1.267a.356.356 0 0 0 .32.522l-.008.012zm1.292-2.534c.136.001.26-.075.322-.196l.645-1.267a.354.354 0 0 0-.156-.48.36.36 0 0 0-.48.156l-.646 1.267a.359.359 0 0 0 .159.48c.049.02.102.03.156.028v.012zm1.294-2.532a.358.358 0 0 0 .32-.196l.648-1.267a.36.36 0 0 0-.341-.523.36.36 0 0 0-.303.197l-.646 1.265a.363.363 0 0 0 .322.524zm1.292-2.534c.135 0 .26-.077.322-.197l.646-1.267a.36.36 0 0 0-.342-.522.36.36 0 0 0-.302.197l-.646 1.267a.359.359 0 0 0 .159.479.337.337 0 0 0 .163.03v.013zm1.292-2.534c.135 0 .26-.076.321-.197l.646-1.267a.361.361 0 0 0-.644-.326l-.645 1.267a.359.359 0 0 0 .322.523zm1.292-2.535c.135 0 .26-.076.321-.196l.646-1.267a.36.36 0 0 0-.641-.326l-.646 1.267a.356.356 0 0 0 .32.522zm1.291-2.534a.355.355 0 0 0 .322-.194l.646-1.267a.359.359 0 0 0-.337-.537.36.36 0 0 0-.304.211l-.646 1.265a.356.356 0 0 0 .32.522zm1.292-2.532c.136 0 .26-.075.322-.196l.646-1.268a.359.359 0 0 0-.337-.537.36.36 0 0 0-.304.212l-.646 1.267a.357.357 0 0 0 .158.479c.05.024.106.034.161.031v.012zm1.294-2.546a.358.358 0 0 0 .32-.197l.641-1.267a.359.359 0 0 0-.337-.537.36.36 0 0 0-.304.211l-.646 1.268a.359.359 0 0 0 .158.479c.052.028.11.042.168.043zm1.292-2.54c.136 0 .26-.076.322-.196l.646-1.267a.361.361 0 0 0-.644-.326l-.645 1.267a.359.359 0 0 0 .321.523zm1.292-2.531a.36.36 0 0 0 .322-.2l.646-1.264a.361.361 0 0 0-.644-.326l-.646 1.268a.359.359 0 0 0 .159.479c.05.028.106.045.163.047v-.004zm1.292-2.535c.136 0 .26-.076.322-.196l.646-1.267a.359.359 0 0 0-.338-.537.36.36 0 0 0-.303.211l-.646 1.267c-.09.176-.02.39.156.48.05.029.105.045.163.047v-.005zm1.292-2.534c.136 0 .26-.075.322-.196l.646-1.268a.359.359 0 0 0-.338-.537.36.36 0 0 0-.304.212l-.645 1.267a.356.356 0 0 0 .319.522zm1.292-2.534c.136 0 .26-.076.321-.197l.646-1.267a.36.36 0 0 0-.641-.326l-.646 1.268a.359.359 0 0 0 .159.479.354.354 0 0 0 .16.048v-.005zM192.232 122.442c.135 0 .26-.075.322-.194l.327-.642a.359.359 0 0 0-.338-.537.36.36 0 0 0-.304.21l-.329.64a.359.359 0 0 0 .322.523zM182.234 62.334a.36.36 0 0 0 .357-.323l.072-.719a.361.361 0 0 0-.72-.07l-.07.72a.362.362 0 0 0 .322.392h.039zM176.759 117.924a.362.362 0 0 0 .36-.326l.137-1.39a.361.361 0 0 0-.72-.069l-.137 1.39a.359.359 0 0 0 .324.393l.036.002zm.274-2.781c.185 0 .34-.14.36-.323l.134-1.39a.36.36 0 0 0-.509-.365.361.361 0 0 0-.211.293l-.137 1.392a.362.362 0 0 0 .324.393h.039zm.273-2.779c.186 0 .341-.14.36-.323l.135-1.39a.36.36 0 0 0-.509-.364.361.361 0 0 0-.211.293l-.137 1.389a.359.359 0 0 0 .324.393l.038.002zm.274-2.778c.186 0 .342-.141.358-.326l.137-1.39a.36.36 0 0 0-.51-.363.361.361 0 0 0-.21.294l-.137 1.39a.359.359 0 0 0 .324.392l.038.003zm.274-2.781c.185 0 .34-.14.358-.324l.137-1.39a.361.361 0 0 0-.72-.069l-.138 1.39a.359.359 0 0 0 .324.393h.039zm.274-2.78a.357.357 0 0 0 .365-.32l.136-1.392a.36.36 0 0 0-.321-.393.365.365 0 0 0-.394.324l-.137 1.39a.359.359 0 0 0 .324.392h.027zm.273-2.778c.186.001.342-.14.358-.325l.137-1.39a.36.36 0 0 0-.51-.363.361.361 0 0 0-.21.294l-.137 1.389a.36.36 0 0 0 .322.393l.04.002zm.274-2.78c.185 0 .34-.14.358-.324l.137-1.39a.36.36 0 0 0-.51-.363.361.361 0 0 0-.21.294l-.137 1.39a.359.359 0 0 0 .324.392h.038zm.274-2.78c.185.001.34-.139.358-.323l.136-1.392a.361.361 0 0 0-.72-.069l-.137 1.39a.36.36 0 0 0 .322.392l.04.003zm.264-2.778c.186 0 .342-.141.358-.326l.137-1.39a.356.356 0 0 0-.322-.392.365.365 0 0 0-.394.323l-.137 1.39a.359.359 0 0 0 .324.393l.034.002zm.274-2.781a.355.355 0 0 0 .357-.323l.137-1.39a.36.36 0 0 0-.51-.363.361.361 0 0 0-.21.294l-.137 1.39a.36.36 0 0 0 .322.392h.04zm.273-2.779c.186.001.34-.14.358-.323l.137-1.39a.361.361 0 0 0-.72-.071l-.137 1.389a.36.36 0 0 0 .322.393l.04.002zm.274-2.778c.186 0 .342-.141.358-.326l.137-1.39a.36.36 0 0 0-.51-.363.361.361 0 0 0-.21.294l-.137 1.39a.36.36 0 0 0 .321.392l.041.003zm.274-2.781a.355.355 0 0 0 .358-.324l.137-1.39a.361.361 0 0 0-.72-.069l-.138 1.39a.36.36 0 0 0 .322.393h.04zm.274-2.78a.36.36 0 0 0 .357-.322l.137-1.39a.361.361 0 0 0-.72-.072l-.137 1.39a.36.36 0 0 0 .322.393l.04.002zm.273-2.778c.186.001.342-.14.358-.326l.137-1.389a.36.36 0 0 0-.51-.363.361.361 0 0 0-.21.294l-.137 1.389a.36.36 0 0 0 .322.393l.04.002zm.279-2.778a.36.36 0 0 0 .358-.326l.137-1.39a.36.36 0 0 0-.51-.363.361.361 0 0 0-.21.294l-.138 1.39a.36.36 0 0 0 .322.392l.04.003zm.274-2.781a.36.36 0 0 0 .357-.324l.137-1.39a.361.361 0 0 0-.72-.071l-.137 1.392a.356.356 0 0 0 .322.39l.04.003zM176.552 120.027a.36.36 0 0 0 .358-.323l.072-.719a.36.36 0 0 0-.51-.363.361.361 0 0 0-.21.294l-.07.718a.36.36 0 0 0 .322.393h.038zM244.244 135.183a.354.354 0 0 0 .11-.017l.688-.218a.36.36 0 1 0-.221-.685l-.685.22a.357.357 0 0 0 .108.7zM201.213 148.901a.34.34 0 0 0 .108-.017l1.265-.404a.36.36 0 1 0-.218-.683l-1.266.402a.36.36 0 0 0 .11.702zm2.53-.807a.364.364 0 0 0 .111-.017l1.265-.405a.36.36 0 1 0-.22-.682l-1.266.402a.36.36 0 0 0 .11.702zm2.531-.807a.354.354 0 0 0 .11-.017l1.266-.403a.36.36 0 1 0-.218-.685l-1.268.403a.36.36 0 0 0 .11.702zm2.531-.808a.354.354 0 0 0 .11-.016l1.273-.403a.36.36 0 1 0-.218-.685l-1.266.403a.36.36 0 0 0 .108.701h-.007zm2.531-.804a.347.347 0 0 0 .11-.02l1.266-.402a.36.36 0 1 0-.219-.685l-1.265.405a.36.36 0 0 0 .108.702zm2.533-.808a.342.342 0 0 0 .108-.019l1.254-.402a.36.36 0 1 0-.219-.685l-1.265.404a.36.36 0 0 0 .11.702h.012zm2.531-.807a.363.363 0 0 0 .11-.017l1.266-.405a.358.358 0 0 0 .24-.45.362.362 0 0 0-.454-.24l-1.265.405a.36.36 0 0 0 .11.702l-.007.005zm2.531-.807a.354.354 0 0 0 .11-.017l1.266-.405a.36.36 0 1 0-.219-.682l-1.265.402a.36.36 0 0 0 .108.702zm2.53-.807a.354.354 0 0 0 .111-.017l1.266-.398a.36.36 0 1 0-.219-.685l-1.265.402a.36.36 0 0 0 .108.702v-.004zm2.534-.808a.34.34 0 0 0 .108-.016l1.266-.403a.36.36 0 1 0-.219-.685l-1.265.402a.36.36 0 0 0 .11.702zm2.521-.805a.34.34 0 0 0 .108-.016l1.268-.403a.36.36 0 1 0-.22-.685l-1.266.403a.362.362 0 0 0-.24.452.358.358 0 0 0 .35.25zm2.531-.807a.354.354 0 0 0 .11-.017l1.266-.402a.36.36 0 1 0-.218-.685l-1.268.405a.36.36 0 0 0 .11.7zm2.531-.805a.44.44 0 0 0 .11-.016l1.266-.405a.36.36 0 1 0-.219-.685l-1.265.404a.36.36 0 0 0-.24.45c.05.154.196.255.358.25l-.01.002zm2.531-.807a.344.344 0 0 0 .11-.017l1.266-.404a.36.36 0 1 0-.219-.686l-1.265.405a.36.36 0 0 0 .108.702zm2.533-.807a.34.34 0 0 0 .108-.017l1.266-.405a.36.36 0 1 0-.219-.682l-1.265.402a.36.36 0 0 0 .11.702zM199.26 149.524a.424.424 0 0 0 .109-.017l.686-.22a.36.36 0 1 0-.218-.685l-.687.22a.36.36 0 0 0 .11.702z"/>
            </g>
            <path d="M236.193 36.775a.44.44 0 0 0 .212-.052.48.48 0 0 0 .204-.24c.18-.55.3-1.117.353-1.693.084-.79.093-1.917-.341-2.858-.469-1.006-1.441-1.562-2.207-1.267a1.2 1.2 0 0 0-.62.565 1.391 1.391 0 0 0-.895.02c-.347.14-.62.417-.754.766a2.311 2.311 0 0 0 .12 1.808c.147.313.337.603.564.863.442.496.96.92 1.534 1.257l.05.031a9.519 9.519 0 0 0 1.569.75l.07.022c.024.007.049.012.074.014l.067.014zm-1.337-5.463c.384 0 .855.38 1.111.931.365.784.351 1.783.277 2.482-.046.422-.121.841-.226 1.253a8.874 8.874 0 0 1-1.232-.609l-.046-.028a5.611 5.611 0 0 1-1.363-1.112 3.14 3.14 0 0 1-.459-.697 1.611 1.611 0 0 1-.103-1.236.628.628 0 0 1 .343-.369.81.81 0 0 1 .646.089.375.375 0 0 0 .32.024.36.36 0 0 0 .215-.24.635.635 0 0 1 .334-.462.525.525 0 0 1 .183-.026z" fill="#FF5E59"/>
            <path d="M236.268 48.611c-.392-.383-.944-.973-.96-1.552-.018-.58.393-1.057.775-1.437.751-.719 1.84-1.198 2.144-2.286a.341.341 0 0 1 .41-.24.372.372 0 0 1 .272.154c.72 1.006 1.484 2.096 1.56 3.375.06.975-.39 2.05-1.24 2.575-1.007.637-2.181.182-2.961-.589zm3.486-1.794c.012-.98-.526-1.87-1.088-2.671a4.6 4.6 0 0 1-1.243 1.308c-.331.24-.643.504-.934.79a2.437 2.437 0 0 0-.368.48c-.168.301-.048.507.135.768.5.719 1.39 1.557 2.343 1.227.757-.256 1.146-1.148 1.155-1.893v-.01zM230.322 38.653a.365.365 0 0 1-.451-.148l-1.44-2.338a.361.361 0 0 1 .129-.491.344.344 0 0 1 .158-.046l.044-.024a.368.368 0 0 1 .45.147c.512.75.941 1.553 1.28 2.395.013.029.027.057.037.086a.354.354 0 0 1-.207.42zM247.606 34.88a.367.367 0 0 1 .36-.359l.12-.012h.041a2.1 2.1 0 0 0 .24-.052c.072-.022.154-.043.228-.07l.113-.04h.027l.038-.02c.146-.067.286-.147.418-.24l.096-.066.046-.036c.065-.055.128-.112.187-.173a.36.36 0 0 1 .5.01.359.359 0 0 1 .009.498 3.315 3.315 0 0 1-2.094.942.362.362 0 0 1-.329-.381z" fill="navy"/>
            <path d="M210.217 36.84a31.271 31.271 0 0 1 3.588-4.072c.656-.664 1.36-1.28 2.105-1.842.195-.144.394-.283.593-.422a3.305 3.305 0 0 1 .07-1.509c.151-.482.427-.916.8-1.257a1.195 1.195 0 0 1 .052-.872c.148-.395.367-.76.646-1.076.62-.733 1.41-1.339 2.125-1.976l1.187-1.054c.324-.323.71-.578 1.135-.75 1.007-.342 1.75.427 2.3 1.157l.135-.072.843-.438c.255-.166.534-.29.828-.366.565-.09 1.172.33 1.667.55l.098.044c1.24-1.018 2.728-1.677 4.14-2.42a16.17 16.17 0 0 0 2.115-1.272c.75-.553 1.27-1.293 1.921-1.942a.363.363 0 0 1 .513-.004c.143.14.144.37.004.511-.365.365-.673.777-1.026 1.15a7.215 7.215 0 0 1-.905.805c-.66.486-1.36.917-2.091 1.289-1.314.694-2.728 1.3-3.92 2.204l.767.333c1.258.54 2.519 1.077 3.739 1.698h.014a.204.204 0 0 1 .04-.015.363.363 0 0 1 .044-.021c.62-.259 1.34.548 1.7.932.091.098.18.203.269.306-.175-.479-.293-1.03-.029-1.46a.338.338 0 0 1 .204-.159.58.58 0 0 1 .37-.592c.735-.328 1.731-.019 2.442.24.924.33 1.794.788 2.692 1.18a.28.28 0 0 1 .079.058.466.466 0 0 1 .08.055c.015.017.03.034.042.053 1.27.45 2.529.937 3.797 1.399 1.167.424 2.375.755 3.515 1.243a5.967 5.967 0 0 1 2.788 2.252c.334.551.629 1.125.884 1.717.32.685.636 1.371.948 2.058l2.147 4.657c.192.419-.428.783-.622.364-.615-1.337-1.23-2.673-1.847-4.008-.583-1.267-1.124-2.563-1.77-3.799a4.915 4.915 0 0 0-2.54-2.462c-1.07-.508-2.238-.805-3.362-1.198-1.416-.508-2.819-1.056-4.238-1.56-.451.24-1.152.087-1.584 0-.346-.064-.687-.148-1.028-.225-.341-.076-.704-.12-1.042-.24a5.863 5.863 0 0 1-1.36-.639.277.277 0 0 0-.028.106c-.009.115 0 .23.026.342.065.295.167.581.303.85.369.752.855 1.44 1.44 2.04a7.396 7.396 0 0 0 2.315 1.578c.399.182.802.354 1.2.527a.385.385 0 0 1 .378-.122c.048.012.098.023.146.03h.111c.1.007.202.007.302 0h.265c.105-.016.209-.038.312-.066.374-.1.716-.294.994-.563a.36.36 0 0 1 .5.008.359.359 0 0 1 .009.5 3.06 3.06 0 0 1-1.657.816c.2.096.399.192.593.297a9.04 9.04 0 0 1 4.11 4.597c.736 1.809.76 3.708.558 5.61a.275.275 0 0 1-.022.19c-.024.21-.048.423-.077.634-.336 2.487-.914 5.107.034 7.531a.29.29 0 0 1-.048.319c.764.836 1.52 1.677 2.257 2.541.3.35-.206.86-.509.508-1.652-1.916-3.362-3.801-5.162-5.588a84.654 84.654 0 0 0-2.747-2.611c-.466-.427-.927-.86-1.393-1.287a6.535 6.535 0 0 0-1.44-1.066 2.647 2.647 0 0 0-1.785-.18c-.44.138-.828.404-1.114.765a5.811 5.811 0 0 0-.79 1.267 6.032 6.032 0 0 0-.62 1.631c-.168 1.073.853 1.996 1.477 2.753.66.798 1.324 1.597 1.993 2.395a330.178 330.178 0 0 0 4.543 5.323c.305.347-.204.857-.509.507-1.455-1.662-2.881-3.353-4.305-5.03-.714-.848-1.424-1.699-2.13-2.553-.692-.836-1.64-1.73-1.786-2.85-.09-.679.177-1.309.439-1.917.199-.493.44-.967.72-1.418.22-.349.49-.664.8-.937a5.292 5.292 0 0 1-1.41.424v.031c.068 1.09-.552 2.017-1.318 2.733-.867.81-1.9 1.438-2.845 2.144a48.582 48.582 0 0 0-5.763 5.17 59.668 59.668 0 0 0-2.963 3.33.355.355 0 0 1-.06.059l-.123.21s-1.061-.524-1.31-.658c-1.475-.788-4.162-3.277-5.283-4.506a22.062 22.062 0 0 1-2.798-3.928 31.66 31.66 0 0 1-2.329-6.116c-.214-.934-.523-3.794-.523-3.794l.96-1.109zm27.746-11.481c.266.08.545.11.816.17.272.06.55.13.826.19l.406.078c-.28-.134-.564-.263-.85-.385a6.346 6.346 0 0 0-1.995-.58 2.147 2.147 0 0 0-.373 0c.37.218.762.395 1.17.527zm-20.432 3.303c-.113.163-.2.344-.254.534-.031.1-.056.202-.075.305V30.056c.437-.292.879-.58 1.318-.87a.323.323 0 0 1-.014-.097c-.001-.118.01-.235.034-.35a3.065 3.065 0 0 1-.48-.312l-.185-.143c-.129.113-.244.24-.344.378zm5.797-5.948c-.445-.182-.87.096-1.201.37-.819.668-1.587 1.405-2.377 2.107-.615.546-1.398 1.136-1.647 1.957-.027.087-.041.173-.063.26 0 .023 0 .037-.012.05-.012.011.012 0 .022.011.081.098.173.188.274.266.12.106.25.202.386.288.665-1.885 2.641-2.985 4.37-3.905l1.112-.596a2.298 2.298 0 0 0-.864-.808zm-4.051 5.955c.542-.359 1.08-.718 1.618-1.087a2.048 2.048 0 0 0-.655.148 1.7 1.7 0 0 0-.963.94zm8.032-5.487c-.24-.106-.456-.24-.72-.135-.294.127-.574.305-.855.456l-1.681.898c-1.028.55-2.104 1.063-3.035 1.768-.33.247-.633.529-.903.84a3.23 3.23 0 0 1 1.767-.055.291.291 0 0 1 .168.046c.838.227 1.595.687 2.341 1.118.747.432 1.518.872 2.274 1.313.193-.157.376-.324.55-.5a.24.24 0 0 1 .041-.034c.334-.558 1.093-.822 1.633-1.121 1.143-.635 2.247-1.33 3.42-1.916l.48-.24c-1.78-.874-3.655-1.602-5.48-2.438zm19.786 13.809a8.347 8.347 0 0 0-4.051-4.693c-1.038-.55-2.142-.958-3.206-1.456a8.016 8.016 0 0 1-1.616-.99 65.357 65.357 0 0 1 3.842 6.547c.216.424.38.877.24 1.351-.04.127-.096.248-.168.36 0 .035-.007.07-.02.103-.296.867-.68 1.702-1.142 2.493.588-.24 1.179-.457 1.772-.673.687-.251 1.44-.443 2.161-.24.96.278 1.803.896 2.591 1.522.125-1.45.082-2.904-.403-4.324zm-5.972 6.777c.996.92 2 1.827 2.977 2.766a83.07 83.07 0 0 1 3.03 3.069c-.48-1.917-.201-3.953.082-5.9.075-.51.147-1.02.207-1.533-.807-.65-1.7-1.382-2.7-1.677-.647-.192-1.33.06-1.937.288-.792.297-1.582.606-2.375.91a.36.36 0 0 1-.105.021c-.229.304-.474.594-.735.87.565.33 1.088.728 1.556 1.186zm-3.42-1.625c.391-.02.782.029 1.156.144a10.042 10.042 0 0 0 1.882-2.656c-1.2.819-2.267 1.849-3.53 2.587.162-.04.327-.065.493-.075zm-2.78-.218c.459 0 .896-.268 1.277-.479.423-.24.843-.5 1.259-.757a53.7 53.7 0 0 0 2.454-1.616c.393-.276.804-.542 1.171-.853.277-.24.598-.551.548-.946a3.005 3.005 0 0 0-.428-.958 79.13 79.13 0 0 0-.415-.774c-.32-.575-.64-1.147-.96-1.715a87.865 87.865 0 0 0-2.161-3.522 35.075 35.075 0 0 0-2.13-2.972 10.261 10.261 0 0 0-.896-.987 2.964 2.964 0 0 0-.346-.292c-.05-.036-.1-.067-.153-.099l-.068-.033-.03-.012h-.04a39.414 39.414 0 0 0-3.676 1.916c-.48.292-.989.58-1.495.846-.31.165-.72.304-.903.618-.183.314.098.958.209 1.31a32.2 32.2 0 0 0 4.97 9.615c.271.36.545.719.836 1.057.29.337.535.632.975.651l.002.002zm-.459.64a2.059 2.059 0 0 1-.754-.462 8.945 8.945 0 0 1-.89-1.057 32.866 32.866 0 0 1-2.473-3.643 33.091 33.091 0 0 1-2.508-5.349c-.172-.479-.333-.958-.48-1.437-.07-.22-.151-.453-.204-.688-.313.207-.569.49-.742.822-.326.78.039 1.71.336 2.44a27.208 27.208 0 0 0 2.337 4.442 25.16 25.16 0 0 0 3.088 3.924c.569.58 1.212 1.049 2.062 1.02.075.005.152-.005.228-.014v.002zm-8.082 8.08a44.72 44.72 0 0 1 2.86-2.446c.934-.738 1.92-1.394 2.881-2.12.884-.678 1.837-1.569 1.763-2.776v-.02a3.19 3.19 0 0 1-1.681-.718 13.094 13.094 0 0 1-1.799-1.916 29.465 29.465 0 0 1-1.65-2.206 28.067 28.067 0 0 1-2.576-4.762c-.382-.906-.773-1.917-.518-2.916.086-.31.251-.593.48-.821l-1.715-.99a15.048 15.048 0 0 0-2.089-1.113c-.115-.046-.24-.084-.35-.12-1.763 1.224-3.576 2.369-5.338 3.593-1.582 1.095-2.937 2.546-4.207 3.976a24.806 24.806 0 0 0-1.65 2.027l.058.048c2.526 1.173 4.651 3.008 6.673 4.898 2.195 2.058 4.322 4.312 5.422 7.155a9.7 9.7 0 0 1 .655 4.03 49.455 49.455 0 0 1 2.78-2.806v.003z" fill="navy"/>
        </g>
    </g>
</svg>
