<svg width="24" height="24" viewBox="0 0 24 24" xmlns="http://www.w3.org/2000/svg">
    <g fill="none" fill-rule="evenodd">
        <path d="M12 1c1.113 0 2.184.06 3.185.178l.494.064.56.086c3.303.551 5.621 1.778 5.755 3.513L22 5l.001 6.71a8.037 8.037 0 0 0-2-1.64V7.528c-.89.463-2.038.825-3.36 1.074l-.401.071-.561.086A26.78 26.78 0 0 1 12 9c-1.113 0-2.184-.06-3.185-.178l-.494-.064-.56-.086C6.27 8.423 4.98 8.037 4 7.528L4 12c0 .227.277.483.773.734l.266.125.3.123.164.061.35.119.38.115c.265.075.548.146.849.213l.464.097.488.09.511.08.132.017a7.942 7.942 0 0 0-.576 1.953C6.463 15.484 5.05 15.08 4 14.533V19c0 .227.277.483.773.734l.266.125.3.123.164.061.35.119.38.115c.265.075.548.146.849.213l.464.097.488.09.511.08c.138.02.279.039.421.056a8.025 8.025 0 0 0 1.709 2.157 15.29 15.29 0 0 1-.27-.012l-.617-.04-.602-.054c-4.064-.411-7.041-1.73-7.18-3.717L2 19V5l.006-.16c.13-1.681 2.313-2.886 5.457-3.46l.297-.052.561-.086A26.78 26.78 0 0 1 12 1zm0 2-.307.002c-.34.004-.674.015-1.001.033l-.486.03-.568.049-.551.06c-.301.036-.593.077-.875.123l-.415.072-.477.093-.451.1-.425.108C4.937 4.073 4 4.587 4 5c0 .391.84.873 2.21 1.266l.234.064.425.107.451.101.477.093c.271.05.554.096.845.137l.445.058.55.06.569.049a24.638 24.638 0 0 0 3.004.035l.584-.035.568-.049.551-.06c.301-.036.593-.077.875-.123l.415-.072.477-.093.451-.1.425-.108C19.063 5.927 20 5.413 20 5c0-.391-.84-.873-2.21-1.266l-.234-.064-.425-.107-.451-.101-.477-.093c-.271-.05-.554-.096-.845-.137l-.445-.058-.55-.06-.569-.049A24.638 24.638 0 0 0 12 3z" fill="navy" fill-rule="nonzero"/>
        <circle stroke="navy" stroke-width="1.25" stroke-linecap="round" stroke-linejoin="round" cx="16" cy="17" r="1.636"/>
        <path d="M20.036 18.636a.9.9 0 0 0 .18.993l.033.033a1.09 1.09 0 1 1-1.544 1.543l-.032-.032a.9.9 0 0 0-.993-.18.9.9 0 0 0-.545.823v.093a1.09 1.09 0 0 1-2.182 0v-.049a.9.9 0 0 0-.59-.824.9.9 0 0 0-.992.18l-.033.033a1.09 1.09 0 1 1-1.543-1.544l.032-.032a.9.9 0 0 0 .18-.993.9.9 0 0 0-.823-.545h-.093a1.09 1.09 0 0 1 0-2.182h.049a.9.9 0 0 0 .824-.59.9.9 0 0 0-.18-.992l-.033-.033a1.09 1.09 0 1 1 1.544-1.543l.032.032a.9.9 0 0 0 .993.18h.044a.9.9 0 0 0 .545-.823v-.093a1.09 1.09 0 1 1 2.182 0v.049a.9.9 0 0 0 .545.824.9.9 0 0 0 .993-.18l.033-.033a1.09 1.09 0 1 1 1.543 1.544l-.032.032a.9.9 0 0 0-.18.993v.044a.9.9 0 0 0 .823.545h.093a1.09 1.09 0 1 1 0 2.182h-.049a.9.9 0 0 0-.824.545z" stroke="navy" stroke-width="1.25" stroke-linecap="round" stroke-linejoin="round"/>
    </g>
</svg>
